<svg xmlns="http://www.w3.org/2000/svg" viewBox="0 0 45.68 63.27"><defs><style>.cls-1{fill:#fff;}.cls-2{fill:#fefefe;}.cls-3{fill:#fdfdfd;}.cls-4{fill:#fcfcfc;}.cls-5{fill:#fbfbfb;}.cls-6{fill:#fafafa;}.cls-7{fill:#f9f9f9;}.cls-8{fill:#f8f8f8;}.cls-9{fill:#f7f7f7;}.cls-10{fill:#f6f6f6;}.cls-11{fill:#f5f5f5;}.cls-12{fill:#f4f4f4;}.cls-13{fill:#f3f3f3;}.cls-14{fill:#f2f2f2;}.cls-15{fill:#f1f1f1;}.cls-16{fill:#f0f0f0;}.cls-17{fill:#efefef;}.cls-18{fill:#eee;}.cls-19{fill:#ededed;}.cls-20{fill:#ececec;}.cls-21{fill:#ebebeb;}.cls-22{fill:#eaeaea;}.cls-23{fill:#e9e9e9;}.cls-24{fill:#e8e8e8;}.cls-25{fill:#e7e7e7;}.cls-26{fill:#e6e6e6;}.cls-27{fill:#e5e5e5;}.cls-28{fill:#e4e4e4;}.cls-29{fill:#e3e3e3;}.cls-30{fill:#e2e2e2;}.cls-31{fill:#e1e1e1;}.cls-32{fill:#e0e0e0;}.cls-33{fill:#dfdfdf;}.cls-34{fill:#dedede;}.cls-35{fill:#ddd;}.cls-36{fill:#dcdcdc;}.cls-37{fill:#dbdbdb;}.cls-38{fill:#dadada;}.cls-39{fill:#d9d9d9;}.cls-40{fill:#d8d8d8;}.cls-41{fill:#d7d7d7;}.cls-42{fill:#d6d6d6;}.cls-43{fill:#d5d5d5;}.cls-44{fill:#d4d4d4;}.cls-45{fill:#d3d3d3;}.cls-46{fill:#d2d2d2;}.cls-47{fill:#d1d1d1;}.cls-48{fill:#d0d0d0;}.cls-49{fill:#cfcfcf;}.cls-50{fill:#cecece;}.cls-51{fill:#cdcdcd;}.cls-52{fill:#ccc;}.cls-53{fill:#cbcbcb;}.cls-54{fill:#cacaca;}.cls-55{fill:#c9c9c9;}.cls-56{fill:#c8c8c8;}.cls-57{fill:#c7c7c7;}.cls-58{fill:#c6c6c6;}.cls-59{fill:#c5c5c5;}.cls-60{fill:#c4c4c4;}.cls-61{fill:#c3c3c3;}.cls-62{fill:#c2c2c2;}.cls-63{fill:#c1c1c1;}.cls-64{fill:silver;}.cls-65{fill:#bfbfbf;}.cls-66{fill:#bebebe;}.cls-67{fill:#bdbdbd;}.cls-68{fill:#bcbcbc;}.cls-69{fill:#bbb;}.cls-70{fill:#bababa;}.cls-71{fill:#b9b9b9;}.cls-72{fill:#b8b8b8;}.cls-73{fill:#b7b7b7;}.cls-74{fill:#b6b6b6;}.cls-75{fill:#b5b5b5;}.cls-76{fill:#b4b4b4;}.cls-77{fill:#b3b3b3;}.cls-78{fill:#b2b2b2;}.cls-79{fill:#b1b1b1;}.cls-80{fill:#b0b0b0;}.cls-81{fill:#afafaf;}</style></defs><title>Location</title><g id="Layer_2" data-name="Layer 2"><g id="All"><g id="Pin"><path class="cls-1" d="M19.56,8.77a13.3,13.3,0,0,1,13,7.75c2.07,5,.27,11.33-4.27,14.21S16.94,32.34,14,27.85c-.37-.57-.68-1.18-1-1.79l-1-2c-1.43-2.78-2.73-6.57-.43-8.7A8.16,8.16,0,0,0,1.26,12.92L.12,23c-.2,1.73-.3,3.76,1,4.94s3.05,1,4.14,2.12a5.38,5.38,0,0,1,1.13,2.59A96.92,96.92,0,0,0,17.82,60.31c.76,1.25,1.74,2.6,3.19,2.74,1.62.17,3-1.3,3.55-2.82s.75-3.2,1.55-4.62c1.21-2.16,3.65-3.3,5.39-5.07,5.24-5.34,3.34-15.44,9.27-20a22.24,22.24,0,0,0,3.52-2.6c2.08-2.36,1.46-6,.48-9-2.67-8.2-8-16.54-16.42-18.5S11.52,3.55,4.29,8.4a8.3,8.3,0,0,0-3.1,3c1.32-2.78,8.73,2.15,9.62,2.07C13.68,13.21,15.78,9,19.56,8.77Z"/><path class="cls-2" d="M4.4,8.43a8.25,8.25,0,0,0-3.1,3c1-2.08,5.49.32,7.93,1.54a4.83,4.83,0,0,0,1.53.58c2-.21,3.68-2.35,5.79-3.68a6.45,6.45,0,0,1,2.93-1,13.48,13.48,0,0,1,7.16,1.51A13.12,13.12,0,0,1,31.05,14a11.5,11.5,0,0,1,1.41,2.43c.1.23.19.47.28.72a12.16,12.16,0,0,1-.94,9.71,10.64,10.64,0,0,1-3.48,3.76,10.81,10.81,0,0,1-9.14,1,9.7,9.7,0,0,1-5.07-3.73,18.31,18.31,0,0,1-1-1.77l-.46-.86-.58-1.11a14.24,14.24,0,0,1-1.68-4.88,4.34,4.34,0,0,1,1.17-3.79A8.16,8.16,0,0,0,1.37,13c0,.25-.05.5-.08.75-.21,1.71-.43,3.44-.64,5.17C.49,20.24.34,21.6.19,23c-.19,1.74-.27,3.76,1,4.94s3,1,4.1,2.12a5.34,5.34,0,0,1,1.12,2.57c.59,2.41,1.27,4.8,2,7.15s1.7,4.88,2.69,7.27a97.71,97.71,0,0,0,6.21,12.3l.47.76c.75,1.23,1.72,2.57,3.16,2.72a2.42,2.42,0,0,0,1.17-.16A4.63,4.63,0,0,0,24.54,60c.55-1.38.74-2.91,1.39-4.26a3.24,3.24,0,0,1,.17-.32,10.22,10.22,0,0,1,2.83-3,24.41,24.41,0,0,0,2.54-2.1c5.21-5.3,3.38-15.32,9.25-19.88a21.84,21.84,0,0,0,3.48-2.59c2.1-2.41,1.39-6.12.37-9.12C41.82,10.72,36.62,2.45,28.3.52A16.94,16.94,0,0,0,22.55.2C16.14.88,9.94,4.72,4.4,8.43Z"/><path class="cls-3" d="M4.51,8.46a8.23,8.23,0,0,0-3.1,3c.93-2,5.37.36,7.77,1.6a4.8,4.8,0,0,0,1.53.57c2-.25,3.67-2.38,5.77-3.69a6.42,6.42,0,0,1,2.93-1.05,13.52,13.52,0,0,1,7.15,1.46A13.08,13.08,0,0,1,31,14a11.06,11.06,0,0,1,1.42,2.42c.1.23.2.47.28.71a12,12,0,0,1-.86,9.68,10.49,10.49,0,0,1-3.44,3.78,10.8,10.8,0,0,1-9.08,1.1A9.67,9.67,0,0,1,14.23,28a17.69,17.69,0,0,1-1-1.74l-.45-.85-.6-1.11a14.19,14.19,0,0,1-1.7-4.85,4.33,4.33,0,0,1,1.13-3.78A8.17,8.17,0,0,0,1.49,13c0,.24-.06.49-.08.73-.24,1.69-.47,3.4-.68,5.13C.56,20.23.41,21.59.27,23c-.19,1.73-.26,3.75,1,4.93s3,1,4.07,2.11a5.4,5.4,0,0,1,1.12,2.56q.87,3.59,2,7.1c.8,2.44,1.7,4.85,2.69,7.21a96.45,96.45,0,0,0,6.19,12.21c.15.25.31.5.46.76.75,1.22,1.72,2.55,3.14,2.7a2.43,2.43,0,0,0,1.17-.15,4.58,4.58,0,0,0,2.35-2.57c.56-1.36.76-2.88,1.4-4.22l.17-.33a10.41,10.41,0,0,1,2.82-2.95,25.52,25.52,0,0,0,2.53-2.09C36.63,45,34.85,35,40.66,30.48c1.14-.89,2.52-1.49,3.46-2.59,2.1-2.47,1.31-6.23.24-9.24C41.55,10.7,36.48,2.5,28.26.59a17.21,17.21,0,0,0-5.71-.3C16.18,1,10,4.77,4.51,8.46Z"/><path class="cls-4" d="M4.63,8.48a8.36,8.36,0,0,0-3.12,3c.9-2,5.26.41,7.62,1.66a4.47,4.47,0,0,0,1.52.55c2-.27,3.67-2.39,5.76-3.7a6.55,6.55,0,0,1,2.92-1.06,13.69,13.69,0,0,1,7.15,1.42,13,13,0,0,1,4.43,3.58,11.3,11.3,0,0,1,1.43,2.39c.11.24.2.47.29.71a12.06,12.06,0,0,1-.78,9.66,10.52,10.52,0,0,1-3.41,3.79,10.75,10.75,0,0,1-9,1.18,9.63,9.63,0,0,1-5.08-3.59,18.61,18.61,0,0,1-1-1.72l-.46-.84-.6-1.1a14.45,14.45,0,0,1-1.74-4.83,4.33,4.33,0,0,1,1.09-3.77,8.19,8.19,0,0,0-10-2.73c0,.24-.05.47-.08.71C1.27,15.43,1,17.14.8,18.86.63,20.22.48,21.58.34,22.94c-.18,1.73-.24,3.74,1,4.92s3,1,4,2.11A5.32,5.32,0,0,1,6.52,32.5q.89,3.57,2,7.06t2.69,7.16a93.15,93.15,0,0,0,6.17,12.11l.45.75c.75,1.21,1.71,2.53,3.12,2.69a2.38,2.38,0,0,0,1.16-.15,4.5,4.5,0,0,0,2.34-2.52c.56-1.34.77-2.86,1.42-4.19a3.24,3.24,0,0,1,.17-.32,10.34,10.34,0,0,1,2.8-3,25.31,25.31,0,0,0,2.52-2.08c5.18-5.22,3.46-15.07,9.22-19.61,1.13-.88,2.5-1.48,3.42-2.58,2.11-2.52,1.24-6.35.13-9.37-2.87-7.82-7.8-16-15.94-17.83A16.75,16.75,0,0,0,22.54.39C16.23,1.09,10.09,4.83,4.63,8.48Z"/><path class="cls-5" d="M4.74,8.51a8.46,8.46,0,0,0-3.12,3c.86-1.94,5.14.46,7.46,1.73a4.37,4.37,0,0,0,1.52.54c2-.3,3.67-2.42,5.74-3.72A6.55,6.55,0,0,1,19.26,9a13.58,13.58,0,0,1,7.13,1.37,12.77,12.77,0,0,1,4.45,3.52,11.52,11.52,0,0,1,1.44,2.38c.11.24.2.47.29.71a12,12,0,0,1-.69,9.62,10.58,10.58,0,0,1-3.37,3.82,10.76,10.76,0,0,1-9,1.25,9.53,9.53,0,0,1-5.08-3.51,16.44,16.44,0,0,1-1-1.7c-.16-.28-.32-.56-.47-.84s-.41-.72-.61-1.09a14.26,14.26,0,0,1-1.76-4.8,4.35,4.35,0,0,1,1-3.76c-2.18-3.17-6.72-4.41-9.9-2.82,0,.23-.06.46-.08.69-.27,1.64-.54,3.33-.76,5.05C.7,20.2.55,21.56.42,22.92c-.17,1.73-.23,3.74,1.05,4.92,1.12,1,2.94,1,4,2.11a5.29,5.29,0,0,1,1.1,2.51c.59,2.36,1.26,4.7,2,7s1.68,4.77,2.67,7.1a94.47,94.47,0,0,0,6.15,12c.15.25.3.5.46.75.74,1.2,1.7,2.51,3.1,2.67a2.47,2.47,0,0,0,1.15-.14,4.49,4.49,0,0,0,2.32-2.48c.57-1.32.79-2.83,1.44-4.15.05-.11.11-.22.17-.33A10.23,10.23,0,0,1,28.84,52a28,28,0,0,0,2.52-2.07c5.15-5.18,3.49-14.94,9.2-19.47,1.11-.89,2.47-1.48,3.38-2.58,2.12-2.58,1.17-6.46,0-9.49C41,10.66,36.22,2.58,28.18.75A16.78,16.78,0,0,0,22.54.48C16.27,1.19,10.18,4.9,4.74,8.51Z"/><path class="cls-6" d="M4.85,8.54a8.43,8.43,0,0,0-3.12,3c.81-1.89,5,.5,7.3,1.79a3.87,3.87,0,0,0,1.52.52c2-.32,3.66-2.43,5.72-3.73A6.51,6.51,0,0,1,19.18,9a13.65,13.65,0,0,1,7.13,1.32,12.74,12.74,0,0,1,4.46,3.47,11.21,11.21,0,0,1,1.46,2.36c.1.23.2.47.29.7a12,12,0,0,1-.61,9.59,10.56,10.56,0,0,1-3.34,3.84,10.68,10.68,0,0,1-8.91,1.33,9.47,9.47,0,0,1-5.08-3.43,19.72,19.72,0,0,1-1.06-1.68l-.47-.83c-.21-.36-.41-.72-.61-1.08a14.14,14.14,0,0,1-1.79-4.78,4.34,4.34,0,0,1,1-3.75C9.46,12.9,5,11.63,1.83,13.16c0,.22-.05.44-.07.67-.29,1.61-.58,3.3-.81,5C.76,20.19.62,21.55.49,22.91c-.16,1.72-.2,3.73,1.07,4.91,1.11,1,2.91,1,4,2.11a5.37,5.37,0,0,1,1.1,2.49c.58,2.34,1.26,4.66,2,7s1.68,4.74,2.67,7a91.84,91.84,0,0,0,6.13,11.92l.45.74c.74,1.2,1.69,2.49,3.08,2.66a2.56,2.56,0,0,0,1.14-.13,4.43,4.43,0,0,0,2.31-2.44c.57-1.3.81-2.8,1.46-4.12a3.24,3.24,0,0,1,.17-.32,10.16,10.16,0,0,1,2.76-2.94,28.08,28.08,0,0,0,2.51-2.06c5.14-5.14,3.53-14.82,9.18-19.34,1.11-.88,2.46-1.48,3.35-2.58,2.14-2.62,1.1-6.56-.1-9.61-3-7.57-7.66-15.59-15.62-17.39A16.72,16.72,0,0,0,22.54.57C16.31,1.29,10.26,5,4.85,8.54Z"/><path class="cls-7" d="M5,8.56A8.6,8.6,0,0,0,1.83,11.5c.78-1.84,4.91.56,7.15,1.86a3.92,3.92,0,0,0,1.52.51c2-.35,3.65-2.46,5.7-3.75a6.77,6.77,0,0,1,2.91-1.07,13.79,13.79,0,0,1,7.12,1.28,12.7,12.7,0,0,1,4.47,3.41,11.6,11.6,0,0,1,1.47,2.35c.1.23.2.46.29.7a11.93,11.93,0,0,1-.52,9.56,10.66,10.66,0,0,1-3.3,3.85,10.65,10.65,0,0,1-8.85,1.41,9.42,9.42,0,0,1-5.1-3.36,16.56,16.56,0,0,1-1.06-1.65l-.48-.82-.62-1.07A14.16,14.16,0,0,1,10.72,20a4.34,4.34,0,0,1,.95-3.74c-2.18-3.16-6.64-4.46-9.73-3,0,.22,0,.44-.07.66-.3,1.59-.61,3.26-.85,5C.83,20.18.69,21.54.57,22.89.41,24.62.38,26.61,1.65,27.8c1.09,1,2.88,1,3.92,2.1a5.36,5.36,0,0,1,1.09,2.48c.59,2.33,1.26,4.63,2,6.9s1.67,4.71,2.65,7a93.7,93.7,0,0,0,6.11,11.82l.45.74c.74,1.18,1.69,2.47,3.06,2.64a2.37,2.37,0,0,0,1.13-.13A4.35,4.35,0,0,0,24.39,59c.58-1.28.83-2.77,1.47-4.08l.17-.33a10.36,10.36,0,0,1,2.75-2.93,31.12,31.12,0,0,0,2.51-2.05c5.11-5.1,3.56-14.69,9.16-19.2,1.1-.88,2.44-1.48,3.32-2.58,2.14-2.68,1-6.67-.22-9.73C40.52,10.62,36,2.66,28.09.9A16.49,16.49,0,0,0,22.54.67C16.35,1.39,10.34,5,5,8.56Z"/><path class="cls-8" d="M5.07,8.59a8.49,8.49,0,0,0-3.13,2.93c.74-1.8,4.79.6,7,1.92a3.58,3.58,0,0,0,1.51.49c2-.37,3.66-2.47,5.69-3.76A6.77,6.77,0,0,1,19,9.1a13.74,13.74,0,0,1,7.11,1.23,12.57,12.57,0,0,1,4.48,3.36A11.23,11.23,0,0,1,32.11,16q.16.35.3.69A11.89,11.89,0,0,1,32,26.24,10.23,10.23,0,0,1,19.91,31.6a9.29,9.29,0,0,1-5.1-3.28,16.43,16.43,0,0,1-1.08-1.63l-.48-.82-.63-1.06a14.1,14.1,0,0,1-1.83-4.73,4.34,4.34,0,0,1,.9-3.73c-2.18-3.16-6.59-4.49-9.63-3.1,0,.21-.05.42-.07.64-.32,1.56-.65,3.23-.89,4.93C.9,20.17.76,21.53.64,22.88c-.15,1.72-.17,3.71,1.09,4.9,1.09,1,2.86,1,3.89,2.1a5.34,5.34,0,0,1,1.09,2.46q.88,3.46,2,6.85t2.65,7a90.52,90.52,0,0,0,6.09,11.73l.45.73c.73,1.18,1.67,2.45,3,2.63a2.49,2.49,0,0,0,1.12-.12,4.39,4.39,0,0,0,2.29-2.35c.58-1.26.84-2.74,1.48-4,.06-.11.11-.22.17-.32a10.05,10.05,0,0,1,2.74-2.93,30.81,30.81,0,0,0,2.49-2.05c5.1-5,3.6-14.56,9.15-19.06,1.08-.88,2.41-1.47,3.28-2.57,2.15-2.73,1-6.78-.34-9.86C40.27,10.6,35.83,2.71,28.05,1A16.56,16.56,0,0,0,22.53.76C16.39,1.49,10.42,5.08,5.07,8.59Z"/><path class="cls-9" d="M5.18,8.62A8.63,8.63,0,0,0,2,11.53c.71-1.74,4.68.65,6.84,2a3.62,3.62,0,0,0,1.51.48c2-.4,3.65-2.5,5.67-3.77A6.66,6.66,0,0,1,19,9.15a14,14,0,0,1,7.1,1.17,12.63,12.63,0,0,1,4.5,3.31A11.2,11.2,0,0,1,32.05,16a7.17,7.17,0,0,1,.3.69A11.83,11.83,0,0,1,32,26.13,10.44,10.44,0,0,1,28.76,30,10.56,10.56,0,0,1,20,31.59a9.23,9.23,0,0,1-5.1-3.2,16.37,16.37,0,0,1-1.09-1.62l-.49-.8-.63-1a14.38,14.38,0,0,1-1.87-4.71,4.37,4.37,0,0,1,.86-3.72C9.53,13.33,5.16,12,2.17,13.3l-.06.61c-.34,1.55-.69,3.2-.94,4.91q-.3,2-.45,4.05c-.15,1.71-.16,3.7,1.1,4.89,1.08,1,2.82,1,3.85,2.1A5.3,5.3,0,0,1,6.75,32.3c.59,2.29,1.27,4.56,2,6.8s1.67,4.64,2.65,6.9a91.14,91.14,0,0,0,6.06,11.64l.45.72c.73,1.16,1.67,2.43,3,2.61a2.43,2.43,0,0,0,1.11-.12,4.28,4.28,0,0,0,2.28-2.3c.58-1.24.86-2.71,1.5-4l.17-.32a10.21,10.21,0,0,1,2.72-2.92,28.92,28.92,0,0,0,2.48-2c5.09-5,3.64-14.44,9.13-18.92,1.08-.88,2.4-1.47,3.25-2.57,2.17-2.79.89-6.89-.45-10C40,10.57,35.7,2.75,28,1.06a16.07,16.07,0,0,0-5.48-.2C16.43,1.6,10.5,5.14,5.18,8.62Z"/><path class="cls-10" d="M5.29,8.64a8.63,8.63,0,0,0-3.14,2.91c.66-1.7,4.56.69,6.68,2a3.42,3.42,0,0,0,1.51.46c1.95-.41,3.65-2.52,5.65-3.78a6.66,6.66,0,0,1,2.9-1.08A14,14,0,0,1,26,10.32a12.47,12.47,0,0,1,4.5,3.26A10.51,10.51,0,0,1,32,15.88c.11.22.21.45.31.68A11.8,11.8,0,0,1,32,26a10.45,10.45,0,0,1-3.19,3.91,10.6,10.6,0,0,1-8.68,1.66A9.28,9.28,0,0,1,15,28.46,16.09,16.09,0,0,1,14,26.86c-.17-.26-.34-.52-.5-.79L12.81,25a13.89,13.89,0,0,1-1.89-4.68,4.37,4.37,0,0,1,.81-3.71c-2.17-3.15-6.5-4.54-9.45-3.28l-.06.59c-.35,1.53-.71,3.17-1,4.87C1,20.15.89,21.5.79,22.85c-.13,1.72-.13,3.7,1.12,4.88,1.07,1,2.79,1,3.81,2.1A5.37,5.37,0,0,1,6.8,32.26q.88,3.41,2,6.75c.78,2.31,1.66,4.6,2.63,6.84A90,90,0,0,0,17.5,57.4c.15.24.29.48.44.71.73,1.16,1.66,2.41,3,2.6A2.37,2.37,0,0,0,22,60.6a4.22,4.22,0,0,0,2.27-2.26c.59-1.22.88-2.68,1.52-4A3.24,3.24,0,0,1,26,54a9.88,9.88,0,0,1,2.7-2.92c.84-.67,1.72-1.29,2.48-2,5.06-5,3.67-14.31,9.11-18.79,1.06-.88,2.38-1.47,3.21-2.56,2.18-2.84.82-7-.56-10.11C39.78,10.55,35.57,2.8,28,1.13A16.27,16.27,0,0,0,22.53,1C16.48,1.7,10.58,5.2,5.29,8.64Z"/><path class="cls-11" d="M5.4,8.67a8.66,8.66,0,0,0-3.14,2.89c.62-1.65,4.44.75,6.52,2.12a3.36,3.36,0,0,0,1.5.45c2-.44,3.65-2.54,5.64-3.8a6.76,6.76,0,0,1,2.89-1.09,14.22,14.22,0,0,1,7.09,1.08,12.35,12.35,0,0,1,4.51,3.2,10.92,10.92,0,0,1,1.52,2.28c.11.23.22.46.31.69a11.72,11.72,0,0,1-.19,9.43,10.38,10.38,0,0,1-3.16,3.92,10.56,10.56,0,0,1-8.62,1.74,9.18,9.18,0,0,1-5.11-3.06A16.34,16.34,0,0,1,14.05,27l-.5-.78-.64-1A13.94,13.94,0,0,1,11,20.47a4.35,4.35,0,0,1,.77-3.69C9.58,13.62,5.29,12.2,2.4,13.39L2.34,14c-.37,1.5-.75,3.13-1,4.83-.22,1.34-.36,2.69-.46,4C.74,24.55.75,26.53,2,27.71c1,1,2.76,1,3.77,2.1a5.4,5.4,0,0,1,1.08,2.41c.59,2.25,1.26,4.49,2,6.69s1.66,4.57,2.63,6.8a89.83,89.83,0,0,0,6,11.45l.45.71c.72,1.15,1.64,2.39,3,2.58a2.53,2.53,0,0,0,1.1-.1,4.23,4.23,0,0,0,2.25-2.21c.6-1.21.9-2.66,1.54-4l.16-.32A10.21,10.21,0,0,1,28.67,51a30.17,30.17,0,0,0,2.47-2c5-4.91,3.71-14.19,9.1-18.66,1-.87,2.35-1.46,3.18-2.55,2.18-2.9.74-7.11-.69-10.23-3.19-7-7.29-14.65-14.81-16.28A16,16,0,0,0,22.53,1C16.52,1.8,10.66,5.26,5.4,8.67Z"/><path class="cls-12" d="M5.51,8.7a8.83,8.83,0,0,0-3.15,2.88c.59-1.6,4.33.79,6.37,2.18a3.19,3.19,0,0,0,1.5.43c1.94-.45,3.64-2.56,5.62-3.81a7,7,0,0,1,2.89-1.09,14.17,14.17,0,0,1,7.08,1,12.23,12.23,0,0,1,4.52,3.15,10.57,10.57,0,0,1,1.53,2.26c.12.23.22.45.32.68a11.73,11.73,0,0,1-.11,9.4,10.19,10.19,0,0,1-11.69,5.76,9.18,9.18,0,0,1-5.11-3A14.57,14.57,0,0,1,14.16,27l-.51-.78-.65-1a13.75,13.75,0,0,1-1.94-4.63,4.35,4.35,0,0,1,.72-3.68c-2.18-3.16-6.42-4.61-9.27-3.48,0,.19,0,.38,0,.56-.39,1.48-.79,3.1-1.07,4.79-.22,1.33-.36,2.68-.45,4-.12,1.71-.1,3.68,1.14,4.86,1,1,2.74,1,3.74,2.1a5.26,5.26,0,0,1,1.07,2.39c.59,2.23,1.26,4.45,2,6.64s1.65,4.53,2.61,6.74a88.66,88.66,0,0,0,6,11.36l.44.7c.72,1.14,1.64,2.37,3,2.56A2.3,2.3,0,0,0,22,60.09a4.11,4.11,0,0,0,2.24-2.16c.6-1.19.91-2.63,1.55-3.92.06-.11.11-.22.17-.32a10.14,10.14,0,0,1,2.67-2.91c.83-.66,1.71-1.28,2.47-2,5-4.87,3.75-14.06,9.07-18.52,1-.87,2.34-1.46,3.15-2.55,2.2-3,.68-7.22-.8-10.36-3.22-6.83-7.22-14.46-14.65-16a15.6,15.6,0,0,0-5.36-.15C16.56,1.9,10.74,5.32,5.51,8.7Z"/><path class="cls-13" d="M5.63,8.72A8.78,8.78,0,0,0,2.47,11.6C3,10,6.68,12.43,8.68,13.84a3.11,3.11,0,0,0,1.5.42c1.93-.48,3.64-2.58,5.61-3.83a6.88,6.88,0,0,1,2.88-1.09,14.24,14.24,0,0,1,7.07,1,12.32,12.32,0,0,1,4.53,3.09,10.31,10.31,0,0,1,1.54,2.25,6.79,6.79,0,0,1,.32.67,11.66,11.66,0,0,1,0,9.37,10.44,10.44,0,0,1-3.09,4,10.56,10.56,0,0,1-8.51,1.89,9.07,9.07,0,0,1-5.12-2.9,17.26,17.26,0,0,1-1.13-1.53l-.51-.77c-.22-.34-.44-.68-.65-1a13.86,13.86,0,0,1-2-4.61,4.42,4.42,0,0,1,.68-3.67c-2.17-3.16-6.38-4.63-9.17-3.57L2.57,14c-.4,1.45-.82,3.06-1.11,4.75-.22,1.33-.36,2.68-.45,4C.9,24.52.93,26.48,2.17,27.67c1,1,2.71,1,3.7,2.09a5.33,5.33,0,0,1,1.07,2.38c.59,2.22,1.26,4.41,2,6.59s1.65,4.5,2.61,6.69a88.51,88.51,0,0,0,6,11.26l.44.7c.72,1.13,1.63,2.35,2.94,2.54A2.38,2.38,0,0,0,22,59.84a4.14,4.14,0,0,0,2.24-2.12c.6-1.17.92-2.6,1.56-3.89.05-.11.11-.21.17-.32a10.16,10.16,0,0,1,2.65-2.9c.83-.66,1.71-1.27,2.46-2,5-4.83,3.79-13.94,9.06-18.39,1-.87,2.31-1.46,3.11-2.55,2.21-3,.61-7.31-.92-10.47C39.07,10.48,35.18,2.93,27.84,1.37a15.62,15.62,0,0,0-5.32-.14C16.6,2,10.82,5.38,5.63,8.72Z"/><path class="cls-14" d="M5.74,8.75a8.82,8.82,0,0,0-3.16,2.86c.5-1.51,4.09.89,6.05,2.32a2.93,2.93,0,0,0,1.5.39c1.91-.49,3.63-2.6,5.59-3.83a6.92,6.92,0,0,1,2.87-1.11,14.4,14.4,0,0,1,7.06.94,12.11,12.11,0,0,1,4.55,3,10.62,10.62,0,0,1,1.56,2.23c.11.22.22.44.32.67a11.65,11.65,0,0,1,.06,9.33,10.33,10.33,0,0,1-3.06,4,10.47,10.47,0,0,1-8.44,2,9.07,9.07,0,0,1-5.13-2.82,17.05,17.05,0,0,1-1.14-1.51l-.52-.76-.66-1a14.1,14.1,0,0,1-2-4.59,4.4,4.4,0,0,1,.63-3.66c-2.17-3.15-6.33-4.66-9.08-3.66,0,.17,0,.35-.05.52a42.21,42.21,0,0,0-1.15,4.71,34,34,0,0,0-.45,4C1,24.5,1,26.46,2.26,27.65c1,1,2.68,1.05,3.66,2.09A5.24,5.24,0,0,1,7,32.1c.59,2.2,1.27,4.38,2,6.54s1.65,4.46,2.61,6.63a86,86,0,0,0,6,11.17l.44.7c.71,1.11,1.62,2.32,2.91,2.52A2.26,2.26,0,0,0,22,59.58a4,4,0,0,0,2.22-2.07c.6-1.15.94-2.57,1.58-3.86l.16-.31a10.14,10.14,0,0,1,2.64-2.9c.82-.66,1.7-1.27,2.45-2,5-4.79,3.83-13.81,9-18.25,1-.87,2.29-1.46,3.07-2.55,2.22-3.06.55-7.42-1-10.6C38.85,10.46,35,3,27.79,1.44a15.57,15.57,0,0,0-5.27-.11C16.64,2.11,10.9,5.44,5.74,8.75Z"/><path class="cls-15" d="M5.85,8.78a8.9,8.9,0,0,0-3.17,2.85c.47-1.46,4,.93,5.9,2.38a3,3,0,0,0,1.49.38c1.91-.52,3.63-2.62,5.58-3.85a6.92,6.92,0,0,1,2.87-1.11,14.34,14.34,0,0,1,7.05.89,12.08,12.08,0,0,1,4.56,3,10.59,10.59,0,0,1,1.57,2.22c.11.22.22.44.32.66a11.65,11.65,0,0,1,.15,9.31,10.21,10.21,0,0,1-11.41,6.05,9,9,0,0,1-5.13-2.74,15.14,15.14,0,0,1-1.15-1.49L14,26.55l-.67-1a13.81,13.81,0,0,1-2-4.56,4.41,4.41,0,0,1,.58-3.65c-2.17-3.15-6.29-4.68-9-3.76,0,.17,0,.34,0,.51a38.21,38.21,0,0,0-1.2,4.67,34,34,0,0,0-.45,4c-.1,1.7,0,3.65,1.19,4.84,1,1,2.65,1.05,3.63,2.09a5.37,5.37,0,0,1,1,2.34q.88,3.27,2,6.48t2.59,6.59A85.29,85.29,0,0,0,17.57,56.2l.44.69c.71,1.11,1.61,2.31,2.9,2.51A2.3,2.3,0,0,0,22,59.33a4.06,4.06,0,0,0,2.21-2c.61-1.13,1-2.54,1.6-3.82l.16-.32a10.16,10.16,0,0,1,2.62-2.89c.82-.66,1.7-1.26,2.45-2,5-4.75,3.86-13.69,9-18.12,1-.86,2.26-1.45,3-2.54,2.22-3.12.47-7.52-1.16-10.73C38.62,10.43,34.91,3,27.75,1.52a15.33,15.33,0,0,0-5.23-.1C16.69,2.21,11,5.5,5.85,8.78Z"/><path class="cls-16" d="M6,8.8a9,9,0,0,0-3.17,2.84c.43-1.41,3.86,1,5.73,2.45a2.81,2.81,0,0,0,1.5.36c1.9-.53,3.63-2.64,5.56-3.86a6.88,6.88,0,0,1,2.86-1.11,14.44,14.44,0,0,1,7,.84,11.89,11.89,0,0,1,4.57,2.93,10.61,10.61,0,0,1,1.58,2.2,6.77,6.77,0,0,1,.33.66,11.55,11.55,0,0,1,.22,9.27,10.28,10.28,0,0,1-3,4,10.48,10.48,0,0,1-8.33,2.14,8.91,8.91,0,0,1-5.13-2.68,13.85,13.85,0,0,1-1.17-1.46l-.53-.75-.67-1a13.88,13.88,0,0,1-2.05-4.54,4.42,4.42,0,0,1,.54-3.64C9.7,14.33,5.62,12.77,3,13.63c0,.17,0,.33-.05.49a34.81,34.81,0,0,0-1.24,4.63,31.88,31.88,0,0,0-.44,4c-.09,1.7,0,3.65,1.19,4.84,1,1,2.63,1.05,3.6,2.08a5.52,5.52,0,0,1,1,2.32q.88,3.26,2,6.44c.78,2.21,1.63,4.4,2.59,6.53a84.09,84.09,0,0,0,5.92,11c.14.23.29.46.44.69.71,1.09,1.6,2.28,2.87,2.49a2.41,2.41,0,0,0,1-.06,4,4,0,0,0,2.2-2c.62-1.11,1-2.51,1.61-3.79l.17-.31a10.09,10.09,0,0,1,2.6-2.89c.82-.66,1.69-1.26,2.44-2,4.95-4.71,3.9-13.56,9-18,1-.87,2.25-1.46,3-2.54,2.24-3.18.41-7.63-1.27-10.85-3.31-6.35-6.93-13.7-14-15.16a15.35,15.35,0,0,0-5.19-.09C16.73,2.31,11.06,5.56,6,8.8Z"/><path class="cls-17" d="M6.07,8.83A9,9,0,0,0,2.9,11.66c.39-1.37,3.75,1,5.57,2.51a2.75,2.75,0,0,0,1.5.35c1.89-.55,3.62-2.66,5.54-3.88a7.17,7.17,0,0,1,2.86-1.12,14.76,14.76,0,0,1,7,.79A12,12,0,0,1,30,13.19a10.69,10.69,0,0,1,1.59,2.18q.18.33.33.66a11.53,11.53,0,0,1,.31,9.24,10.35,10.35,0,0,1-2.94,4A10.53,10.53,0,0,1,21,31.53a9,9,0,0,1-5.14-2.6,16.33,16.33,0,0,1-1.17-1.44l-.54-.74c-.23-.32-.45-.65-.68-1a13.59,13.59,0,0,1-2.07-4.51,4.43,4.43,0,0,1,.49-3.63c-2.17-3.14-6.21-4.74-8.81-3.94,0,.16,0,.31,0,.47a30.64,30.64,0,0,0-1.28,4.59,30.15,30.15,0,0,0-.45,4c-.08,1.69,0,3.64,1.21,4.83,1,1,2.6,1.06,3.56,2.08a5.3,5.3,0,0,1,1,2.3q.88,3.22,2,6.39c.77,2.19,1.62,4.36,2.57,6.48a85.42,85.42,0,0,0,5.9,10.89l.44.67c.71,1.09,1.59,2.27,2.85,2.48a2.42,2.42,0,0,0,1-.06,3.94,3.94,0,0,0,2.18-1.94c.62-1.09,1-2.49,1.63-3.75.05-.11.11-.21.17-.32a10.26,10.26,0,0,1,2.58-2.88c.81-.66,1.69-1.26,2.44-2,4.92-4.67,3.93-13.44,9-17.85,1-.86,2.22-1.45,3-2.53,2.25-3.23.35-7.73-1.38-11-3.33-6.23-6.86-13.5-13.84-14.94a15.16,15.16,0,0,0-5.16-.06C16.77,2.41,11.14,5.62,6.07,8.83Z"/><path class="cls-18" d="M6.18,8.86A9.1,9.1,0,0,0,3,11.67c.35-1.31,3.64,1.08,5.42,2.58a2.65,2.65,0,0,0,1.49.33c1.89-.57,3.63-2.68,5.53-3.89a7.19,7.19,0,0,1,2.85-1.12,14.82,14.82,0,0,1,7,.74,11.92,11.92,0,0,1,4.6,2.83,10.09,10.09,0,0,1,1.6,2.16c.12.22.23.44.34.66a11.5,11.5,0,0,1,.39,9.21,10.28,10.28,0,0,1-2.91,4,10.47,10.47,0,0,1-8.22,2.3A8.9,8.9,0,0,1,16,29a15,15,0,0,1-1.19-1.43l-.54-.72c-.23-.32-.46-.65-.68-1a13.89,13.89,0,0,1-2.11-4.49,4.53,4.53,0,0,1,.45-3.62c-2.17-3.14-6.16-4.76-8.71-4,0,.15,0,.3,0,.45a28.06,28.06,0,0,0-1.33,4.56,26.89,26.89,0,0,0-.44,4c-.08,1.7,0,3.64,1.22,4.83,1,1,2.57,1.06,3.52,2.08a5.46,5.46,0,0,1,1,2.28c.59,2.13,1.26,4.25,2,6.34s1.62,4.32,2.57,6.43a84.09,84.09,0,0,0,5.88,10.79c.14.22.29.44.43.67.71,1.08,1.59,2.24,2.83,2.46a2.36,2.36,0,0,0,1,0,3.85,3.85,0,0,0,2.17-1.9c.63-1.08,1-2.46,1.65-3.72l.16-.31a10.23,10.23,0,0,1,2.57-2.88c.81-.66,1.68-1.25,2.43-2,4.9-4.62,4-13.3,9-17.7,1-.86,2.2-1.45,2.93-2.53,2.26-3.29.28-7.83-1.5-11.1C38,10.35,34.52,3.15,27.62,1.75a14.87,14.87,0,0,0-5.11-.05C16.81,2.52,11.22,5.68,6.18,8.86Z"/><path class="cls-19" d="M6.29,8.88a9.1,9.1,0,0,0-3.18,2.81c.31-1.27,3.52,1.12,5.26,2.64a2.7,2.7,0,0,0,1.49.32c1.88-.59,3.62-2.71,5.51-3.91a7.19,7.19,0,0,1,2.85-1.12,14.91,14.91,0,0,1,7,.69,11.89,11.89,0,0,1,4.61,2.77,10.41,10.41,0,0,1,1.61,2.15c.12.21.24.43.35.65a11.52,11.52,0,0,1,.47,9.18,10.23,10.23,0,0,1-11,6.45,8.77,8.77,0,0,1-5.14-2.44,14.86,14.86,0,0,1-1.2-1.41l-.55-.72c-.23-.31-.46-.64-.69-1a13.9,13.9,0,0,1-2.13-4.46,4.54,4.54,0,0,1,.4-3.61c-2.16-3.14-6.12-4.79-8.62-4.13,0,.15,0,.3,0,.44A26.87,26.87,0,0,0,1.9,18.73a26.75,26.75,0,0,0-.44,4c-.07,1.69,0,3.62,1.24,4.82,1,1,2.54,1.06,3.48,2.07a5.34,5.34,0,0,1,1,2.27q.9,3.18,2,6.28c.77,2.16,1.62,4.29,2.57,6.38a81.69,81.69,0,0,0,5.86,10.7c.14.22.28.44.43.66.7,1.07,1.57,2.23,2.81,2.45a2.5,2.5,0,0,0,1,0,3.93,3.93,0,0,0,2.16-1.86c.63-1.06,1-2.43,1.66-3.69.05-.1.1-.2.16-.3a10.23,10.23,0,0,1,2.56-2.89c.8-.65,1.67-1.24,2.41-1.94,4.89-4.57,4-13.18,9-17.57,1-.86,2.18-1.45,2.91-2.52,2.26-3.35.21-7.94-1.62-11.23-3.35-6-6.71-13.12-13.52-14.49a14.89,14.89,0,0,0-5.07,0C16.85,2.62,11.3,5.74,6.29,8.88Z"/><path class="cls-20" d="M6.4,8.91A9.14,9.14,0,0,0,3.22,11.7c.27-1.22,3.4,1.17,5.1,2.71a2.52,2.52,0,0,0,1.49.3c1.86-.6,3.62-2.72,5.49-3.91a7.37,7.37,0,0,1,2.85-1.14,15.13,15.13,0,0,1,7,.65A12,12,0,0,1,29.78,13a10.3,10.3,0,0,1,1.62,2.14c.13.21.24.43.35.65A11.48,11.48,0,0,1,32.31,25a10.25,10.25,0,0,1-11,6.55,8.79,8.79,0,0,1-5.15-2.37A14.74,14.74,0,0,1,15,27.75L14.46,27c-.24-.31-.47-.63-.7-1a13.67,13.67,0,0,1-2.16-4.44A4.52,4.52,0,0,1,12,18c-2.17-3.13-6.08-4.82-8.54-4.22l0,.42A24.12,24.12,0,0,0,2,18.72a24.24,24.24,0,0,0-.44,4c-.07,1.69,0,3.61,1.24,4.81,1,1,2.52,1.07,3.45,2.07a5.33,5.33,0,0,1,1,2.25q.88,3.15,2,6.23c.77,2.14,1.61,4.26,2.55,6.33A82.11,82.11,0,0,0,17.65,55l.43.66c.7,1.06,1.56,2.2,2.79,2.43a2.44,2.44,0,0,0,1,0A3.82,3.82,0,0,0,24,56.25c.63-1,1-2.4,1.68-3.65.05-.1.1-.21.16-.31a10,10,0,0,1,2.54-2.88c.8-.65,1.66-1.23,2.41-1.93,4.86-4.53,4-13,8.94-17.43,1-.86,2.15-1.45,2.87-2.53,2.28-3.4.15-8-1.74-11.34C37.54,10.29,34.26,3.24,27.54,1.91a14.65,14.65,0,0,0-5,0C16.89,2.72,11.38,5.8,6.4,8.91Z"/><path class="cls-21" d="M6.51,8.94a9.24,9.24,0,0,0-3.19,2.78c.24-1.17,3.29,1.22,4.95,2.77a2.55,2.55,0,0,0,1.49.29c1.85-.62,3.61-2.74,5.47-3.93a7.48,7.48,0,0,1,2.84-1.14,15.13,15.13,0,0,1,7,.6A11.75,11.75,0,0,1,29.71,13a10.35,10.35,0,0,1,1.64,2.12c.12.21.24.42.35.64a11.46,11.46,0,0,1,.64,9.11A10.32,10.32,0,0,1,29.53,29a10.49,10.49,0,0,1-8,2.53,8.75,8.75,0,0,1-5.16-2.29,14.41,14.41,0,0,1-1.22-1.36c-.18-.23-.37-.46-.55-.7s-.48-.63-.71-.95a13.82,13.82,0,0,1-2.18-4.42A4.54,4.54,0,0,1,12,18.18c-2.17-3.13-6-4.84-8.44-4.31l0,.4a22.45,22.45,0,0,0-1.46,4.44,24.24,24.24,0,0,0-.44,4c-.05,1.69.07,3.61,1.26,4.81,1,1,2.49,1.07,3.41,2.07a5.43,5.43,0,0,1,1,2.23C7.9,33.89,8.57,36,9.3,38s1.61,4.22,2.55,6.27a80.92,80.92,0,0,0,5.82,10.51l.42.65c.7,1,1.56,2.19,2.77,2.42a2.39,2.39,0,0,0,1,0A3.73,3.73,0,0,0,24,56c.64-1,1.06-2.37,1.69-3.62l.17-.3a10.05,10.05,0,0,1,2.52-2.88c.79-.65,1.66-1.23,2.4-1.92,4.85-4.49,4.08-12.93,8.93-17.3.94-.85,2.13-1.45,2.83-2.52C44.83,24,43.19,19,40.69,16,38.41,9.75,34.12,3.29,27.5,2a14.73,14.73,0,0,0-5,0C16.94,2.82,11.46,5.86,6.51,8.94Z"/><path class="cls-22" d="M6.63,9a9.18,9.18,0,0,0-3.2,2.78C3.62,10.61,6.6,13,8.22,14.57a2.4,2.4,0,0,0,1.48.27c1.85-.63,3.61-2.76,5.46-3.94A7.48,7.48,0,0,1,18,9.76a15.16,15.16,0,0,1,7,.55,11.63,11.63,0,0,1,4.65,2.6A10.69,10.69,0,0,1,31.29,15c.12.21.24.42.35.64a11.39,11.39,0,0,1,.72,9.08,10.31,10.31,0,0,1-2.76,4.13,10.52,10.52,0,0,1-8,2.62,8.75,8.75,0,0,1-5.16-2.22,14.26,14.26,0,0,1-1.23-1.34c-.19-.23-.38-.46-.56-.7s-.48-.62-.72-.94a13.85,13.85,0,0,1-2.21-4.39A4.65,4.65,0,0,1,12,18.32c-2.16-3.13-6-4.87-8.35-4.4l0,.38a21.77,21.77,0,0,0-1.49,4.4,21.38,21.38,0,0,0-.44,4c-.05,1.68.08,3.6,1.27,4.8,1,1,2.46,1.07,3.37,2.07a5.28,5.28,0,0,1,1,2.21c.6,2.06,1.26,4.11,2,6.13s1.6,4.18,2.53,6.22a82,82,0,0,0,5.8,10.41l.43.65a4.87,4.87,0,0,0,2.75,2.4,2.35,2.35,0,0,0,1,0A3.71,3.71,0,0,0,24,55.83c.65-1,1.08-2.34,1.71-3.58.05-.11.11-.21.16-.31a10.27,10.27,0,0,1,2.51-2.87c.79-.65,1.65-1.22,2.4-1.91,4.82-4.45,4.11-12.81,8.9-17.17a14.31,14.31,0,0,0,2.8-2.51c2.3-3.52.61-8.66-2-11.59C38.23,9.71,34,3.33,27.45,2.06a14.43,14.43,0,0,0-4.95,0C17,2.93,11.54,5.92,6.63,9Z"/><path class="cls-23" d="M6.74,9a9.45,9.45,0,0,0-3.21,2.76c.16-1.08,3.06,1.31,4.64,2.9a2.44,2.44,0,0,0,1.48.26c1.84-.65,3.61-2.78,5.44-4A7.68,7.68,0,0,1,17.92,9.8a15.43,15.43,0,0,1,7,.51,11.57,11.57,0,0,1,4.66,2.55,10.47,10.47,0,0,1,1.66,2.08l.36.64a11.38,11.38,0,0,1,.8,9,10.31,10.31,0,0,1-2.73,4.15,10.52,10.52,0,0,1-7.93,2.7,8.74,8.74,0,0,1-5.17-2.14A15.58,15.58,0,0,1,15.32,28l-.56-.69c-.25-.3-.48-.61-.72-.93A13.63,13.63,0,0,1,11.8,22,4.65,4.65,0,0,1,12,18.47C9.86,15.34,6.07,13.56,3.77,14l0,.36A20.14,20.14,0,0,0,2.2,18.69a21.38,21.38,0,0,0-.44,4c0,1.68.1,3.59,1.29,4.79.94,1,2.43,1.07,3.33,2.06a5.42,5.42,0,0,1,1,2.2c.59,2,1.26,4.07,2,6.07S11,42,11.92,44A79.6,79.6,0,0,0,17.7,54.29l.42.64a4.83,4.83,0,0,0,2.73,2.38,2.31,2.31,0,0,0,1,0,3.66,3.66,0,0,0,2.11-1.68,39.37,39.37,0,0,0,1.73-3.55c0-.1.1-.2.16-.3a10.2,10.2,0,0,1,2.49-2.87c.79-.65,1.65-1.22,2.39-1.9,4.8-4.41,4.16-12.68,8.89-17a15.08,15.08,0,0,0,2.77-2.51c2.3-3.58.57-8.78-2.09-11.72C38,9.66,33.86,3.38,27.41,2.14a14.2,14.2,0,0,0-4.91,0C17,3,11.62,6,6.74,9Z"/><path class="cls-24" d="M6.85,9a9.45,9.45,0,0,0-3.21,2.76c.12-1,2.94,1.36,4.48,3A2.31,2.31,0,0,0,9.6,15c1.83-.66,3.6-2.8,5.42-4a7.62,7.62,0,0,1,2.83-1.15,15.68,15.68,0,0,1,7,.45,11.59,11.59,0,0,1,4.66,2.5,9.89,9.89,0,0,1,1.68,2.07q.2.32.36.63a11.37,11.37,0,0,1,.89,9,10.25,10.25,0,0,1-2.69,4.17,10.54,10.54,0,0,1-7.88,2.78,8.65,8.65,0,0,1-5.17-2.07,12.73,12.73,0,0,1-1.25-1.29l-.57-.68c-.25-.3-.49-.61-.73-.93a13.53,13.53,0,0,1-2.26-4.34,4.68,4.68,0,0,1,.18-3.55C9.88,15.48,6.14,13.68,3.88,14c0,.12,0,.23,0,.35a19,19,0,0,0-1.59,4.32,20.46,20.46,0,0,0-.43,4c0,1.68.11,3.58,1.3,4.79.92.95,2.4,1.08,3.3,2.06a5.37,5.37,0,0,1,1,2.18q.9,3,2,6c.76,2.07,1.6,4.12,2.53,6.12a80.21,80.21,0,0,0,5.75,10.23l.42.63a4.9,4.9,0,0,0,2.71,2.36,2.43,2.43,0,0,0,1,0,3.69,3.69,0,0,0,2.11-1.64,37.07,37.07,0,0,0,1.74-3.51,3,3,0,0,1,.16-.31,10.09,10.09,0,0,1,2.47-2.86c.78-.65,1.64-1.21,2.38-1.89,4.79-4.37,4.2-12.56,8.88-16.9a14.47,14.47,0,0,0,2.73-2.5c2.31-3.64.53-8.91-2.2-11.84-2.22-6-6.35-12.18-12.71-13.39a14,14,0,0,0-4.87.06C17.06,3.13,11.7,6,6.85,9Z"/><path class="cls-25" d="M7,9a9.4,9.4,0,0,0-3.21,2.74c.08-1,2.82,1.41,4.32,3A2.28,2.28,0,0,0,9.55,15c1.82-.68,3.59-2.82,5.4-4A7.47,7.47,0,0,1,17.78,9.9a15.65,15.65,0,0,1,7,.4,11.48,11.48,0,0,1,4.67,2.45,9.88,9.88,0,0,1,1.69,2.05c.13.21.25.42.37.63a11.36,11.36,0,0,1,1,9,10.25,10.25,0,0,1-2.66,4.19A10.51,10.51,0,0,1,22,31.46a8.65,8.65,0,0,1-5.17-2,13.84,13.84,0,0,1-1.27-1.27L15,27.52c-.25-.29-.49-.6-.73-.91a13.62,13.62,0,0,1-2.29-4.32,4.71,4.71,0,0,1,.13-3.54c-2.16-3.13-5.87-5-8.08-4.69,0,.11,0,.22,0,.33a17.3,17.3,0,0,0-1.63,4.28,19,19,0,0,0-.44,4c0,1.67.14,3.57,1.31,4.78.92.94,2.38,1.08,3.27,2.06a5.36,5.36,0,0,1,1,2.16q.9,3,2,6c.76,2.05,1.59,4.08,2.51,6.06a79.08,79.08,0,0,0,5.74,10.14l.42.62a4.86,4.86,0,0,0,2.68,2.35,2.27,2.27,0,0,0,1,0,3.6,3.6,0,0,0,2.09-1.59,30.43,30.43,0,0,0,1.75-3.48l.17-.3a10,10,0,0,1,2.45-2.86c.78-.65,1.64-1.21,2.38-1.88,4.76-4.33,4.23-12.43,8.85-16.76a14.31,14.31,0,0,0,2.7-2.5c2.32-3.7.49-9-2.32-12-2.2-5.89-6.27-12-12.55-13.16a14.18,14.18,0,0,0-4.82.07C17.1,3.23,11.78,6.09,7,9Z"/><path class="cls-26" d="M7.07,9.07A9.5,9.5,0,0,0,3.85,11.8c0-.93,2.71,1.45,4.17,3.09a2.21,2.21,0,0,0,1.47.21c1.82-.69,3.6-2.84,5.39-4A7.77,7.77,0,0,1,17.7,9.94a16,16,0,0,1,7,.36,11.46,11.46,0,0,1,4.68,2.39,10.13,10.13,0,0,1,1.7,2c.13.2.26.41.37.62a11.33,11.33,0,0,1,1.06,9,10.39,10.39,0,0,1-2.63,4.21,10.55,10.55,0,0,1-7.76,2.93,8.61,8.61,0,0,1-5.18-1.91,12.57,12.57,0,0,1-1.27-1.26c-.19-.21-.39-.43-.58-.66s-.5-.6-.74-.91A13.42,13.42,0,0,1,12,22.42a4.75,4.75,0,0,1,.08-3.53c-2.16-3.12-5.82-5-8-4.78,0,.1,0,.21,0,.31a16.81,16.81,0,0,0-1.67,4.24,18.29,18.29,0,0,0-.43,4c0,1.68.15,3.57,1.32,4.78.91.93,2.35,1.08,3.23,2.05a5.52,5.52,0,0,1,1,2.15c.59,2,1.26,4,2,5.92s1.59,4,2.51,6a78.9,78.9,0,0,0,5.71,10l.42.62a4.91,4.91,0,0,0,2.67,2.33,2.34,2.34,0,0,0,1,0A3.58,3.58,0,0,0,23.86,55a26.92,26.92,0,0,0,1.77-3.45l.16-.3a10.24,10.24,0,0,1,2.44-2.85c.78-.64,1.63-1.21,2.37-1.87,4.74-4.29,4.27-12.31,8.84-16.63A14,14,0,0,0,42.1,27.4c2.33-3.76.45-9.17-2.43-12.09-2.18-5.8-6.2-11.8-12.39-12.94a13.76,13.76,0,0,0-4.79.09C17.15,3.33,11.85,6.15,7.07,9.07Z"/><path class="cls-27" d="M7.18,9.09A9.68,9.68,0,0,0,4,11.81c0-.88,2.59,1.5,4,3.16a2.11,2.11,0,0,0,1.47.19c1.81-.7,3.59-2.86,5.37-4A7.77,7.77,0,0,1,17.63,10a16.18,16.18,0,0,1,7,.31,11.44,11.44,0,0,1,4.7,2.34,9.49,9.49,0,0,1,1.71,2c.13.2.26.41.38.62a11.34,11.34,0,0,1,1.14,8.92,10.37,10.37,0,0,1-2.59,4.23,10.57,10.57,0,0,1-7.71,3A8.57,8.57,0,0,1,17,29.61a12.43,12.43,0,0,1-1.28-1.24c-.2-.21-.4-.43-.59-.65s-.5-.59-.74-.9a13.69,13.69,0,0,1-2.35-4.26,4.86,4.86,0,0,1,0-3.53C10,15.91,6.33,14,4.22,14.16a2.71,2.71,0,0,0,0,.29,15.65,15.65,0,0,0-1.72,4.21,17.54,17.54,0,0,0-.43,4c0,1.67.17,3.56,1.34,4.77.9.93,2.32,1.09,3.19,2.05a5.41,5.41,0,0,1,1,2.13q.9,3,2,5.87c.75,2,1.57,4,2.49,6a77.09,77.09,0,0,0,5.7,10l.41.62a5,5,0,0,0,2.65,2.31,2.49,2.49,0,0,0,.94,0,3.54,3.54,0,0,0,2.07-1.51,25.59,25.59,0,0,0,1.79-3.41l.16-.3a10.34,10.34,0,0,1,2.42-2.85c.77-.64,1.63-1.2,2.37-1.86,4.72-4.25,4.3-12.18,8.82-16.49A14.49,14.49,0,0,0,42,27.38c2.33-3.82.4-9.3-2.55-12.22-2.16-5.7-6.14-11.6-12.23-12.71a13.53,13.53,0,0,0-4.75.1C17.19,3.44,11.93,6.21,7.18,9.09Z"/><path class="cls-28" d="M7.29,9.12a9.66,9.66,0,0,0-3.22,2.71c0-.84,2.47,1.55,3.85,3.22a2.09,2.09,0,0,0,1.47.18c1.8-.72,3.59-2.88,5.35-4A7.79,7.79,0,0,1,17.55,10a16.19,16.19,0,0,1,7,.26,11.31,11.31,0,0,1,4.71,2.28,9.78,9.78,0,0,1,1.72,2c.14.2.26.4.38.61a11.25,11.25,0,0,1,1.22,8.89A10.14,10.14,0,0,1,30,28.34a10.62,10.62,0,0,1-7.65,3.1,8.58,8.58,0,0,1-5.18-1.77,12.27,12.27,0,0,1-1.3-1.21l-.59-.64-.75-.89a13.65,13.65,0,0,1-2.37-4.24,5,5,0,0,1,0-3.52c-2.15-3.12-5.73-5-7.79-5a2.72,2.72,0,0,0,0,.28,14.62,14.62,0,0,0-1.76,4.17,16.41,16.41,0,0,0-.43,4c0,1.66.18,3.55,1.35,4.76.88.92,2.29,1.09,3.15,2.05a5.47,5.47,0,0,1,1,2.11q.9,2.92,2,5.81c.75,2,1.57,4,2.49,5.91a77.59,77.59,0,0,0,5.67,9.85l.42.61A4.91,4.91,0,0,0,20.81,56a2.49,2.49,0,0,0,.94,0,3.5,3.5,0,0,0,2.05-1.46,23.46,23.46,0,0,0,1.81-3.38c.05-.1.1-.2.16-.3a10.2,10.2,0,0,1,2.4-2.84c.77-.64,1.62-1.2,2.36-1.85,4.7-4.21,4.34-12.06,8.8-16.36a13.66,13.66,0,0,0,2.6-2.49c2.34-3.87.37-9.41-2.67-12.33C37.12,9.41,33.2,3.61,27.2,2.52a13.78,13.78,0,0,0-4.71.12C17.23,3.54,12,6.27,7.29,9.12Z"/><path class="cls-29" d="M7.4,9.15a9.84,9.84,0,0,0-3.23,2.69c-.07-.78,2.36,1.6,3.7,3.29a2,2,0,0,0,1.46.16c1.8-.73,3.59-2.9,5.34-4a8,8,0,0,1,2.81-1.17,16.31,16.31,0,0,1,6.94.21,11.19,11.19,0,0,1,4.72,2.23,9.79,9.79,0,0,1,1.74,2c.13.2.26.4.38.61A11.27,11.27,0,0,1,32.56,24a10.32,10.32,0,0,1-2.51,4.26,10.66,10.66,0,0,1-7.59,3.18,8.61,8.61,0,0,1-5.2-1.69A12.05,12.05,0,0,1,16,28.55l-.6-.64c-.26-.28-.51-.58-.75-.88a13.48,13.48,0,0,1-2.4-4.21,4.94,4.94,0,0,1-.05-3.51c-2.16-3.12-5.7-5.06-7.71-5.06a2.26,2.26,0,0,0,0,.26,14.11,14.11,0,0,0-1.8,4.13,16.38,16.38,0,0,0-.43,3.95c0,1.67.21,3.54,1.36,4.76.88.92,2.27,1.09,3.12,2a5.36,5.36,0,0,1,1,2.09c.6,1.94,1.26,3.87,2,5.77s1.56,3.94,2.48,5.86a75.11,75.11,0,0,0,5.65,9.75l.41.61a4.94,4.94,0,0,0,2.61,2.28,2.39,2.39,0,0,0,.92,0,3.47,3.47,0,0,0,2.05-1.42A22.88,22.88,0,0,0,25.6,51c0-.1.1-.2.16-.3a10,10,0,0,1,2.39-2.84c.76-.64,1.61-1.19,2.34-1.85,4.69-4.15,4.38-11.92,8.79-16.21a13.74,13.74,0,0,0,2.56-2.49c2.35-3.93.33-9.54-2.78-12.46-2.12-5.51-6-11.22-11.91-12.27a13.26,13.26,0,0,0-4.66.14C17.27,3.64,12.09,6.33,7.4,9.15Z"/><path class="cls-30" d="M7.51,9.17a10,10,0,0,0-3.23,2.69c-.11-.74,2.24,1.64,3.54,3.35a2,2,0,0,0,1.46.15c1.79-.74,3.58-2.92,5.32-4a8.13,8.13,0,0,1,2.8-1.18,16.65,16.65,0,0,1,6.94.17,11.18,11.18,0,0,1,4.73,2.17,9.69,9.69,0,0,1,1.75,2l.38.61a11.27,11.27,0,0,1,1.39,8.83,10.33,10.33,0,0,1-2.48,4.28,10.65,10.65,0,0,1-7.53,3.26,8.51,8.51,0,0,1-5.2-1.61,13,13,0,0,1-1.32-1.17q-.3-.3-.6-.63c-.26-.28-.51-.57-.76-.87A13.64,13.64,0,0,1,12.28,23a5,5,0,0,1-.1-3.5C10,16.34,6.52,14.36,4.56,14.3v.24a13.15,13.15,0,0,0-1.85,4.09,15.89,15.89,0,0,0-.42,3.95c0,1.66.22,3.53,1.37,4.75.87.91,2.24,1.09,3.08,2a5.57,5.57,0,0,1,1,2.07q.9,2.88,2,5.72c.75,2,1.56,3.91,2.47,5.8a76.28,76.28,0,0,0,5.63,9.66l.41.6a5,5,0,0,0,2.59,2.27,2.34,2.34,0,0,0,.91,0,3.44,3.44,0,0,0,2-1.37,20.66,20.66,0,0,0,1.83-3.31c.06-.1.11-.2.16-.3a10.09,10.09,0,0,1,2.38-2.83c.76-.64,1.6-1.19,2.34-1.84,4.66-4.11,4.41-11.8,8.77-16.08a13.17,13.17,0,0,0,2.52-2.48c2.36-4,.29-9.67-2.9-12.58-2.1-5.42-5.91-11-11.74-12a13.33,13.33,0,0,0-4.63.15C17.31,3.74,12.17,6.39,7.51,9.17Z"/><path class="cls-31" d="M7.63,9.2a9.87,9.87,0,0,0-3.24,2.68c-.16-.7,2.12,1.69,3.38,3.41a1.94,1.94,0,0,0,1.46.13c1.78-.75,3.58-2.94,5.3-4.05a8.15,8.15,0,0,1,2.8-1.19,16.57,16.57,0,0,1,6.92.12A11.05,11.05,0,0,1,29,12.42a9.65,9.65,0,0,1,1.76,1.95c.13.2.27.4.39.61a11.23,11.23,0,0,1,1.47,8.79,10.23,10.23,0,0,1-2.45,4.3,10.65,10.65,0,0,1-7.47,3.34,8.53,8.53,0,0,1-5.2-1.53,11.9,11.9,0,0,1-1.33-1.15l-.61-.62c-.26-.28-.51-.57-.77-.87a13.67,13.67,0,0,1-2.45-4.16,5.16,5.16,0,0,1-.14-3.49c-2.15-3.11-5.61-5.12-7.52-5.24a.81.81,0,0,0,0,.22,12.29,12.29,0,0,0-1.89,4.05,15,15,0,0,0-.43,3.95c0,1.66.24,3.52,1.39,4.74.86.91,2.21,1.1,3,2a5.48,5.48,0,0,1,1,2q.9,2.87,2,5.67c.75,1.94,1.56,3.87,2.47,5.75a73.14,73.14,0,0,0,5.61,9.56l.41.6a5,5,0,0,0,2.56,2.25,2.57,2.57,0,0,0,.91,0,3.41,3.41,0,0,0,2-1.33,19.46,19.46,0,0,0,1.85-3.28l.16-.29a10.18,10.18,0,0,1,2.36-2.83c.75-.64,1.6-1.18,2.33-1.83,4.64-4.07,4.45-11.67,8.75-15.95a13.3,13.3,0,0,0,2.5-2.47c2.36-4.06.24-9.8-3-12.71C36.57,9.26,32.81,3.75,27.07,2.76a13.11,13.11,0,0,0-4.59.17C17.35,3.85,12.25,6.44,7.63,9.2Z"/><path class="cls-32" d="M7.74,9.23a10,10,0,0,0-3.25,2.66c-.19-.64,2,1.74,3.23,3.49a2,2,0,0,0,1.46.11c1.76-.77,3.57-3,5.28-4.07a8.15,8.15,0,0,1,2.8-1.19,16.89,16.89,0,0,1,6.91.06,11.18,11.18,0,0,1,4.76,2.07A9.92,9.92,0,0,1,30.7,14.3q.21.3.39.6a11.19,11.19,0,0,1,1.56,8.76A10.22,10.22,0,0,1,30.24,28a10.71,10.71,0,0,1-7.42,3.42A8.5,8.5,0,0,1,17.62,30a12,12,0,0,1-1.34-1.13c-.21-.2-.41-.4-.62-.62s-.52-.56-.77-.85a13.66,13.66,0,0,1-2.48-4.14,5.22,5.22,0,0,1-.19-3.48c-2.15-3.11-5.57-5.14-7.43-5.34v.21a11.89,11.89,0,0,0-1.93,4,14.52,14.52,0,0,0-.42,3.94c0,1.66.26,3.52,1.4,4.74.85.9,2.18,1.1,3,2a5.42,5.42,0,0,1,1,2q.9,2.84,2,5.61c.74,1.93,1.55,3.84,2.45,5.7a75.08,75.08,0,0,0,5.59,9.48l.41.58A5,5,0,0,0,20.78,55a2.79,2.79,0,0,0,.9.05,3.37,3.37,0,0,0,2-1.29,18,18,0,0,0,1.87-3.24c.05-.1.1-.2.16-.3a10.21,10.21,0,0,1,2.34-2.82c.75-.64,1.59-1.18,2.33-1.82,4.62-4,4.48-11.55,8.73-15.81a13.38,13.38,0,0,0,2.46-2.47c2.37-4.12.2-9.93-3.13-12.83C36.39,9.22,32.67,3.79,27,2.83A13.11,13.11,0,0,0,22.48,3C17.4,4,12.33,6.5,7.74,9.23Z"/><path class="cls-33" d="M7.85,9.25A10,10,0,0,0,4.6,11.91c-.23-.6,1.9,1.78,3.07,3.55a1.92,1.92,0,0,0,1.45.09c1.76-.78,3.57-3,5.27-4.08a8.4,8.4,0,0,1,2.79-1.2,17.27,17.27,0,0,1,6.91,0,11.07,11.07,0,0,1,4.77,2,9.58,9.58,0,0,1,1.78,1.92c.14.19.27.39.4.59a11.21,11.21,0,0,1,1.64,8.74A10.35,10.35,0,0,1,30.3,27.9a10.74,10.74,0,0,1-7.36,3.49A8.45,8.45,0,0,1,17.73,30a12.5,12.5,0,0,1-1.35-1.1l-.62-.61q-.39-.4-.78-.84a13.62,13.62,0,0,1-2.5-4.12,5.21,5.21,0,0,1-.23-3.47c-2.16-3.1-5.53-5.17-7.35-5.43a1.21,1.21,0,0,0,0,.19,11.34,11.34,0,0,0-2,4,14.47,14.47,0,0,0-.42,3.94,7.12,7.12,0,0,0,1.41,4.73c.84.9,2.16,1.1,3,2a5.49,5.49,0,0,1,1,2q.9,2.81,2,5.56c.74,1.91,1.55,3.81,2.45,5.65a73.3,73.3,0,0,0,5.57,9.38l.4.58a5,5,0,0,0,2.53,2.21,2.26,2.26,0,0,0,.89.06,3.31,3.31,0,0,0,2-1.24,16.48,16.48,0,0,0,1.89-3.21L25.7,50A10.21,10.21,0,0,1,28,47.2c.75-.64,1.59-1.17,2.32-1.81,4.6-4,4.52-11.43,8.72-15.68a13.1,13.1,0,0,0,2.42-2.46c2.38-4.18.17-10-3.25-13C36.2,9.17,32.54,3.84,27,2.91a13.07,13.07,0,0,0-4.5.2C17.44,4.05,12.41,6.56,7.85,9.25Z"/><path class="cls-34" d="M8,9.28A10.17,10.17,0,0,0,4.7,11.92c-.26-.55,1.79,1.83,2.91,3.62a2,2,0,0,0,1.46.08c1.75-.79,3.57-3,5.25-4.1a8.31,8.31,0,0,1,2.79-1.2,17.25,17.25,0,0,1,6.9,0,11.06,11.06,0,0,1,4.78,2,9.31,9.31,0,0,1,1.79,1.91c.14.19.28.39.4.59a11.14,11.14,0,0,1,1.72,8.7,10.27,10.27,0,0,1-2.33,4.36,10.79,10.79,0,0,1-7.31,3.57,8.41,8.41,0,0,1-5.21-1.3A10.65,10.65,0,0,1,16.49,29l-.63-.59c-.26-.27-.53-.55-.78-.84a13.45,13.45,0,0,1-2.53-4.09A5.25,5.25,0,0,1,12.27,20C10.12,16.91,6.78,14.81,5,14.49a1,1,0,0,0,0,.17,10.91,10.91,0,0,0-2,3.93,13.73,13.73,0,0,0-.42,3.94A7.11,7.11,0,0,0,4,27.25c.83.89,2.13,1.11,2.94,2a5.6,5.6,0,0,1,1,2c.61,1.85,1.26,3.69,2,5.51s1.54,3.77,2.44,5.59a71.39,71.39,0,0,0,5.54,9.29l.41.57a5,5,0,0,0,2.5,2.2,2.44,2.44,0,0,0,.88.07,3.27,3.27,0,0,0,2-1.2,15.36,15.36,0,0,0,1.91-3.17l.15-.3A10.1,10.1,0,0,1,28,47c.74-.64,1.58-1.17,2.31-1.8,4.58-3.95,4.57-11.3,8.7-15.54a13.23,13.23,0,0,0,2.39-2.46C43.78,23,41.53,17.05,38,14.15,36,9.12,32.41,3.89,26.94,3a12.61,12.61,0,0,0-4.46.22C17.48,4.15,12.49,6.62,8,9.28Z"/><path class="cls-35" d="M8.07,9.31a10.12,10.12,0,0,0-3.26,2.63,21.69,21.69,0,0,1,2.75,3.68A1.91,1.91,0,0,0,9,15.68c1.74-.8,3.56-3,5.23-4.11A8.26,8.26,0,0,1,17,10.37a17.41,17.41,0,0,1,6.89-.08,10.83,10.83,0,0,1,4.8,1.91,9.24,9.24,0,0,1,1.8,1.89c.15.19.28.39.41.58a11.18,11.18,0,0,1,1.8,8.67,10.29,10.29,0,0,1-2.3,4.38,10.88,10.88,0,0,1-7.25,3.66A8.46,8.46,0,0,1,18,30.15a11.37,11.37,0,0,1-1.38-1.07c-.21-.18-.42-.38-.63-.59s-.53-.54-.79-.82a13.85,13.85,0,0,1-2.56-4.07,5.44,5.44,0,0,1-.32-3.44c-2.15-3.11-5.44-5.23-7.16-5.62,0,.05,0,.1,0,.15a10.47,10.47,0,0,0-2.06,3.9,13.25,13.25,0,0,0-.42,3.92A7.2,7.2,0,0,0,4.1,27.22c.82.9,2.1,1.12,2.9,2a5.72,5.72,0,0,1,1,2q.9,2.75,2,5.46c.74,1.87,1.54,3.73,2.43,5.54a72,72,0,0,0,5.53,9.19l.4.57a5,5,0,0,0,2.48,2.18,2.39,2.39,0,0,0,.87.07,3.29,3.29,0,0,0,2-1.14A14.91,14.91,0,0,0,25.52,50l.16-.29A10,10,0,0,1,28,46.86c.74-.64,1.58-1.17,2.31-1.79,4.56-3.91,4.6-11.18,8.68-15.41a12.49,12.49,0,0,0,2.36-2.46c2.38-4.3.08-10.3-3.49-13.2-2-4.93-5.55-10.07-10.93-10.94a12.68,12.68,0,0,0-4.43.24C17.52,4.25,12.56,6.68,8.07,9.31Z"/><path class="cls-36" d="M8.18,9.33A10.22,10.22,0,0,0,4.92,12,38.31,38.31,0,0,1,7.51,15.7,1.91,1.91,0,0,0,9,15.75c1.73-.82,3.56-3.05,5.22-4.13A8.55,8.55,0,0,1,17,10.41a17.77,17.77,0,0,1,6.88-.12,10.94,10.94,0,0,1,4.81,1.85A9.45,9.45,0,0,1,30.46,14c.15.2.28.39.42.59a11.15,11.15,0,0,1,1.88,8.63,10.19,10.19,0,0,1-2.27,4.4,10.86,10.86,0,0,1-7.18,3.74,8.5,8.5,0,0,1-5.23-1.15,12.26,12.26,0,0,1-1.38-1c-.21-.18-.43-.38-.64-.58s-.53-.53-.79-.82a13.47,13.47,0,0,1-2.59-4,5.52,5.52,0,0,1-.37-3.43c-2.15-3.1-5.4-5.26-7.06-5.72a.66.66,0,0,0,0,.14,10.1,10.1,0,0,0-2.11,3.86,12.89,12.89,0,0,0-.41,3.92,7.25,7.25,0,0,0,1.45,4.7c.81.89,2.07,1.12,2.86,2a5.63,5.63,0,0,1,1,2c.6,1.81,1.25,3.62,2,5.4s1.54,3.7,2.43,5.49a69.06,69.06,0,0,0,5.51,9.1l.39.56a5.11,5.11,0,0,0,2.47,2.17,2.31,2.31,0,0,0,.86.08,3.26,3.26,0,0,0,2-1.1,14,14,0,0,0,1.93-3.12l.16-.29a10.06,10.06,0,0,1,2.27-2.8c.74-.64,1.57-1.16,2.3-1.78,4.54-3.87,4.64-11,8.67-15.27a13.16,13.16,0,0,0,2.32-2.46c2.39-4.36,0-10.43-3.6-13.33C35.65,9,32.14,4,26.86,3.14a12.7,12.7,0,0,0-4.39.26C17.56,4.36,12.64,6.74,8.18,9.33Z"/><path class="cls-37" d="M8.29,9.36A10.34,10.34,0,0,0,5,12c-.38-.41,1.44,2,2.44,3.81a1.87,1.87,0,0,0,1.45,0c1.73-.82,3.56-3.06,5.21-4.13a8.61,8.61,0,0,1,2.76-1.22,17.81,17.81,0,0,1,6.88-.17,10.83,10.83,0,0,1,4.82,1.8,9.44,9.44,0,0,1,1.83,1.85l.41.58a11.17,11.17,0,0,1,2,8.61,10.32,10.32,0,0,1-2.23,4.41,10.92,10.92,0,0,1-7.13,3.82,8.4,8.4,0,0,1-5.23-1.08,10.31,10.31,0,0,1-1.39-1c-.22-.18-.43-.37-.65-.57s-.54-.53-.8-.81a13.64,13.64,0,0,1-2.61-4,5.67,5.67,0,0,1-.42-3.42,16.55,16.55,0,0,0-7-5.81.5.5,0,0,0,0,.12,9.48,9.48,0,0,0-2.15,3.82,12.27,12.27,0,0,0-.42,3.91,7.35,7.35,0,0,0,1.46,4.7c.81.89,2.05,1.12,2.83,2A5.69,5.69,0,0,1,8,31.16q.9,2.7,2,5.35c.73,1.84,1.53,3.67,2.41,5.44a70,70,0,0,0,5.49,9l.4.56a5.06,5.06,0,0,0,2.44,2.15,2.52,2.52,0,0,0,.85.09,3.26,3.26,0,0,0,1.95-1.06,13.16,13.16,0,0,0,1.95-3.08l.15-.29a10.39,10.39,0,0,1,2.26-2.8c.73-.64,1.57-1.16,2.3-1.77,4.51-3.83,4.67-10.93,8.64-15.14a12.62,12.62,0,0,0,2.29-2.45c2.39-4.42,0-10.56-3.72-13.45C35.46,9,32,4,26.81,3.22a12.42,12.42,0,0,0-4.34.27A48.09,48.09,0,0,0,8.29,9.36Z"/><path class="cls-38" d="M8.4,9.39A10.29,10.29,0,0,0,5.13,12c-.42-.35,1.32,2,2.28,3.88a1.86,1.86,0,0,0,1.45,0c1.72-.84,3.55-3.09,5.19-4.15a8.61,8.61,0,0,1,2.76-1.22,18,18,0,0,1,6.87-.22A10.79,10.79,0,0,1,28.5,12a9.48,9.48,0,0,1,1.85,1.84l.42.58A11.15,11.15,0,0,1,32.82,23a10.23,10.23,0,0,1-2.2,4.43,11,11,0,0,1-7.07,3.9,8.37,8.37,0,0,1-5.23-1,11,11,0,0,1-1.41-1l-.64-.56c-.28-.26-.55-.53-.82-.81a13.56,13.56,0,0,1-2.63-4,5.67,5.67,0,0,1-.46-3.41,17.71,17.71,0,0,0-6.89-5.9s0,.06,0,.1A9.28,9.28,0,0,0,3.3,18.56a12,12,0,0,0-.41,3.91,7.37,7.37,0,0,0,1.47,4.69c.79.88,2,1.13,2.79,2a5.6,5.6,0,0,1,.94,1.93c.6,1.78,1.26,3.55,2,5.3s1.52,3.63,2.41,5.38a67.11,67.11,0,0,0,5.47,8.91l.39.56a5.07,5.07,0,0,0,2.42,2.13,2.26,2.26,0,0,0,.84.09,3.14,3.14,0,0,0,1.94-1,12.26,12.26,0,0,0,2-3l.15-.28a10.18,10.18,0,0,1,2.24-2.81c.73-.63,1.56-1.14,2.29-1.75,4.5-3.79,4.71-10.8,8.63-15a12.7,12.7,0,0,0,2.25-2.45c2.4-4.49,0-10.68-3.83-13.58C35.28,8.92,31.88,4.08,26.77,3.3a12.2,12.2,0,0,0-4.3.28A48.5,48.5,0,0,0,8.4,9.39Z"/><path class="cls-39" d="M8.51,9.41A10.43,10.43,0,0,0,5.24,12c-.47-.31,1.2,2.07,2.12,3.94a1.81,1.81,0,0,0,1.45,0c1.72-.85,3.55-3.1,5.17-4.16a8.85,8.85,0,0,1,2.76-1.23,18.59,18.59,0,0,1,6.86-.27A10.78,10.78,0,0,1,28.43,12a8.9,8.9,0,0,1,1.86,1.82q.23.29.42.57a11.17,11.17,0,0,1,2.14,8.54,10.28,10.28,0,0,1-2.16,4.45,11,11,0,0,1-7,4,8.47,8.47,0,0,1-5.24-.92,10.81,10.81,0,0,1-1.41-1c-.22-.18-.44-.36-.65-.56s-.55-.51-.82-.79a13.43,13.43,0,0,1-2.66-4,5.85,5.85,0,0,1-.51-3.4,19,19,0,0,0-6.79-6,.31.31,0,0,0,0,.08,8.75,8.75,0,0,0-2.23,3.74A11.47,11.47,0,0,0,3,22.46a7.48,7.48,0,0,0,1.49,4.68c.78.87,2,1.13,2.75,2a5.53,5.53,0,0,1,.93,1.92c.61,1.76,1.26,3.51,2,5.25s1.51,3.59,2.4,5.33a68.31,68.31,0,0,0,5.44,8.82l.39.54a5.2,5.2,0,0,0,2.4,2.12,2.48,2.48,0,0,0,.84.1,3.15,3.15,0,0,0,1.92-1,11.55,11.55,0,0,0,2-3l.16-.29a10.24,10.24,0,0,1,2.23-2.8c.72-.63,1.55-1.14,2.27-1.75,4.48-3.74,4.75-10.67,8.62-14.86A13.14,13.14,0,0,0,41,27.12c2.4-4.55-.08-10.81-3.95-13.7-1.92-4.55-5.27-9.3-10.29-10a12.27,12.27,0,0,0-4.27.31A49,49,0,0,0,8.51,9.41Z"/><path class="cls-40" d="M8.63,9.44A10.48,10.48,0,0,0,5.34,12c-.5-.27,1.09,2.11,2,4a1.87,1.87,0,0,0,1.44,0c1.72-.86,3.55-3.13,5.16-4.18a8.8,8.8,0,0,1,2.75-1.23,19,19,0,0,1,6.85-.32,10.78,10.78,0,0,1,4.85,1.64,9.15,9.15,0,0,1,1.87,1.81c.15.18.29.37.43.57a11.2,11.2,0,0,1,2.22,8.51,10.41,10.41,0,0,1-2.13,4.47,11.1,11.1,0,0,1-7,4,8.37,8.37,0,0,1-5.24-.84,11.91,11.91,0,0,1-1.43-1c-.22-.18-.44-.36-.65-.55s-.56-.51-.83-.78A13.63,13.63,0,0,1,13,24.25a5.93,5.93,0,0,1-.55-3.39,20.52,20.52,0,0,0-6.7-6.08s0,0,0,.06a8.49,8.49,0,0,0-2.28,3.7A11.14,11.14,0,0,0,3,22.44a7.55,7.55,0,0,0,1.5,4.68c.77.87,2,1.13,2.71,2A5.71,5.71,0,0,1,8.18,31c.6,1.74,1.26,3.48,2,5.19s1.51,3.57,2.39,5.29A67.81,67.81,0,0,0,18,50.24l.39.54a5.12,5.12,0,0,0,2.38,2.1,2.38,2.38,0,0,0,.82.11,3.18,3.18,0,0,0,1.92-.93,11,11,0,0,0,2-3c.05-.09.1-.19.16-.28A10,10,0,0,1,27.83,46c.72-.62,1.54-1.13,2.27-1.74,4.45-3.7,4.78-10.54,8.59-14.73a12.3,12.3,0,0,0,2.19-2.43c2.4-4.61-.12-10.94-4.07-13.83-1.9-4.45-5.2-9.1-10.12-9.82a12,12,0,0,0-4.23.32A49.54,49.54,0,0,0,8.63,9.44Z"/><path class="cls-41" d="M8.74,9.47A10.54,10.54,0,0,0,5.45,12c-.54-.21,1,2.17,1.81,4.07a1.77,1.77,0,0,0,1.44,0c1.71-.87,3.55-3.14,5.14-4.19a9,9,0,0,1,2.75-1.23,19,19,0,0,1,6.84-.37,10.68,10.68,0,0,1,4.86,1.59,8.85,8.85,0,0,1,1.88,1.79c.15.18.29.37.43.56a11.13,11.13,0,0,1,2.3,8.48,10.28,10.28,0,0,1-2.08,4.49,11.2,11.2,0,0,1-6.91,4.14,8.44,8.44,0,0,1-5.24-.78,10.68,10.68,0,0,1-1.44-.93q-.33-.26-.66-.54c-.29-.25-.56-.51-.83-.78A13.26,13.26,0,0,1,13,24.38a6.1,6.1,0,0,1-.6-3.38,22.5,22.5,0,0,0-6.6-6.18.05.05,0,0,0,0,0,8.36,8.36,0,0,0-2.32,3.67,11.14,11.14,0,0,0-.41,3.9A7.62,7.62,0,0,0,4.63,27.1c.76.86,1.93,1.14,2.67,2A5.65,5.65,0,0,1,8.23,31q.9,2.6,1.95,5.15c.73,1.77,1.51,3.53,2.39,5.23A67,67,0,0,0,18,50l.39.53a5.26,5.26,0,0,0,2.36,2.09,2.33,2.33,0,0,0,.81.11,3.12,3.12,0,0,0,1.91-.88,10.65,10.65,0,0,0,2-2.94l.15-.29a10.44,10.44,0,0,1,2.2-2.79c.71-.62,1.54-1.13,2.26-1.73,4.43-3.66,4.82-10.42,8.58-14.59a12.66,12.66,0,0,0,2.15-2.43C43.2,22.4,40.63,16,36.61,13.13c-1.88-4.36-5.13-8.91-10-9.6a11.78,11.78,0,0,0-4.18.34A49.41,49.41,0,0,0,8.74,9.47Z"/><path class="cls-41" d="M8.85,9.49a10.65,10.65,0,0,0-3.29,2.56c-.58-.17.85,2.21,1.65,4.13a1.77,1.77,0,0,0,1.44,0c1.7-.89,3.54-3.17,5.12-4.2a9.12,9.12,0,0,1,2.74-1.25,19.53,19.53,0,0,1,6.84-.41,10.56,10.56,0,0,1,4.87,1.53,8.85,8.85,0,0,1,1.89,1.78c.15.18.3.37.44.56a11.16,11.16,0,0,1,2.38,8.44,10.3,10.3,0,0,1-2.05,4.51A11.18,11.18,0,0,1,24,31.32a8.46,8.46,0,0,1-5.25-.7,9.64,9.64,0,0,1-1.44-.91c-.23-.17-.45-.35-.67-.54s-.57-.5-.84-.76a13.43,13.43,0,0,1-2.74-3.9,6.12,6.12,0,0,1-.64-3.37,25,25,0,0,0-6.52-6.27l0,0A8,8,0,0,0,3.6,18.52a10.69,10.69,0,0,0-.41,3.9,7.72,7.72,0,0,0,1.52,4.66c.76.86,1.91,1.14,2.64,2A5.78,5.78,0,0,1,8.27,31q.92,2.56,2,5.1c.72,1.75,1.5,3.49,2.37,5.18A66.94,66.94,0,0,0,18,49.76l.38.53a5.28,5.28,0,0,0,2.34,2.07,2.61,2.61,0,0,0,.81.12,3.1,3.1,0,0,0,1.89-.84,10.14,10.14,0,0,0,2-2.91l.15-.28a10.37,10.37,0,0,1,2.18-2.79c.71-.62,1.53-1.12,2.26-1.72,4.41-3.62,4.85-10.29,8.56-14.46a12.16,12.16,0,0,0,2.11-2.43c2.41-4.73-.19-11.19-4.3-14.07-1.86-4.26-5-8.71-9.8-9.38A12,12,0,0,0,22.46,4,50.09,50.09,0,0,0,8.85,9.49Z"/><path class="cls-42" d="M9,9.52a10.91,10.91,0,0,0-3.3,2.54c-.62-.12.74,2.26,1.5,4.2A1.77,1.77,0,0,0,8.6,16.2c1.69-.89,3.53-3.18,5.1-4.21a9.12,9.12,0,0,1,2.74-1.25,19.76,19.76,0,0,1,6.83-.46,10.5,10.5,0,0,1,4.88,1.48,9,9,0,0,1,1.9,1.75c.16.19.3.37.44.56A11.13,11.13,0,0,1,33,22.48a10.21,10.21,0,0,1-2,4.53,11.29,11.29,0,0,1-6.78,4.3,8.39,8.39,0,0,1-5.26-.62,10.27,10.27,0,0,1-1.46-.9c-.22-.16-.45-.33-.67-.52s-.57-.49-.84-.76a13.07,13.07,0,0,1-2.77-3.87,6.32,6.32,0,0,1-.69-3.36A27.55,27.55,0,0,0,6,14.92h0a7.71,7.71,0,0,0-2.41,3.59,10.45,10.45,0,0,0-.41,3.89A7.82,7.82,0,0,0,4.8,27.06c.74.85,1.88,1.14,2.61,2a6,6,0,0,1,.91,1.84c.6,1.7,1.26,3.38,1.95,5.05s1.5,3.45,2.37,5.12A66.12,66.12,0,0,0,18,49.52l.39.52a5.27,5.27,0,0,0,2.32,2.06,2.49,2.49,0,0,0,.79.12,3,3,0,0,0,1.88-.79,9.55,9.55,0,0,0,2.05-2.88l.15-.28a10.25,10.25,0,0,1,2.16-2.78c.71-.62,1.53-1.12,2.25-1.71,4.39-3.58,4.89-10.17,8.54-14.32A12.06,12.06,0,0,0,40.62,27c2.41-4.8-.24-11.31-4.42-14.19-1.84-4.16-5-8.52-9.64-9.16a11.88,11.88,0,0,0-4.11.37A50.87,50.87,0,0,0,9,9.52Z"/><path class="cls-43" d="M9.07,9.55a10.72,10.72,0,0,0-3.3,2.53c-.66-.07.62,2.3,1.34,4.26a1.74,1.74,0,0,0,1.43-.07c1.69-.91,3.54-3.21,5.09-4.23a9,9,0,0,1,2.74-1.25,19.72,19.72,0,0,1,6.81-.51,10.51,10.51,0,0,1,4.9,1.42A9,9,0,0,1,30,13.44c.16.18.31.37.45.55A11.16,11.16,0,0,1,33,22.38a10.39,10.39,0,0,1-2,4.54,11.32,11.32,0,0,1-6.73,4.38A8.46,8.46,0,0,1,19,30.76a9.22,9.22,0,0,1-1.47-.88c-.23-.16-.46-.33-.68-.51s-.57-.49-.85-.75a13.45,13.45,0,0,1-2.8-3.85,6.52,6.52,0,0,1-.73-3.35A31.22,31.22,0,0,0,6.16,15l0,0a7.44,7.44,0,0,0-2.45,3.56,10.15,10.15,0,0,0-.4,3.88A7.82,7.82,0,0,0,4.89,27c.73.85,1.85,1.14,2.57,2a5.74,5.74,0,0,1,.9,1.82q.92,2.52,2,5c.72,1.72,1.49,3.43,2.36,5.08A64.48,64.48,0,0,0,18,49.28l.38.52a5.27,5.27,0,0,0,2.3,2,2.22,2.22,0,0,0,.78.14,3,3,0,0,0,1.87-.75,8.91,8.91,0,0,0,2.06-2.84,2.54,2.54,0,0,1,.16-.28,10.18,10.18,0,0,1,2.14-2.78c.7-.62,1.52-1.12,2.24-1.7,4.37-3.54,4.94-10,8.53-14.19A12.41,12.41,0,0,0,40.53,27c2.41-4.86-.28-11.44-4.53-14.32-1.82-4.06-4.92-8.33-9.49-8.93a11.6,11.6,0,0,0-4.06.39A51.12,51.12,0,0,0,9.07,9.55Z"/><path class="cls-44" d="M9.18,9.57a10.85,10.85,0,0,0-3.3,2.52c-.7,0,.5,2.36,1.18,4.33a1.7,1.7,0,0,0,1.43-.09c1.68-.91,3.53-3.23,5.07-4.24a9.75,9.75,0,0,1,2.73-1.26,20.28,20.28,0,0,1,6.81-.55A10.49,10.49,0,0,1,28,11.64a9,9,0,0,1,1.93,1.73c.15.18.3.36.44.55A11.16,11.16,0,0,1,33,22.27a10.3,10.3,0,0,1-2,4.56,11.4,11.4,0,0,1-6.67,4.46,8.41,8.41,0,0,1-5.27-.47A9.57,9.57,0,0,1,17.65,30l-.68-.5c-.29-.24-.58-.49-.86-.75a13.57,13.57,0,0,1-2.82-3.82,6.75,6.75,0,0,1-.78-3.34A36.17,36.17,0,0,0,6.27,15l0,0A7.14,7.14,0,0,0,3.82,18.5a10,10,0,0,0-.41,3.88A7.88,7.88,0,0,0,5,27c.72.84,1.81,1.15,2.53,2a6,6,0,0,1,.9,1.81q.91,2.49,1.95,4.94c.72,1.7,1.49,3.39,2.35,5A64.81,64.81,0,0,0,18,49l.38.51a5.37,5.37,0,0,0,2.28,2,2.5,2.5,0,0,0,.78.15A3,3,0,0,0,23.32,51,8.54,8.54,0,0,0,25.4,48.2l.15-.28a10.45,10.45,0,0,1,2.13-2.77c.7-.62,1.52-1.11,2.24-1.69,4.35-3.5,5-9.92,8.51-14a12.49,12.49,0,0,0,2-2.42c2.41-4.93-.32-11.57-4.65-14.44C34,8.58,31,4.41,26.47,3.84a11.39,11.39,0,0,0-4,.4A52.1,52.1,0,0,0,9.18,9.57Z"/><path class="cls-45" d="M9.29,9.6A11,11,0,0,0,6,12.11c-.73,0,.39,2.4,1,4.39a1.75,1.75,0,0,0,1.43-.1c1.67-.93,3.52-3.25,5.05-4.26a9.75,9.75,0,0,1,2.73-1.26,20.56,20.56,0,0,1,6.8-.6,10.51,10.51,0,0,1,4.92,1.31,9,9,0,0,1,1.94,1.71l.45.54a11.17,11.17,0,0,1,2.72,8.32,10.31,10.31,0,0,1-1.91,4.58,11.52,11.52,0,0,1-6.62,4.54,8.34,8.34,0,0,1-5.27-.39,8.78,8.78,0,0,1-1.49-.83c-.23-.15-.46-.32-.69-.5s-.58-.47-.86-.73A13.26,13.26,0,0,1,13.36,25a6.78,6.78,0,0,1-.82-3.32,43.5,43.5,0,0,0-6.15-6.65l0-.05a7,7,0,0,0-2.54,3.48,9.74,9.74,0,0,0-.4,3.87A8.09,8.09,0,0,0,5.06,27c.72.84,1.79,1.15,2.5,2a6.27,6.27,0,0,1,.9,1.79q.9,2.46,1.94,4.89c.72,1.68,1.49,3.35,2.35,5a63.19,63.19,0,0,0,5.3,8.15l.38.51a5.38,5.38,0,0,0,2.25,2,2.49,2.49,0,0,0,.77.15,3,3,0,0,0,1.85-.66A8.26,8.26,0,0,0,25.39,48l.15-.28A10.23,10.23,0,0,1,27.65,45c.7-.62,1.51-1.11,2.23-1.68,4.33-3.46,5-9.8,8.49-13.92a12,12,0,0,0,2-2.41c2.41-5-.36-11.7-4.76-14.57-1.78-3.87-4.77-7.94-9.16-8.49a11.16,11.16,0,0,0-4,.43A52.41,52.41,0,0,0,9.29,9.6Z"/><path class="cls-46" d="M9.4,9.62a11.25,11.25,0,0,0-3.31,2.5c-.78.08.27,2.45.87,4.46a1.68,1.68,0,0,0,1.42-.12c1.67-.93,3.53-3.27,5-4.27a9.82,9.82,0,0,1,2.72-1.26,20.92,20.92,0,0,1,6.8-.66,10.65,10.65,0,0,1,4.93,1.26,9.23,9.23,0,0,1,1.95,1.7c.16.17.31.36.45.54a11.12,11.12,0,0,1,2.8,8.28,10.3,10.3,0,0,1-1.87,4.61,11.61,11.61,0,0,1-6.56,4.62A8.47,8.47,0,0,1,19.37,31a9.59,9.59,0,0,1-1.51-.81c-.23-.15-.46-.32-.69-.49s-.58-.47-.87-.72a13.42,13.42,0,0,1-2.87-3.78,6.89,6.89,0,0,1-.87-3.31A51.26,51.26,0,0,0,6.5,15.11a.25.25,0,0,1,0-.07A6.83,6.83,0,0,0,4,18.48a9.52,9.52,0,0,0-.4,3.87A8.18,8.18,0,0,0,5.15,27c.71.83,1.76,1.15,2.46,2a6,6,0,0,1,.89,1.77c.61,1.62,1.26,3.24,1.95,4.84s1.48,3.32,2.33,4.91a64.34,64.34,0,0,0,5.28,8.07l.38.49a5.4,5.4,0,0,0,2.24,2,2.35,2.35,0,0,0,.75.16,3,3,0,0,0,1.84-.62,8,8,0,0,0,2.11-2.74l.15-.28a10.47,10.47,0,0,1,2.09-2.76c.69-.62,1.51-1.1,2.23-1.67,4.3-3.42,5-9.67,8.47-13.78a12.79,12.79,0,0,0,2-2.41c2.41-5.06-.4-11.83-4.89-14.69-1.76-3.78-4.7-7.75-9-8.27a11.38,11.38,0,0,0-3.94.44A53.38,53.38,0,0,0,9.4,9.62Z"/><path class="cls-47" d="M9.51,9.65a11.4,11.4,0,0,0-3.32,2.49c-.81.12.17,2.5.72,4.52a1.73,1.73,0,0,0,1.42-.13c1.66-1,3.52-3.29,5-4.28A9.86,9.86,0,0,1,16.07,11a21.47,21.47,0,0,1,6.79-.7,10.58,10.58,0,0,1,4.94,1.21,8.69,8.69,0,0,1,2,1.68c.16.17.31.35.46.53A11.19,11.19,0,0,1,33.1,22a10.26,10.26,0,0,1-1.84,4.62,11.68,11.68,0,0,1-6.5,4.7A8.47,8.47,0,0,1,19.49,31,9.15,9.15,0,0,1,18,30.24c-.23-.15-.47-.31-.7-.48s-.59-.47-.87-.72a13.07,13.07,0,0,1-2.9-3.75,7,7,0,0,1-.92-3.3,64.55,64.55,0,0,0-6-6.83.41.41,0,0,1,0-.09A6.62,6.62,0,0,0,4,18.47a9.16,9.16,0,0,0-.4,3.86A8.19,8.19,0,0,0,5.24,27c.7.82,1.73,1.16,2.42,2a6.08,6.08,0,0,1,.89,1.76q.91,2.41,1.94,4.78c.72,1.65,1.48,3.29,2.33,4.87a62,62,0,0,0,5.26,8l.37.49a5.64,5.64,0,0,0,2.22,2,2.69,2.69,0,0,0,.75.17,3,3,0,0,0,1.82-.58,7.43,7.43,0,0,0,2.12-2.71l.15-.27a10.28,10.28,0,0,1,2.08-2.76c.69-.62,1.5-1.1,2.22-1.66,4.28-3.38,5.08-9.55,8.46-13.65a12.52,12.52,0,0,0,1.91-2.4c2.41-5.13-.44-11.95-5-14.82-1.74-3.68-4.63-7.55-8.84-8a11,11,0,0,0-3.9.46A54,54,0,0,0,9.51,9.65Z"/><path class="cls-48" d="M9.63,9.68A11.11,11.11,0,0,0,6.3,12.16c-.85.17,0,2.54.56,4.58a1.69,1.69,0,0,0,1.42-.15c1.65-1,3.52-3.31,5-4.29A9.94,9.94,0,0,1,16,11a21.82,21.82,0,0,1,6.78-.75,10.49,10.49,0,0,1,5,1.15,9.14,9.14,0,0,1,2,1.66l.46.54a11.15,11.15,0,0,1,3,8.22,10.39,10.39,0,0,1-1.8,4.64,11.78,11.78,0,0,1-6.45,4.78,8.43,8.43,0,0,1-5.28-.16,9.44,9.44,0,0,1-1.52-.77c-.24-.15-.48-.31-.71-.48s-.59-.45-.88-.7a13.44,13.44,0,0,1-2.93-3.73,7.31,7.31,0,0,1-1-3.29c-2.14-3.07-4.84-5.61-5.87-6.93l0-.1a6.41,6.41,0,0,0-2.67,3.36,9,9,0,0,0-.4,3.86,8.35,8.35,0,0,0,1.62,4.62c.68.82,1.7,1.16,2.38,2a6.2,6.2,0,0,1,.88,1.74q.91,2.38,1.95,4.73c.71,1.63,1.46,3.25,2.32,4.81a61.87,61.87,0,0,0,5.23,7.88l.38.49a5.66,5.66,0,0,0,2.19,2,2.63,2.63,0,0,0,.74.17,2.92,2.92,0,0,0,1.81-.53,7.12,7.12,0,0,0,2.14-2.67l.15-.28a10.54,10.54,0,0,1,2.06-2.75c.69-.62,1.5-1.09,2.21-1.66,4.27-3.33,5.12-9.41,8.44-13.5a12.42,12.42,0,0,0,1.88-2.41C42.5,21.72,39.61,14.83,35,12c-1.73-3.59-4.56-7.36-8.68-7.82a11,11,0,0,0-3.86.47A54.24,54.24,0,0,0,9.63,9.68Z"/><path class="cls-49" d="M9.74,9.7a11.42,11.42,0,0,0-3.33,2.47c-.89.22-.07,2.59.4,4.65a1.7,1.7,0,0,0,1.42-.16c1.65-1,3.51-3.33,5-4.31a10.1,10.1,0,0,1,2.71-1.28,21.82,21.82,0,0,1,6.77-.8,10.37,10.37,0,0,1,5,1.1,8.82,8.82,0,0,1,2,1.64c.16.18.32.35.47.53a11.21,11.21,0,0,1,3,8.19,10.31,10.31,0,0,1-1.77,4.66A11.83,11.83,0,0,1,25,31.25a8.46,8.46,0,0,1-5.29-.09,8.7,8.7,0,0,1-1.54-.74c-.24-.15-.47-.3-.71-.47s-.6-.45-.88-.7a13.27,13.27,0,0,1-3-3.7,7.61,7.61,0,0,1-1-3.28c-2.13-3.07-4.8-5.64-5.78-7a.61.61,0,0,1,0-.12,6.32,6.32,0,0,0-2.71,3.32,9,9,0,0,0-.4,3.86,8.49,8.49,0,0,0,1.63,4.61c.68.81,1.68,1.16,2.35,2a6.08,6.08,0,0,1,.88,1.72q.91,2.36,1.94,4.68c.71,1.61,1.46,3.22,2.31,4.76a60.72,60.72,0,0,0,5.22,7.78l.37.48a5.72,5.72,0,0,0,2.17,1.94,3.06,3.06,0,0,0,.74.18A2.87,2.87,0,0,0,23.18,50a6.79,6.79,0,0,0,2.16-2.64l.15-.27a10.08,10.08,0,0,1,2.05-2.75c.68-.62,1.48-1.09,2.2-1.65,4.24-3.29,5.15-9.29,8.42-13.37A11.78,11.78,0,0,0,40,26.88c2.41-5.25-.52-12.2-5.23-15.06-1.7-3.49-4.49-7.16-8.51-7.6a11,11,0,0,0-3.82.49A56.06,56.06,0,0,0,9.74,9.7Z"/><path class="cls-50" d="M9.85,9.73a11.39,11.39,0,0,0-3.34,2.46c-.93.26-.18,2.63.25,4.72a1.72,1.72,0,0,0,1.41-.19c1.65-1,3.51-3.35,5-4.32a10.1,10.1,0,0,1,2.71-1.28,22.16,22.16,0,0,1,6.76-.85,10.39,10.39,0,0,1,5,1,8.61,8.61,0,0,1,2,1.63c.17.17.32.35.48.53,2,2.32,3.4,5.13,3.13,8.16a10.45,10.45,0,0,1-1.73,4.67,12,12,0,0,1-6.33,4.94,8.11,8.11,0,0,1-6.84-.74q-.36-.21-.72-.45c-.3-.22-.6-.45-.89-.69a13.25,13.25,0,0,1-3-3.68,7.62,7.62,0,0,1-1-3.27C10.51,19.34,7.89,16.74,7,15.3a.78.78,0,0,1,0-.14,6.07,6.07,0,0,0-2.75,3.28,8.52,8.52,0,0,0-.4,3.85A8.61,8.61,0,0,0,5.5,26.9c.67.81,1.65,1.16,2.31,2a6.3,6.3,0,0,1,.88,1.71q.92,2.32,1.93,4.63c.71,1.59,1.46,3.18,2.31,4.71a60.13,60.13,0,0,0,5.19,7.68l.38.48A5.79,5.79,0,0,0,20.65,50a2.53,2.53,0,0,0,.72.18,2.92,2.92,0,0,0,1.79-.44,6.59,6.59,0,0,0,2.17-2.6l.15-.28a10.33,10.33,0,0,1,2-2.74c.67-.62,1.48-1.09,2.19-1.64,4.22-3.25,5.19-9.16,8.41-13.24a11.94,11.94,0,0,0,1.81-2.39c2.4-5.31-.57-12.33-5.35-15.18-1.68-3.4-4.42-7-8.35-7.38a10.54,10.54,0,0,0-3.78.51A56.6,56.6,0,0,0,9.85,9.73Z"/><path class="cls-51" d="M10,9.76A11.33,11.33,0,0,0,6.62,12.2c-1,.32-.3,2.69.08,4.79a1.75,1.75,0,0,0,1.42-.2c1.64-1,3.51-3.38,5-4.34a10.52,10.52,0,0,1,2.7-1.29,22.88,22.88,0,0,1,6.76-.89,10.23,10.23,0,0,1,5,1,8.63,8.63,0,0,1,2,1.61c.16.17.32.34.47.52,2,2.31,3.46,5.1,3.22,8.13a10.36,10.36,0,0,1-1.7,4.69,12,12,0,0,1-6.27,5,8.57,8.57,0,0,1-5.3.07,9.05,9.05,0,0,1-1.56-.71,7.09,7.09,0,0,1-.72-.45,10.63,10.63,0,0,1-.9-.68,13.37,13.37,0,0,1-3-3.65,7.94,7.94,0,0,1-1.1-3.26c-2.14-3.06-4.72-5.69-5.6-7.2a.52.52,0,0,1,.06-.16,6,6,0,0,0-2.8,3.24,8.52,8.52,0,0,0-.4,3.85,8.8,8.8,0,0,0,1.66,4.6c.66.8,1.62,1.17,2.28,2a6.57,6.57,0,0,1,.86,1.69q.91,2.29,1.94,4.58c.71,1.57,1.45,3.14,2.29,4.65a59.43,59.43,0,0,0,5.18,7.59l.37.47a5.86,5.86,0,0,0,2.13,1.91,2.69,2.69,0,0,0,2.49-.21A6.3,6.3,0,0,0,25.32,47c0-.09.09-.18.14-.27a10.51,10.51,0,0,1,2-2.74c.67-.62,1.47-1.08,2.19-1.63,4.19-3.21,5.22-9,8.38-13.1a12.08,12.08,0,0,0,1.78-2.39c2.4-5.38-.6-12.46-5.47-15.31C32.7,8.23,30,4.76,26.17,4.38a10.85,10.85,0,0,0-3.74.52A57.14,57.14,0,0,0,10,9.76Z"/><path class="cls-52" d="M10.07,9.78a11.65,11.65,0,0,0-3.34,2.44c-1,.36-.42,2.73-.08,4.85a1.72,1.72,0,0,0,1.42-.22c1.63-1,3.5-3.39,4.93-4.34a10.22,10.22,0,0,1,2.7-1.3,24.65,24.65,0,0,1,6.74-.94,10,10,0,0,1,5,.93,8.9,8.9,0,0,1,2,1.6l.48.51c2,2.3,3.51,5.07,3.29,8.1a10.19,10.19,0,0,1-1.66,4.71,12.1,12.1,0,0,1-6.21,5.11,8.58,8.58,0,0,1-5.3.14,8.71,8.71,0,0,1-1.57-.69c-.24-.13-.49-.28-.73-.44a9.54,9.54,0,0,1-.9-.67,13.28,13.28,0,0,1-3-3.63,8.25,8.25,0,0,1-1.14-3.25C10.56,19.63,8,17,7.18,15.39l.06-.17a5.8,5.8,0,0,0-2.83,3.21A8.19,8.19,0,0,0,4,22.27a8.78,8.78,0,0,0,1.67,4.59c.65.8,1.59,1.17,2.24,2a6.45,6.45,0,0,1,.86,1.67Q9.7,32.78,10.71,35c.71,1.56,1.45,3.11,2.29,4.61a57.23,57.23,0,0,0,5.16,7.49l.36.47a6.12,6.12,0,0,0,2.11,1.89,3.47,3.47,0,0,0,.71.2,2.88,2.88,0,0,0,1.76-.36,6,6,0,0,0,2.2-2.54l.15-.27a10.39,10.39,0,0,1,2-2.73c.67-.62,1.47-1.08,2.18-1.62,4.18-3.17,5.26-8.91,8.37-13a11.81,11.81,0,0,0,1.74-2.38c2.4-5.45-.64-12.58-5.58-15.43-1.64-3.21-4.28-6.58-8-6.94a10.62,10.62,0,0,0-3.7.55A58.27,58.27,0,0,0,10.07,9.78Z"/><path class="cls-53" d="M10.18,9.81a11.77,11.77,0,0,0-3.35,2.42c-1,.41-.53,2.78-.23,4.92A1.77,1.77,0,0,0,8,16.92c1.62-1,3.49-3.42,4.91-4.36a10.32,10.32,0,0,1,2.69-1.3,25.19,25.19,0,0,1,6.74-1,10,10,0,0,1,5,.89,8.4,8.4,0,0,1,2,1.58l.48.51c2.06,2.27,3.57,5,3.38,8.06A10.41,10.41,0,0,1,31.65,26a12.28,12.28,0,0,1-6.16,5.18,8.52,8.52,0,0,1-5.3.21,8,8,0,0,1-1.58-.66c-.25-.13-.49-.27-.74-.43s-.61-.43-.91-.66a13.6,13.6,0,0,1-3.06-3.61,8.61,8.61,0,0,1-1.19-3.24c-2.13-3.06-4.63-5.75-5.41-7.39a.7.7,0,0,1,.06-.19,5.68,5.68,0,0,0-2.88,3.17,8.15,8.15,0,0,0-.4,3.83,9,9,0,0,0,1.69,4.59c.64.79,1.56,1.17,2.2,2a6.79,6.79,0,0,1,.85,1.65c.62,1.51,1.26,3,1.94,4.48S12.2,38,13,39.49a57.17,57.17,0,0,0,5.13,7.41l.37.45a6,6,0,0,0,2.09,1.88,3.14,3.14,0,0,0,.69.2,2.82,2.82,0,0,0,1.75-.31,5.8,5.8,0,0,0,2.22-2.5l.15-.27a10.32,10.32,0,0,1,2-2.73A25.9,25.9,0,0,1,29.59,42c4.16-3.13,5.3-8.79,8.36-12.83a12.31,12.31,0,0,0,1.7-2.38C42,21.29,39,14.09,34,11.24c-1.63-3.1-4.21-6.37-7.87-6.71a10.61,10.61,0,0,0-3.66.56A60.39,60.39,0,0,0,10.18,9.81Z"/><path class="cls-54" d="M10.29,9.84a11.55,11.55,0,0,0-3.35,2.41c-1.08.46-.65,2.83-.39,5A1.71,1.71,0,0,0,8,17c1.62-1,3.5-3.43,4.9-4.37a11,11,0,0,1,2.69-1.31,24.4,24.4,0,0,1,6.73-1,10.35,10.35,0,0,1,5,.83,8.56,8.56,0,0,1,2.05,1.56l.49.51c2.07,2.26,3.62,5,3.46,8A10.44,10.44,0,0,1,31.71,26a12.33,12.33,0,0,1-6.1,5.26,8.63,8.63,0,0,1-5.31.29,8.26,8.26,0,0,1-1.59-.64c-.25-.13-.49-.27-.73-.42a9.69,9.69,0,0,1-.92-.66A13.27,13.27,0,0,1,14,26.2,8.62,8.62,0,0,1,12.74,23c-2.14-3-4.59-5.77-5.33-7.48a1.72,1.72,0,0,1,.07-.21,5.56,5.56,0,0,0-2.93,3.13,7.89,7.89,0,0,0-.39,3.83,9.1,9.1,0,0,0,1.69,4.58c.63.78,1.54,1.18,2.17,2a6.84,6.84,0,0,1,.85,1.63c.61,1.49,1.26,3,1.93,4.43s1.44,3,2.27,4.5a56.75,56.75,0,0,0,5.12,7.31l.36.45A6.06,6.06,0,0,0,20.62,49a2.69,2.69,0,0,0,.68.22A2.85,2.85,0,0,0,23,48.91a5.57,5.57,0,0,0,2.24-2.47l.15-.26a10.25,10.25,0,0,1,2-2.73,25.78,25.78,0,0,1,2.17-1.6c4.13-3.09,5.34-8.66,8.33-12.7a12.14,12.14,0,0,0,1.68-2.37C42,21.2,38.84,13.94,33.75,11.1c-1.6-3-4.13-6.18-7.7-6.49a10.39,10.39,0,0,0-3.62.57A61.26,61.26,0,0,0,10.29,9.84Z"/><path class="cls-55" d="M10.4,9.86a11.91,11.91,0,0,0-3.35,2.4c-1.13.51-.77,2.88-.55,5a1.73,1.73,0,0,0,1.41-.26c1.62-1,3.49-3.46,4.88-4.39a11,11,0,0,1,2.69-1.31,24.78,24.78,0,0,1,6.72-1.09,10.13,10.13,0,0,1,5,.78,8.53,8.53,0,0,1,2.06,1.54l.49.51c2.1,2.24,3.68,5,3.55,8a10.39,10.39,0,0,1-1.55,4.77,12.49,12.49,0,0,1-6.05,5.34,8.57,8.57,0,0,1-5.31.37,8.68,8.68,0,0,1-1.6-.62c-.25-.13-.5-.27-.74-.42a9.6,9.6,0,0,1-.93-.64A13.37,13.37,0,0,1,14,26.34a9,9,0,0,1-1.28-3.23c-2.13-3.05-4.55-5.8-5.24-7.57,0-.08.05-.15.07-.23a5.43,5.43,0,0,0-3,3.09,7.77,7.77,0,0,0-.4,3.83A9.18,9.18,0,0,0,5.94,26.8c.62.78,1.51,1.18,2.13,2a7.28,7.28,0,0,1,.85,1.61q.91,2.21,1.92,4.38c.7,1.5,1.44,3,2.27,4.44a56.59,56.59,0,0,0,5.09,7.22l.36.44a6.17,6.17,0,0,0,2.05,1.84,2.69,2.69,0,0,0,.68.22A2.79,2.79,0,0,0,23,48.7a5.43,5.43,0,0,0,2.26-2.43l.14-.27a10.56,10.56,0,0,1,1.95-2.72,25.51,25.51,0,0,1,2.16-1.59c4.11-3,5.38-8.54,8.32-12.56a12,12,0,0,0,1.64-2.38c2.38-5.64-.76-13-5.93-15.8C32,8,29.48,5,26,4.69a10.14,10.14,0,0,0-3.57.59A62.79,62.79,0,0,0,10.4,9.86Z"/><path class="cls-56" d="M10.51,9.89a12.07,12.07,0,0,0-3.36,2.39c-1.16.55-.88,2.92-.7,5.11a1.75,1.75,0,0,0,1.41-.28c1.61-1,3.48-3.47,4.86-4.4A11.13,11.13,0,0,1,15.4,11.4a24.91,24.91,0,0,1,6.71-1.14,10.18,10.18,0,0,1,5.05.72,8.54,8.54,0,0,1,2.07,1.53l.5.5c2.11,2.22,3.73,4.94,3.63,8a10.39,10.39,0,0,1-1.52,4.79,12.57,12.57,0,0,1-6,5.42,8.62,8.62,0,0,1-5.32.45,8.35,8.35,0,0,1-1.62-.6c-.25-.13-.5-.26-.74-.41a9.6,9.6,0,0,1-.93-.64,13.36,13.36,0,0,1-3.14-3.52,9.26,9.26,0,0,1-1.33-3.21c-2.13-3.06-4.5-5.84-5.14-7.67a1.82,1.82,0,0,1,.07-.25,5.33,5.33,0,0,0-3,3.05,7.63,7.63,0,0,0-.39,3.82A9.39,9.39,0,0,0,6,26.78c.61.77,1.48,1.18,2.09,2A6.72,6.72,0,0,1,9,30.34q.93,2.18,1.93,4.32c.7,1.49,1.43,3,2.25,4.4a55.48,55.48,0,0,0,5.08,7.12l.36.44a6.34,6.34,0,0,0,2,1.82,3.33,3.33,0,0,0,.67.23A2.87,2.87,0,0,0,23,48.49a5.2,5.2,0,0,0,2.26-2.4l.15-.26a11,11,0,0,1,1.93-2.73,23.79,23.79,0,0,1,2.16-1.57c4.09-3,5.41-8.42,8.3-12.43a12.18,12.18,0,0,0,1.6-2.37c2.37-5.71-.8-13.08-6-15.92C31.78,8,29.35,5,26,4.76a10.26,10.26,0,0,0-3.54.61A64.46,64.46,0,0,0,10.51,9.89Z"/><path class="cls-57" d="M10.63,9.92A11.74,11.74,0,0,0,7.26,12.3c-1.2.6-1,3-.86,5.17a1.72,1.72,0,0,0,1.4-.29c1.61-1.05,3.49-3.5,4.85-4.42a11.53,11.53,0,0,1,2.68-1.32A25.69,25.69,0,0,1,22,10.26a10.12,10.12,0,0,1,5.06.67,8.26,8.26,0,0,1,2.08,1.51l.5.5c2.13,2.2,3.8,4.9,3.72,7.93a10.46,10.46,0,0,1-1.49,4.81A12.62,12.62,0,0,1,26,31.18a8.66,8.66,0,0,1-5.33.52A8.23,8.23,0,0,1,19,31.13c-.25-.12-.5-.26-.75-.4a9.63,9.63,0,0,1-.94-.63,13.4,13.4,0,0,1-3.17-3.5,9.88,9.88,0,0,1-1.37-3.2c-2.13-3-4.46-5.86-5.05-7.77a2.58,2.58,0,0,1,.08-.26,5.22,5.22,0,0,0-3.06,3,7.63,7.63,0,0,0-.39,3.82,9.52,9.52,0,0,0,1.74,4.56c.6.77,1.45,1.18,2.05,2A7.26,7.26,0,0,1,9,30.3c.61,1.43,1.25,2.86,1.92,4.27s1.43,2.94,2.25,4.34a54.61,54.61,0,0,0,5.05,7l.36.43a6.39,6.39,0,0,0,2,1.81,3,3,0,0,0,.65.24A2.83,2.83,0,0,0,23,48.28a5,5,0,0,0,2.28-2.36l.15-.27a10.59,10.59,0,0,1,1.91-2.72,21.78,21.78,0,0,1,2.15-1.56c4.07-3,5.45-8.29,8.28-12.29a11.88,11.88,0,0,0,1.57-2.37c2.37-5.78-.84-13.21-6.16-16-1.54-2.72-3.92-5.59-7.22-5.82a10,10,0,0,0-3.5.63A64.5,64.5,0,0,0,10.63,9.92Z"/><path class="cls-58" d="M10.74,9.94a12.05,12.05,0,0,0-3.37,2.37c-1.24.65-1.12,3-1,5.24a1.75,1.75,0,0,0,1.4-.31c1.6-1.06,3.48-3.51,4.84-4.42a10.85,10.85,0,0,1,2.66-1.33A26.35,26.35,0,0,1,22,10.26a10.15,10.15,0,0,1,5.07.61,8.27,8.27,0,0,1,2.09,1.5c.18.16.34.33.51.49,2.15,2.19,3.85,4.87,3.79,7.91A10.48,10.48,0,0,1,32,25.59a12.82,12.82,0,0,1-5.87,5.59,8.68,8.68,0,0,1-5.33.59,8,8,0,0,1-1.63-.55,7.88,7.88,0,0,1-.76-.4,8.13,8.13,0,0,1-.95-.62,13.53,13.53,0,0,1-3.19-3.47,9.88,9.88,0,0,1-1.41-3.19c-2.13-3.05-4.42-5.89-5-7.86a2.86,2.86,0,0,1,.07-.28,5.13,5.13,0,0,0-3.09,3,7.27,7.27,0,0,0-.39,3.81A9.62,9.62,0,0,0,6.2,26.74c.6.76,1.43,1.19,2,2a7.08,7.08,0,0,1,.83,1.56Q10,32.38,11,34.48c.69,1.45,1.42,2.9,2.24,4.29a52.52,52.52,0,0,0,5,6.93l.35.43a6.74,6.74,0,0,0,2,1.79,3,3,0,0,0,.65.24,2.93,2.93,0,0,0,1.69-.08,4.88,4.88,0,0,0,2.3-2.34l.15-.26a10.6,10.6,0,0,1,1.89-2.72,21.68,21.68,0,0,1,2.15-1.55c4-2.93,5.48-8.17,8.26-12.16a12.59,12.59,0,0,0,1.54-2.36c2.35-5.84-.89-13.34-6.29-16.18-1.52-2.62-3.85-5.38-7-5.59a10,10,0,0,0-3.46.64A68.43,68.43,0,0,0,10.74,9.94Z"/><path class="cls-59" d="M10.85,10a12.22,12.22,0,0,0-3.38,2.36c-1.28.69-1.23,3.06-1.17,5.3a1.77,1.77,0,0,0,1.4-.32c1.59-1.07,3.48-3.54,4.82-4.44a11.22,11.22,0,0,1,2.66-1.33,26.36,26.36,0,0,1,6.69-1.28,10.07,10.07,0,0,1,5.08.56,8.47,8.47,0,0,1,2.11,1.48c.17.16.34.32.5.49,2.17,2.17,3.91,4.83,3.88,7.87A10.28,10.28,0,0,1,32,25.5a12.88,12.88,0,0,1-5.81,5.67,8.77,8.77,0,0,1-5.33.67,8.38,8.38,0,0,1-1.65-.54c-.25-.11-.51-.24-.76-.38a9.56,9.56,0,0,1-.95-.61,13.4,13.4,0,0,1-3.22-3.45,10.37,10.37,0,0,1-1.46-3.18C10.72,20.63,8.47,17.77,8,15.73c0-.1,0-.2.08-.3a5.08,5.08,0,0,0-3.14,2.93,7.27,7.27,0,0,0-.39,3.81,9.78,9.78,0,0,0,1.76,4.54c.59.76,1.4,1.2,2,2a6.94,6.94,0,0,1,.83,1.54c.61,1.4,1.26,2.78,1.92,4.17s1.41,2.86,2.23,4.23a53.34,53.34,0,0,0,5,6.84l.36.43a6.71,6.71,0,0,0,2,1.77,3.67,3.67,0,0,0,.64.25,2.9,2.9,0,0,0,1.68,0,4.71,4.71,0,0,0,2.32-2.31c.05-.08.09-.17.14-.26a10.47,10.47,0,0,1,1.89-2.71A20.32,20.32,0,0,1,29.38,41c4-2.88,5.52-8,8.25-12a12.32,12.32,0,0,0,1.5-2.35c2.35-5.91-.93-13.47-6.4-16.3C31.23,7.84,29,5.18,25.83,5a10,10,0,0,0-3.41.66A70.87,70.87,0,0,0,10.85,10Z"/><path class="cls-60" d="M11,10a12.16,12.16,0,0,0-3.38,2.34c-1.32.75-1.35,3.11-1.33,5.37a1.75,1.75,0,0,0,1.4-.34c1.59-1.08,3.47-3.56,4.8-4.45a11.76,11.76,0,0,1,2.65-1.34,27.39,27.39,0,0,1,6.69-1.32,10.1,10.1,0,0,1,5.09.5A8.23,8.23,0,0,1,29,12.23c.17.15.34.32.51.48,2.19,2.15,4,4.8,4,7.84a10.54,10.54,0,0,1-1.37,4.87,13.09,13.09,0,0,1-5.76,5.74,8.81,8.81,0,0,1-5.34.75A9.07,9.07,0,0,1,18.58,31c-.33-.18-.65-.39-1-.6A13.39,13.39,0,0,1,14.38,27a10.64,10.64,0,0,1-1.51-3.17c-2.13-3-4.33-5.94-4.78-8a3,3,0,0,1,.09-.32A5,5,0,0,0,5,18.35a7.06,7.06,0,0,0-.38,3.81,9.76,9.76,0,0,0,1.77,4.53c.57.76,1.37,1.2,1.94,2a7.79,7.79,0,0,1,.83,1.53q.91,2.07,1.91,4.11c.7,1.42,1.41,2.84,2.23,4.19a51.27,51.27,0,0,0,5,6.74l.35.42a7.06,7.06,0,0,0,1.95,1.76,4.57,4.57,0,0,0,.62.26,2.88,2.88,0,0,0,1.67,0,4.57,4.57,0,0,0,2.34-2.27,2.15,2.15,0,0,1,.14-.26,10.65,10.65,0,0,1,1.87-2.71,20.11,20.11,0,0,1,2.12-1.54C33.34,38,34.9,33,37.57,29A12,12,0,0,0,39,26.65c2.34-6-1-13.6-6.51-16.43-1.49-2.43-3.71-5-6.74-5.15a9.88,9.88,0,0,0-3.38.68A71.5,71.5,0,0,0,11,10Z"/><path class="cls-61" d="M11.07,10a12.35,12.35,0,0,0-3.39,2.34c-1.35.79-1.46,3.16-1.48,5.43a1.77,1.77,0,0,0,1.39-.35c1.59-1.09,3.47-3.58,4.79-4.47A12.19,12.19,0,0,1,15,11.63a28.43,28.43,0,0,1,6.67-1.38,10.27,10.27,0,0,1,5.11.46,8.16,8.16,0,0,1,2.13,1.44c.17.16.35.32.51.49,2.21,2.13,4,4.76,4.05,7.8a10.55,10.55,0,0,1-1.34,4.89,13.15,13.15,0,0,1-5.7,5.82,8.78,8.78,0,0,1-5.34.83,8.62,8.62,0,0,1-1.67-.5c-.26-.11-.51-.23-.77-.37a8,8,0,0,1-1-.59,13.59,13.59,0,0,1-3.28-3.4A11.41,11.41,0,0,1,12.89,24c-2.12-3-4.29-6-4.68-8.14,0-.11,0-.22.08-.33a4.9,4.9,0,0,0-3.22,2.86,6.9,6.9,0,0,0-.39,3.79,9.94,9.94,0,0,0,1.79,4.53c.56.75,1.34,1.21,1.91,2a7.83,7.83,0,0,1,.81,1.51c.62,1.36,1.26,2.71,1.92,4.06s1.4,2.8,2.21,4.14a53.51,53.51,0,0,0,5,6.65c.12.13.24.27.35.41a7.22,7.22,0,0,0,1.93,1.74,3.57,3.57,0,0,0,.62.26,2.94,2.94,0,0,0,1.66.05,4.4,4.4,0,0,0,2.34-2.24l.15-.26a10.52,10.52,0,0,1,1.85-2.7,17.84,17.84,0,0,1,2.12-1.53c4-2.8,5.59-7.78,8.21-11.75A12.22,12.22,0,0,0,39,26.63c2.33-6.05-1-13.72-6.63-16.55-1.46-2.34-3.64-4.79-6.57-4.93a9.68,9.68,0,0,0-3.34.69A75.44,75.44,0,0,0,11.07,10Z"/><path class="cls-62" d="M11.18,10.05a12.29,12.29,0,0,0-3.39,2.32c-1.39.84-1.57,3.21-1.64,5.5a1.76,1.76,0,0,0,1.39-.37C9.12,16.4,11,13.9,12.31,13A12,12,0,0,1,15,11.68a28.44,28.44,0,0,1,6.66-1.43,10.2,10.2,0,0,1,5.12.4,8.43,8.43,0,0,1,2.14,1.43l.52.48c2.22,2.12,4.07,4.73,4.13,7.78a10.61,10.61,0,0,1-1.3,4.9,13.29,13.29,0,0,1-5.65,5.9,8.79,8.79,0,0,1-5.34.9,7.79,7.79,0,0,1-1.68-.47,6.78,6.78,0,0,1-.78-.36,10.8,10.8,0,0,1-1-.58,13.42,13.42,0,0,1-3.3-3.38,11.86,11.86,0,0,1-1.6-3.15c-2.12-3-4.25-6-4.59-8.23l.09-.35a4.82,4.82,0,0,0-3.27,2.82,6.71,6.71,0,0,0-.38,3.79,10.3,10.3,0,0,0,1.79,4.52c.56.75,1.32,1.21,1.88,2a8.25,8.25,0,0,1,.81,1.49c.61,1.34,1.25,2.68,1.91,4s1.4,2.76,2.21,4.08a52.44,52.44,0,0,0,4.95,6.56l.35.4a7.58,7.58,0,0,0,1.9,1.73,4.56,4.56,0,0,0,.61.27,2.92,2.92,0,0,0,1.65.09A4.21,4.21,0,0,0,25.18,45l.14-.26a10.74,10.74,0,0,1,1.84-2.7,17.65,17.65,0,0,1,2.11-1.52c4-2.77,5.63-7.66,8.2-11.61a13.29,13.29,0,0,0,1.4-2.34c2.31-6.12-1-13.85-6.75-16.68-1.44-2.24-3.57-4.59-6.41-4.7a9.67,9.67,0,0,0-3.3.71A77.62,77.62,0,0,0,11.18,10.05Z"/><path class="cls-63" d="M11.29,10.08A12.41,12.41,0,0,0,7.9,12.39c-1.44.89-1.69,3.25-1.8,5.56a1.71,1.71,0,0,0,1.39-.39C9.06,16.46,11,14,12.24,13.08a11.94,11.94,0,0,1,2.64-1.36,29.65,29.65,0,0,1,6.66-1.47,10.13,10.13,0,0,1,5.13.35A8.32,8.32,0,0,1,28.82,12l.52.47c2.25,2.1,4.14,4.7,4.22,7.75a10.53,10.53,0,0,1-1.27,4.92,13.41,13.41,0,0,1-5.59,6,8.74,8.74,0,0,1-5.34,1,8.27,8.27,0,0,1-1.69-.45,7.91,7.91,0,0,1-.79-.35,9.56,9.56,0,0,1-1-.58,13.42,13.42,0,0,1-3.33-3.35,12.14,12.14,0,0,1-1.64-3.14c-2.13-3-4.21-6-4.5-8.32a2.22,2.22,0,0,1,.09-.37,4.79,4.79,0,0,0-3.32,2.78,6.71,6.71,0,0,0-.38,3.79,10.41,10.41,0,0,0,1.81,4.51c.55.74,1.29,1.21,1.84,1.95a8.12,8.12,0,0,1,.8,1.48q.93,2,1.92,4c.68,1.36,1.39,2.73,2.2,4a51.43,51.43,0,0,0,4.92,6.46l.35.4a7.78,7.78,0,0,0,1.88,1.71,4.56,4.56,0,0,0,.61.27,3,3,0,0,0,1.63.14,4.09,4.09,0,0,0,2.38-2.17l.14-.26a10.8,10.8,0,0,1,1.82-2.69,15.85,15.85,0,0,1,2.11-1.51c3.93-2.73,5.66-7.53,8.17-11.48a12.46,12.46,0,0,0,1.37-2.34c2.3-6.18-1.09-14-6.87-16.79-1.42-2.15-3.5-4.39-6.25-4.49A9.71,9.71,0,0,0,22.41,6,81.43,81.43,0,0,0,11.29,10.08Z"/><path class="cls-64" d="M11.4,10.1A13,13,0,0,0,8,12.4c-1.47.94-1.8,3.31-1.95,5.63a1.78,1.78,0,0,0,1.39-.4C9,16.52,10.89,14,12.17,13.13a11.94,11.94,0,0,1,2.64-1.36,30.21,30.21,0,0,1,6.65-1.52,10.12,10.12,0,0,1,5.13.29,8.06,8.06,0,0,1,2.17,1.4l.53.47c2.26,2.08,4.19,4.66,4.29,7.71a10.45,10.45,0,0,1-1.23,4.94,13.52,13.52,0,0,1-5.52,6.06,8.84,8.84,0,0,1-5.36,1.06,8,8,0,0,1-1.7-.43c-.26-.1-.53-.21-.79-.34a9.61,9.61,0,0,1-1-.57,13.25,13.25,0,0,1-3.35-3.33A12.15,12.15,0,0,1,13,24.38c-2.12-3-4.17-6.05-4.41-8.41a2.79,2.79,0,0,1,.1-.39,4.68,4.68,0,0,0-3.36,2.74,6.51,6.51,0,0,0-.38,3.78,10.6,10.6,0,0,0,1.82,4.51c.54.73,1.26,1.21,1.8,1.95A9,9,0,0,1,9.33,30c.62,1.3,1.25,2.61,1.91,3.9s1.39,2.7,2.19,4a50.46,50.46,0,0,0,4.91,6.37l.34.39a7.9,7.9,0,0,0,1.87,1.7,6.23,6.23,0,0,0,.59.28,3,3,0,0,0,1.62.18,4,4,0,0,0,2.4-2.14l.14-.25a10.73,10.73,0,0,1,1.8-2.69,14.83,14.83,0,0,1,2.1-1.5c3.91-2.69,5.7-7.41,8.16-11.34a12.6,12.6,0,0,0,1.33-2.34c2.29-6.25-1.13-14.1-7-16.92-1.4-2-3.43-4.19-6.09-4.26a9.8,9.8,0,0,0-3.22.74A86.19,86.19,0,0,0,11.4,10.1Z"/><path class="cls-65" d="M11.51,10.13a12.94,12.94,0,0,0-3.4,2.29c-1.51,1-1.92,3.35-2.11,5.69a1.73,1.73,0,0,0,1.38-.42C9,16.57,10.84,14,12.1,13.18a12.54,12.54,0,0,1,2.63-1.36,30.6,30.6,0,0,1,6.64-1.57,10.08,10.08,0,0,1,5.15.24,7.81,7.81,0,0,1,2.18,1.38l.53.46C31.52,14.4,33.48,17,33.61,20A10.51,10.51,0,0,1,32.42,25,13.79,13.79,0,0,1,27,31.12a9,9,0,0,1-5.36,1.13,7.89,7.89,0,0,1-1.71-.41,8,8,0,0,1-.8-.34,8.09,8.09,0,0,1-1-.56,13.21,13.21,0,0,1-3.37-3.3A12.47,12.47,0,0,1,13,24.52c-2.12-3-4.12-6.07-4.32-8.51,0-.13.06-.27.1-.4a4.66,4.66,0,0,0-3.4,2.7A6.51,6.51,0,0,0,5,22.09a10.72,10.72,0,0,0,1.84,4.5c.53.73,1.23,1.22,1.76,1.95A9.52,9.52,0,0,1,9.38,30c.61,1.3,1.25,2.58,1.91,3.86s1.38,2.66,2.18,3.93A50.17,50.17,0,0,0,18.35,44l.35.39a8.06,8.06,0,0,0,1.84,1.67,4.6,4.6,0,0,0,.58.3,2.93,2.93,0,0,0,1.61.22,3.83,3.83,0,0,0,2.41-2.1l.15-.26a10.79,10.79,0,0,1,1.78-2.68,15.26,15.26,0,0,1,2.09-1.49c3.89-2.65,5.75-7.28,8.15-11.21a12.65,12.65,0,0,0,1.29-2.33c2.28-6.32-1.16-14.23-7.09-17-1.39-1.95-3.36-4-5.93-4a9.6,9.6,0,0,0-3.18.76A89.64,89.64,0,0,0,11.51,10.13Z"/><path class="cls-66" d="M11.63,10.16a12.8,12.8,0,0,0-3.41,2.28c-1.55,1-2,3.39-2.27,5.75a1.76,1.76,0,0,0,1.38-.43c1.56-1.13,3.45-3.68,4.7-4.53a13.06,13.06,0,0,1,2.63-1.37,31.77,31.77,0,0,1,6.63-1.61,10.12,10.12,0,0,1,5.16.18,8,8,0,0,1,2.19,1.37c.19.15.36.3.54.46,2.3,2.05,4.3,4.59,4.46,7.65a10.56,10.56,0,0,1-1.16,5,13.81,13.81,0,0,1-5.41,6.23,8.91,8.91,0,0,1-5.36,1.2A8,8,0,0,1,20,31.93c-.27-.1-.53-.21-.8-.33a9.58,9.58,0,0,1-1-.55,13.62,13.62,0,0,1-3.41-3.28A13.43,13.43,0,0,1,13,24.66c-2.12-3-4.08-6.1-4.22-8.6a3.2,3.2,0,0,1,.1-.42A4.61,4.61,0,0,0,5.43,18.3a6.42,6.42,0,0,0-.37,3.78A11,11,0,0,0,6.9,26.57c.53.72,1.21,1.22,1.73,1.94a9,9,0,0,1,.79,1.42c.62,1.28,1.26,2.55,1.91,3.81s1.38,2.63,2.17,3.87a49.2,49.2,0,0,0,4.87,6.18l.34.38a8.38,8.38,0,0,0,1.82,1.66,4.6,4.6,0,0,0,.58.3,3,3,0,0,0,1.59.27,3.76,3.76,0,0,0,2.43-2.07l.14-.25A11.13,11.13,0,0,1,27,41.4a13.37,13.37,0,0,1,2.09-1.48c3.87-2.61,5.78-7.16,8.12-11.07a13.16,13.16,0,0,0,1.27-2.33c2.26-6.39-1.21-14.35-7.22-17.17C29.94,7.5,28,5.57,25.53,5.53a9.6,9.6,0,0,0-3.13.78C18.86,7.52,15.06,8.5,11.63,10.16Z"/><path class="cls-67" d="M11.74,10.18a13.23,13.23,0,0,0-3.42,2.27c-1.59,1.08-2.15,3.44-2.42,5.82a1.78,1.78,0,0,0,1.38-.45c1.56-1.14,3.45-3.7,4.68-4.54a13.25,13.25,0,0,1,2.62-1.37,32.66,32.66,0,0,1,6.63-1.66,10.06,10.06,0,0,1,5.17.13,8,8,0,0,1,2.21,1.34l.54.46c2.31,2,4.35,4.56,4.54,7.62a10.79,10.79,0,0,1-1.12,5,14,14,0,0,1-5.36,6.3,9,9,0,0,1-5.37,1.28A7.53,7.53,0,0,1,20.09,32c-.27-.09-.54-.19-.81-.31a10.78,10.78,0,0,1-1-.54,13.45,13.45,0,0,1-3.43-3.26A13.36,13.36,0,0,1,13,24.8c-2.12-3-4-6.13-4.14-8.69A3.15,3.15,0,0,1,9,15.67a4.54,4.54,0,0,0-3.49,2.62,6.24,6.24,0,0,0-.38,3.77A11.23,11.23,0,0,0,7,26.55c.52.72,1.18,1.22,1.69,1.94a10.7,10.7,0,0,1,.79,1.4c.62,1.26,1.25,2.51,1.9,3.76s1.38,2.59,2.17,3.82a48,48,0,0,0,4.84,6.08l.34.38a9,9,0,0,0,1.81,1.64,6.38,6.38,0,0,0,.56.31,3,3,0,0,0,1.59.31,3.68,3.68,0,0,0,2.44-2c.05-.09.1-.17.14-.26A10.9,10.9,0,0,1,27,41.23a13.71,13.71,0,0,1,2.08-1.47c3.85-2.57,5.82-7,8.11-10.94a12.89,12.89,0,0,0,1.23-2.32C40.67,20.05,37.18,12,31.1,9.21c-1.35-1.76-3.22-3.59-5.61-3.6a9.35,9.35,0,0,0-3.09.8C18.9,7.63,15.13,8.55,11.74,10.18Z"/><path class="cls-68" d="M11.85,10.21a13,13,0,0,0-3.42,2.26C6.8,13.6,6.16,16,5.85,18.36a1.84,1.84,0,0,0,1.37-.47c1.56-1.15,3.45-3.72,4.67-4.56A13,13,0,0,1,14.51,12a34.08,34.08,0,0,1,6.62-1.72,10.21,10.21,0,0,1,5.18.08,8.24,8.24,0,0,1,2.22,1.33l.54.46c2.34,2,4.42,4.52,4.63,7.58a10.59,10.59,0,0,1-1.09,5,14.06,14.06,0,0,1-5.3,6.38,9.06,9.06,0,0,1-5.37,1.36,7.46,7.46,0,0,1-1.74-.35,6.26,6.26,0,0,1-.82-.31,8,8,0,0,1-1-.53A13.45,13.45,0,0,1,14.92,28,14.5,14.5,0,0,1,13.05,25c-2.12-3-4-6.16-4-8.79a3.41,3.41,0,0,1,.1-.46,4.51,4.51,0,0,0-3.53,2.58,6.09,6.09,0,0,0-.37,3.77,11.21,11.21,0,0,0,1.87,4.48c.5.71,1.15,1.23,1.65,1.94a9.39,9.39,0,0,1,.78,1.38c.62,1.24,1.26,2.48,1.91,3.7s1.37,2.56,2.16,3.77a47.08,47.08,0,0,0,4.82,6l.34.36a9.12,9.12,0,0,0,1.78,1.63c.19.12.37.23.55.32a3,3,0,0,0,1.58.35,3.56,3.56,0,0,0,2.46-2l.14-.25A11.13,11.13,0,0,1,27,41.06a12.54,12.54,0,0,1,2.08-1.46c3.82-2.53,5.85-6.91,8.09-10.81a13,13,0,0,0,1.19-2.31C40.57,20,37.05,11.87,30.89,9.06c-1.32-1.66-3.15-3.38-5.44-3.37a9.38,9.38,0,0,0-3.05.81C18.94,7.73,15.21,8.61,11.85,10.21Z"/><path class="cls-69" d="M12,10.24a12.88,12.88,0,0,0-3.42,2.24c-1.67,1.18-2.39,3.54-2.75,6A1.83,1.83,0,0,0,7.17,18c1.55-1.16,3.44-3.74,4.65-4.56A13,13,0,0,1,14.44,12a34.06,34.06,0,0,1,6.61-1.77,10.14,10.14,0,0,1,5.19,0,8.41,8.41,0,0,1,2.23,1.32L29,12c2.35,2,4.47,4.49,4.71,7.56a10.66,10.66,0,0,1-1.06,5,14.24,14.24,0,0,1-5.24,6.46,9,9,0,0,1-5.37,1.44,7.59,7.59,0,0,1-1.76-.33,6.77,6.77,0,0,1-.82-.3,10.72,10.72,0,0,1-1-.52A13.28,13.28,0,0,1,15,28.16a14.88,14.88,0,0,1-1.92-3.07c-2.12-3-4-6.19-4-8.89a4,4,0,0,1,.11-.47,4.45,4.45,0,0,0-3.57,2.54A6,6,0,0,0,5.28,22a11.69,11.69,0,0,0,1.89,4.48c.49.7,1.12,1.23,1.61,1.93a11,11,0,0,1,.78,1.37c.62,1.22,1.25,2.44,1.9,3.65s1.37,2.52,2.15,3.72a46.76,46.76,0,0,0,4.81,5.9l.33.36a9.86,9.86,0,0,0,1.76,1.61c.19.12.37.23.55.32a3.65,3.65,0,0,0,1.56.4c1,.06,1.9-1,2.48-2l.14-.25A10.89,10.89,0,0,1,27,40.89,13.56,13.56,0,0,1,29,39.43c3.8-2.48,5.89-6.78,8.07-10.66a12.8,12.8,0,0,0,1.16-2.31c2.22-6.59-1.33-14.74-7.56-17.54-1.3-1.57-3.08-3.18-5.28-3.15a9.25,9.25,0,0,0-3,.83C19,7.83,15.29,8.66,12,10.24Z"/><path class="cls-70" d="M12.07,10.26A13.26,13.26,0,0,0,8.64,12.5c-1.7,1.22-2.5,3.58-2.9,6A1.91,1.91,0,0,0,7.12,18c1.54-1.17,3.44-3.76,4.63-4.58a14.36,14.36,0,0,1,2.61-1.39A35.9,35.9,0,0,1,21,10.24a10.12,10.12,0,0,1,5.21,0,7.9,7.9,0,0,1,2.24,1.3c.19.15.37.29.55.45,2.38,2,4.53,4.46,4.8,7.52a10.82,10.82,0,0,1-1,5.05,14.4,14.4,0,0,1-5.19,6.54,9.07,9.07,0,0,1-5.38,1.51,7.63,7.63,0,0,1-1.76-.3c-.28-.08-.55-.18-.83-.29a8,8,0,0,1-1-.52,13.49,13.49,0,0,1-3.52-3.18,16.14,16.14,0,0,1-2-3.06c-2.11-3-3.91-6.22-3.86-9a4.37,4.37,0,0,1,.12-.49,4.43,4.43,0,0,0-3.62,2.51A5.88,5.88,0,0,0,5.36,22a11.8,11.8,0,0,0,1.9,4.47c.48.7,1.09,1.23,1.58,1.93a13.82,13.82,0,0,1,.77,1.35c.62,1.2,1.25,2.4,1.9,3.6s1.35,2.49,2.14,3.66a45.84,45.84,0,0,0,4.78,5.81l.33.36a11.32,11.32,0,0,0,1.74,1.59c.19.12.36.23.54.33a3.66,3.66,0,0,0,1.55.44c1,.08,1.92-.93,2.49-1.93l.14-.25a11,11,0,0,1,1.71-2.66A12.42,12.42,0,0,1,29,39.27c3.78-2.45,5.93-6.65,8.06-10.53a13,13,0,0,0,1.13-2.31c2.19-6.66-1.37-14.86-7.68-17.66-1.29-1.47-3-3-5.13-2.93a9.59,9.59,0,0,0-3,.85C19,7.93,15.37,8.72,12.07,10.26Z"/><path class="cls-71" d="M12.18,10.29a13.46,13.46,0,0,0-3.43,2.22C7,13.79,6.13,16.15,5.69,18.6a1.91,1.91,0,0,0,1.38-.52c1.54-1.18,3.43-3.78,4.61-4.59a14,14,0,0,1,2.61-1.39,36.68,36.68,0,0,1,6.59-1.86,10.16,10.16,0,0,1,5.22-.09,8,8,0,0,1,2.25,1.29l.56.44c2.39,2,4.58,4.43,4.87,7.49a10.62,10.62,0,0,1-1,5.07,14.67,14.67,0,0,1-5.12,6.63,9.24,9.24,0,0,1-5.39,1.58,7.76,7.76,0,0,1-1.78-.28c-.28-.08-.55-.17-.83-.28a9.7,9.7,0,0,1-1-.51,13.66,13.66,0,0,1-3.54-3.16,15.69,15.69,0,0,1-2-3.05c-2.12-3-3.87-6.24-3.77-9.07,0-.17.07-.34.11-.52A4.44,4.44,0,0,0,5.8,18.26,5.81,5.81,0,0,0,5.43,22a12.27,12.27,0,0,0,1.91,4.46c.48.69,1.07,1.23,1.55,1.93a11.69,11.69,0,0,1,.76,1.33c.62,1.19,1.26,2.37,1.9,3.55s1.35,2.45,2.13,3.61a45.54,45.54,0,0,0,4.77,5.71l.33.35a11.12,11.12,0,0,0,1.72,1.58l.52.33a3.66,3.66,0,0,0,1.54.49c1,.09,1.94-.9,2.51-1.9a2,2,0,0,0,.14-.25,10.87,10.87,0,0,1,1.69-2.65A11.8,11.8,0,0,1,29,39.11c3.75-2.41,6-6.53,8-10.39a15.22,15.22,0,0,0,1.09-2.31c2.17-6.73-1.41-15-7.8-17.78-1.26-1.38-2.94-2.77-5-2.71a9.3,9.3,0,0,0-2.93.86C19.07,8,15.44,8.77,12.18,10.29Z"/><path class="cls-72" d="M12.29,10.31a13.69,13.69,0,0,0-3.44,2.22c-1.78,1.32-2.73,3.68-3.21,6.15A2,2,0,0,0,7,18.15c1.54-1.19,3.43-3.81,4.6-4.61a14.26,14.26,0,0,1,2.6-1.39,37.23,37.23,0,0,1,6.59-1.91A10.1,10.1,0,0,1,26,10.1a7.9,7.9,0,0,1,2.26,1.27l.56.43c2.41,1.95,4.64,4.4,5,7.46a10.69,10.69,0,0,1-.94,5.09,14.83,14.83,0,0,1-5.07,6.71,9.29,9.29,0,0,1-5.39,1.66,7.82,7.82,0,0,1-1.79-.26,8.09,8.09,0,0,1-.83-.28,8.27,8.27,0,0,1-1-.5,13.27,13.27,0,0,1-3.56-3.13,16.9,16.9,0,0,1-2-3c-2.12-3-3.83-6.27-3.68-9.16a5.23,5.23,0,0,1,.12-.54,4.37,4.37,0,0,0-3.7,2.44A5.66,5.66,0,0,0,5.51,22a12.29,12.29,0,0,0,1.92,4.46c.47.69,1,1.24,1.51,1.93a14,14,0,0,1,.76,1.31c.62,1.17,1.25,2.33,1.89,3.5s1.35,2.41,2.13,3.56a45.23,45.23,0,0,0,4.74,5.61l.33.35a13.16,13.16,0,0,0,1.7,1.56c.17.12.35.24.52.34a3.59,3.59,0,0,0,1.53.53c1,.11,1.95-.87,2.52-1.86L25.2,43a10.8,10.8,0,0,1,1.67-2.65,11.67,11.67,0,0,1,2-1.43c3.74-2.37,6-6.4,8-10.26A13.69,13.69,0,0,0,38,26.39c2.15-6.8-1.45-15.11-7.91-17.91C28.83,7.2,27.21,5.91,25.28,6a9.11,9.11,0,0,0-2.89.88C19.11,8.14,15.52,8.83,12.29,10.31Z"/><path class="cls-73" d="M12.4,10.34A13.62,13.62,0,0,0,9,12.54c-1.82,1.37-2.85,3.73-3.37,6.22A1.92,1.92,0,0,0,7,18.21c1.53-1.2,3.43-3.82,4.58-4.62a14.58,14.58,0,0,1,2.6-1.4,38.9,38.9,0,0,1,6.58-1.95A10.15,10.15,0,0,1,26,10a7.92,7.92,0,0,1,2.27,1.26l.57.43c2.43,1.93,4.7,4.36,5,7.43a10.71,10.71,0,0,1-.91,5.1,14.91,14.91,0,0,1-5,6.79,9.34,9.34,0,0,1-5.4,1.74,8,8,0,0,1-1.8-.24,6.18,6.18,0,0,1-.83-.27,7.6,7.6,0,0,1-1-.49,13.49,13.49,0,0,1-3.59-3.11,16.79,16.79,0,0,1-2.1-3c-2.11-3-3.78-6.3-3.58-9.25a5.59,5.59,0,0,1,.12-.56A4.37,4.37,0,0,0,6,18.24,5.66,5.66,0,0,0,5.58,22a12.71,12.71,0,0,0,1.94,4.45c.46.68,1,1.24,1.47,1.92a14.1,14.1,0,0,1,.75,1.3c.63,1.15,1.26,2.3,1.9,3.44a40.38,40.38,0,0,0,2.12,3.51,43.42,43.42,0,0,0,4.72,5.52l.32.34A14.35,14.35,0,0,0,20.48,44l.51.35a3.12,3.12,0,0,0,1.52.57,3.16,3.16,0,0,0,2.54-1.83c0-.08.09-.16.14-.24a10.74,10.74,0,0,1,1.65-2.65,10.78,10.78,0,0,1,2-1.42c3.71-2.33,6-6.28,8-10.12a13.88,13.88,0,0,0,1-2.3c2.13-6.87-1.49-15.24-8-18C28.65,7.15,27.07,6,25.24,6.08A9.5,9.5,0,0,0,22.38,7C19.15,8.24,15.6,8.88,12.4,10.34Z"/><path class="cls-74" d="M12.51,10.37a13.59,13.59,0,0,0-3.44,2.19,10.68,10.68,0,0,0-3.53,6.28,1.94,1.94,0,0,0,1.37-.56c1.53-1.21,3.42-3.85,4.56-4.64a14.58,14.58,0,0,1,2.6-1.4,40,40,0,0,1,6.56-2A10.14,10.14,0,0,1,25.89,10a8.18,8.18,0,0,1,2.29,1.23l.56.43c2.45,1.91,4.76,4.33,5.13,7.4A10.73,10.73,0,0,1,33,24.18,15,15,0,0,1,28,31a9.29,9.29,0,0,1-5.4,1.81,7.92,7.92,0,0,1-1.81-.21c-.28-.07-.56-.16-.84-.26a10,10,0,0,1-1-.48,13.5,13.5,0,0,1-3.61-3.09,17.71,17.71,0,0,1-2.15-3c-2.11-3-3.74-6.32-3.49-9.35a5.78,5.78,0,0,1,.12-.57A4.33,4.33,0,0,0,6,18.23,5.59,5.59,0,0,0,5.66,22a13,13,0,0,0,2,4.44c.45.67,1,1.24,1.43,1.92.27.41.51.85.75,1.28q.93,1.7,1.89,3.39c.67,1.17,1.34,2.35,2.11,3.46a43.29,43.29,0,0,0,4.7,5.42l.33.34a15,15,0,0,0,1.66,1.53l.49.35a3.16,3.16,0,0,0,1.51.62A3.09,3.09,0,0,0,25,42.93c0-.09.09-.17.13-.25A11.14,11.14,0,0,1,26.81,40a10.23,10.23,0,0,1,2-1.41c3.69-2.29,6.07-6.15,8-10a16,16,0,0,0,1-2.29c2.1-6.94-2.09-14.3-8.15-18.16-1.37-.87-2.73-2.15-4.48-2a9.55,9.55,0,0,0-2.81.92C19.19,8.34,15.67,8.94,12.51,10.37Z"/><path class="cls-75" d="M12.63,10.39a14,14,0,0,0-3.46,2.19,11.12,11.12,0,0,0-3.68,6.34,2,2,0,0,0,1.36-.58c1.53-1.22,3.42-3.86,4.55-4.64A14.22,14.22,0,0,1,14,12.29a40.34,40.34,0,0,1,6.56-2,10.19,10.19,0,0,1,5.27-.31,8.09,8.09,0,0,1,2.3,1.22l.57.43c2.47,1.89,4.81,4.29,5.21,7.36a10.9,10.9,0,0,1-.84,5.15A15.2,15.2,0,0,1,28.16,31a9.35,9.35,0,0,1-5.4,1.89,7.46,7.46,0,0,1-1.82-.19,6.4,6.4,0,0,1-.85-.26A8.21,8.21,0,0,1,19,32a13.53,13.53,0,0,1-3.65-3.06,19.08,19.08,0,0,1-2.19-3c-2.11-3-3.69-6.35-3.4-9.44,0-.2.08-.39.13-.59A4.31,4.31,0,0,0,6.1,18.22,5.45,5.45,0,0,0,5.73,22a13.58,13.58,0,0,0,2,4.44c.45.67,1,1.25,1.4,1.92.27.4.51.83.75,1.26.62,1.11,1.25,2.23,1.89,3.34s1.33,2.31,2.1,3.4a41.54,41.54,0,0,0,4.68,5.33l.32.33a16.78,16.78,0,0,0,1.64,1.52l.49.36a3.12,3.12,0,0,0,1.49.66A3,3,0,0,0,25,42.75c.05-.08.1-.16.14-.24a11.34,11.34,0,0,1,1.62-2.65,10.81,10.81,0,0,1,2-1.39c3.67-2.26,6.12-6,8-9.85a14.79,14.79,0,0,0,1-2.29c2.08-7-2.07-14.52-8.26-18.28-1.32-.8-2.66-2-4.32-1.82a9.63,9.63,0,0,0-2.77.93C19.24,8.44,15.75,9,12.63,10.39Z"/><path class="cls-76" d="M12.74,10.42a14.1,14.1,0,0,0-3.46,2.17A11.62,11.62,0,0,0,5.44,19a2,2,0,0,0,1.36-.59c1.53-1.23,3.42-3.89,4.53-4.66a15.58,15.58,0,0,1,2.59-1.42,43.45,43.45,0,0,1,6.55-2.1,10.13,10.13,0,0,1,5.28-.35,7.83,7.83,0,0,1,2.31,1.2l.57.42c2.49,1.88,4.88,4.26,5.3,7.34A10.81,10.81,0,0,1,33.12,24a15.32,15.32,0,0,1-4.84,7,9.42,9.42,0,0,1-5.41,2A7.58,7.58,0,0,1,21,32.81a6.76,6.76,0,0,1-.85-.24,7.71,7.71,0,0,1-1.06-.46,13.69,13.69,0,0,1-3.67-3,19.44,19.44,0,0,1-2.23-3c-2.11-3-3.66-6.37-3.31-9.53a4.42,4.42,0,0,1,.13-.61,4.28,4.28,0,0,0-3.88,2.28,5.39,5.39,0,0,0-.36,3.73,13.65,13.65,0,0,0,2,4.43c.44.66.93,1.25,1.36,1.91.27.41.5.83.74,1.25.63,1.09,1.25,2.19,1.89,3.29s1.33,2.27,2.09,3.35a42.89,42.89,0,0,0,4.66,5.24l.32.32a20.56,20.56,0,0,0,1.62,1.49l.48.38a3.12,3.12,0,0,0,1.48.7A2.93,2.93,0,0,0,25,42.57l.14-.24a11.55,11.55,0,0,1,1.6-2.64,9.75,9.75,0,0,1,2-1.38c3.64-2.22,6.15-5.9,8-9.72a16,16,0,0,0,.92-2.28c2.06-7.08-2-14.76-8.38-18.41C28,7.17,26.67,6.16,25.11,6.31a9.61,9.61,0,0,0-2.73.94C19.28,8.55,15.83,9,12.74,10.42Z"/><path class="cls-77" d="M12.85,10.45a13.77,13.77,0,0,0-3.46,2.16,12.18,12.18,0,0,0-4,6.47,2,2,0,0,0,1.36-.61c1.52-1.24,3.41-3.91,4.51-4.67a15.89,15.89,0,0,1,2.58-1.42,43.84,43.84,0,0,1,6.55-2.15,10.18,10.18,0,0,1,5.29-.41A8.1,8.1,0,0,1,28,11l.58.42c2.5,1.86,4.93,4.22,5.37,7.3a10.88,10.88,0,0,1-.76,5.18A15.66,15.66,0,0,1,28.4,31a9.52,9.52,0,0,1-5.41,2,7.59,7.59,0,0,1-1.84-.16,8.37,8.37,0,0,1-.86-.23,7.71,7.71,0,0,1-1.06-.46,13.56,13.56,0,0,1-3.7-3,19.86,19.86,0,0,1-2.28-3c-2.11-3-3.61-6.4-3.22-9.62,0-.21.08-.42.13-.63A4.28,4.28,0,0,0,6.24,18.2a5.39,5.39,0,0,0-.36,3.73,14.18,14.18,0,0,0,2,4.42c.43.65.9,1.25,1.32,1.91.26.4.5.81.74,1.23.62,1.08,1.25,2.16,1.88,3.23S13.14,35,13.9,36a41.12,41.12,0,0,0,4.64,5.15l.32.31c.51.51,1,1,1.59,1.48l.48.38a3.19,3.19,0,0,0,1.46.75A2.89,2.89,0,0,0,25,42.4l.14-.24a11.14,11.14,0,0,1,1.58-2.64,9.91,9.91,0,0,1,2-1.37,21.33,21.33,0,0,0,7.94-9.58,15.9,15.9,0,0,0,.88-2.29c2-7.14-2-15-8.49-18.52-1.23-.67-2.52-1.54-4-1.38a9.75,9.75,0,0,0-2.69,1C19.32,8.65,15.91,9.1,12.85,10.45Z"/><path class="cls-78" d="M13,10.47a14.27,14.27,0,0,0-3.47,2.15,12.83,12.83,0,0,0-4.15,6.54,2.1,2.1,0,0,0,1.36-.62c1.51-1.25,3.4-3.93,4.49-4.69a16.23,16.23,0,0,1,2.58-1.42,44,44,0,0,1,6.53-2.2,10.15,10.15,0,0,1,5.3-.46,7.78,7.78,0,0,1,2.34,1.17c.2.13.39.27.58.41,2.53,1.84,5,4.19,5.46,7.27a10.81,10.81,0,0,1-.73,5.2A15.71,15.71,0,0,1,28.53,31a9.72,9.72,0,0,1-5.42,2.12A8.33,8.33,0,0,1,21.25,33a6.42,6.42,0,0,1-.86-.23,8.3,8.3,0,0,1-1.07-.44,13.54,13.54,0,0,1-3.72-3,21,21,0,0,1-2.33-3c-2.11-3-3.57-6.43-3.13-9.72,0-.21.09-.42.14-.64a4.25,4.25,0,0,0-4,2.2A5.25,5.25,0,0,0,6,21.91a14.21,14.21,0,0,0,2,4.42c.41.65.87,1.25,1.28,1.91.26.39.5.8.73,1.2l1.89,3.19c.66,1.11,1.32,2.21,2.08,3.25a41.52,41.52,0,0,0,4.61,5l.32.31c.52.5,1,1,1.58,1.46l.46.39a3.17,3.17,0,0,0,1.46.79A2.85,2.85,0,0,0,25,42.22l.13-.24a12,12,0,0,1,1.57-2.63,9.23,9.23,0,0,1,2-1.36,20.54,20.54,0,0,0,7.91-9.45,15.26,15.26,0,0,0,.86-2.28c2-7.21-2-15.27-8.62-18.65A6.75,6.75,0,0,0,25,6.46a10,10,0,0,0-2.65,1C19.36,8.75,16,9.15,13,10.47Z"/><path class="cls-79" d="M13.07,10.5A13.94,13.94,0,0,0,9.6,12.64a13.29,13.29,0,0,0-4.31,6.6,2.07,2.07,0,0,0,1.35-.64c1.52-1.25,3.41-4,4.48-4.7a17.48,17.48,0,0,1,2.57-1.43,46.83,46.83,0,0,1,6.53-2.24,10.21,10.21,0,0,1,5.31-.52,7.81,7.81,0,0,1,2.35,1.16l.59.41c2.54,1.82,5,4.15,5.54,7.23a10.76,10.76,0,0,1-.7,5.22A15.87,15.87,0,0,1,28.65,31a9.61,9.61,0,0,1-5.42,2.19,7.33,7.33,0,0,1-1.87-.11,6.93,6.93,0,0,1-.87-.22,6.68,6.68,0,0,1-1.07-.44,13.42,13.42,0,0,1-3.76-3,22.6,22.6,0,0,1-2.37-3c-2.1-3-3.52-6.46-3-9.82,0-.22.08-.44.14-.66a4.24,4.24,0,0,0-4,2.17A5.17,5.17,0,0,0,6,21.9a15,15,0,0,0,2,4.41c.41.64.84,1.26,1.25,1.9L10,29.4l1.88,3.14c.66,1.09,1.32,2.17,2.07,3.19a39.24,39.24,0,0,0,4.6,5l.31.3c.52.49,1,1,1.56,1.45q.22.21.45.39a3.24,3.24,0,0,0,1.45.84A2.77,2.77,0,0,0,25,42.05c.05-.08.1-.16.14-.24a11.52,11.52,0,0,1,1.55-2.63,9.17,9.17,0,0,1,2-1.36,19.85,19.85,0,0,0,7.9-9.31,16.61,16.61,0,0,0,.82-2.27A16.58,16.58,0,0,0,28.65,7.46,6.61,6.61,0,0,0,25,6.54a10.12,10.12,0,0,0-2.61,1C19.4,8.85,16.06,9.21,13.07,10.5Z"/><path class="cls-80" d="M13.18,10.53a14.15,14.15,0,0,0-7.94,8.79,2.11,2.11,0,0,0,1.35-.65C8.1,17.4,10,14.7,11.06,14a15.64,15.64,0,0,1,2.56-1.44,50,50,0,0,1,6.52-2.29,10.16,10.16,0,0,1,5.32-.57,8,8,0,0,1,2.36,1.13l.59.41C31,13,33.51,15.32,34,18.41a11,11,0,0,1-.66,5.24A16.07,16.07,0,0,1,28.77,31a9.65,9.65,0,0,1-5.43,2.27,7.34,7.34,0,0,1-1.87-.09,6.63,6.63,0,0,1-.88-.21,8.37,8.37,0,0,1-1.08-.43,13.58,13.58,0,0,1-3.78-2.94,23,23,0,0,1-2.41-2.95c-2.11-3-3.49-6.49-3-9.91,0-.23.09-.45.14-.68a4.23,4.23,0,0,0-4,2.13,5,5,0,0,0-.35,3.7,15.31,15.31,0,0,0,2,4.41c.4.64.81,1.26,1.22,1.9l.72,1.17c.62,1,1.25,2.06,1.88,3.09s1.31,2.14,2.06,3.14a39.6,39.6,0,0,0,4.57,4.86l.32.3,1.53,1.43.45.4a3.15,3.15,0,0,0,1.43.88A2.73,2.73,0,0,0,25,41.87l.14-.24A11.64,11.64,0,0,1,26.64,39a8.77,8.77,0,0,1,2-1.35,19.19,19.19,0,0,0,7.89-9.17,16.43,16.43,0,0,0,.78-2.27c2-7.35-1.87-15.9-8.85-18.9a6.3,6.3,0,0,0-3.5-.7,10.65,10.65,0,0,0-2.57,1C19.45,9,16.13,9.26,13.18,10.53Z"/><path class="cls-81" d="M20.06,10.23a10.21,10.21,0,0,1,5.33-.63,9.4,9.4,0,0,1,3,1.52c2.58,1.79,5.15,4.09,5.71,7.18a11,11,0,0,1-.63,5.26A16.23,16.23,0,0,1,28.89,31a9,9,0,0,1-8.2,2.08,11.93,11.93,0,0,1-4.89-3.34c-3.56-3.63-6.38-8.7-5.17-13.64a4.2,4.2,0,0,0-4.09,2.09c-1.41,2.53.15,5.63,1.68,8.1L12,32.35a36,36,0,0,0,2,3.09,38.06,38.06,0,0,0,4.56,4.77l2.26,2.12a3.3,3.3,0,0,0,1.42.92c1.08.26,2.1-.61,2.67-1.56a14.44,14.44,0,0,1,1.66-2.85,8.22,8.22,0,0,1,2-1.34A18.5,18.5,0,0,0,37.2,26.2c1.92-7.43-1.81-16.25-9-19a6.22,6.22,0,0,0-3.34-.48,11.11,11.11,0,0,0-2.53,1c-2.88,1.34-6.16,1.59-9.08,2.83a14.65,14.65,0,0,0-8.1,8.85C6.67,19.52,9.58,15,11,14,13.47,12.27,17.18,11.1,20.06,10.23Z"/><path d="M22.78,1.3c-13.78.22-25,13.2-21.53,27,1.1,4.38,4,8,6.28,11.87l8.2,13.56,3.73,6.18a16.22,16.22,0,0,0,1.71,2.84c1.71,1.71,3.2-1.41,3.89-2.56,4.69-7.92,9.27-15.93,14.09-23.78,1.51-2.45,3.12-4.69,4-7.5a21.53,21.53,0,0,0-.36-13.69,21.57,21.57,0,0,0-20-13.94c-.29,0-.59.5-.87.5C37.54,2.05,48.25,18.88,40.78,33c-1.52,2.87-3.52,5.65-5.19,8.46L28,54.34l-3.63,6.12a12.52,12.52,0,0,1-1.77,2.71l.87-.5c-2,.51-4.08-4.85-4.86-6.13L10.77,43.63c-1.56-2.59-3-5.25-4.7-7.79-4.06-6.21-6-13-3.41-20.28A20.47,20.47,0,0,1,21.91,1.8C22.21,1.79,22.49,1.3,22.78,1.3Z"/><path d="M22.78,29.67a9.73,9.73,0,0,1-9.5-8.23C12.53,16.11,16.39,11,21.91,11a9.68,9.68,0,0,1,9.44,7.9,9,9,0,0,1-8.57,10.78c-.3,0-.58.49-.87.5A11.14,11.14,0,0,0,31.55,24a9.68,9.68,0,0,0-8.77-13.47,11.06,11.06,0,0,0-9.64,6.21c-2.84,6.4,2,13.23,8.77,13.47C22.2,30.18,22.5,29.66,22.78,29.67Z"/></g></g></g></svg>