<svg xmlns="http://www.w3.org/2000/svg" viewBox="0 0 64.03 62.34"><defs><style>.cls-1{fill:#afafaf;}.cls-2{fill:#b0b0b0;}.cls-3{fill:#b1b1b1;}.cls-4{fill:#b2b2b2;}.cls-5{fill:#b3b3b3;}.cls-6{fill:#b4b4b4;}.cls-7{fill:#b5b5b5;}.cls-8{fill:#b6b6b6;}.cls-9{fill:#b7b7b7;}.cls-10{fill:#b8b8b8;}.cls-11{fill:#b9b9b9;}.cls-12{fill:#bababa;}.cls-13{fill:#bbb;}.cls-14{fill:#bcbcbc;}.cls-15{fill:#bdbdbd;}.cls-16{fill:#bebebe;}.cls-17{fill:#bfbfbf;}.cls-18{fill:silver;}.cls-19{fill:#c1c1c1;}.cls-20{fill:#c2c2c2;}.cls-21{fill:#c3c3c3;}.cls-22{fill:#c4c4c4;}.cls-23{fill:#c5c5c5;}.cls-24{fill:#c6c6c6;}.cls-25{fill:#c7c7c7;}.cls-26{fill:#c8c8c8;}.cls-27{fill:#c9c9c9;}.cls-28{fill:#cacaca;}.cls-29{fill:#cbcbcb;}.cls-30{fill:#ccc;}.cls-31{fill:#cdcdcd;}.cls-32{fill:#cecece;}.cls-33{fill:#cfcfcf;}.cls-34{fill:#d0d0d0;}.cls-35{fill:#d1d1d1;}.cls-36{fill:#d2d2d2;}.cls-37{fill:#d3d3d3;}.cls-38{fill:#d4d4d4;}.cls-39{fill:#d5d5d5;}.cls-40{fill:#d6d6d6;}.cls-41{fill:#d7d7d7;}.cls-42{fill:#d8d8d8;}.cls-43{fill:#d9d9d9;}.cls-44{fill:#dadada;}.cls-45{fill:#dbdbdb;}.cls-46{fill:#dcdcdc;}.cls-47{fill:#ddd;}.cls-48{fill:#dedede;}.cls-49{fill:#dfdfdf;}.cls-50{fill:#e0e0e0;}.cls-51{fill:#e1e1e1;}.cls-52{fill:#e2e2e2;}.cls-53{fill:#e3e3e3;}.cls-54{fill:#e4e4e4;}.cls-55{fill:#e5e5e5;}.cls-56{fill:#e6e6e6;}.cls-57{fill:#e7e7e7;}.cls-58{fill:#e8e8e8;}.cls-59{fill:#e9e9e9;}.cls-60{fill:#eaeaea;}.cls-61{fill:#ebebeb;}.cls-62{fill:#ececec;}.cls-63{fill:#ededed;}.cls-64{fill:#eee;}.cls-65{fill:#efefef;}.cls-66{fill:#f0f0f0;}.cls-67{fill:#f1f1f1;}.cls-68{fill:#f2f2f2;}.cls-69{fill:#f3f3f3;}.cls-70{fill:#f4f4f4;}.cls-71{fill:#f5f5f5;}.cls-72{fill:#f6f6f6;}.cls-73{fill:#f7f7f7;}.cls-74{fill:#f8f8f8;}.cls-75{fill:#f9f9f9;}.cls-76{fill:#fafafa;}.cls-77{fill:#fbfbfb;}.cls-78{fill:#fcfcfc;}.cls-79{fill:#fdfdfd;}.cls-80{fill:#fefefe;}.cls-81{fill:#fff;}.cls-82{fill:none;stroke:#000;stroke-linecap:round;stroke-linejoin:round;stroke-width:0.25px;}</style></defs><title>Opening</title><g id="Layer_2" data-name="Layer 2"><g id="All"><g id="Clock"><path class="cls-1" d="M51.39,56.48A48.06,48.06,0,0,1,31,61.08C20,60.83,9.18,55.15,3.74,46.13S-1.25,25,5.41,16.76c3.25-4,7.7-7,11.19-10.86,1.62-1.77,3.1-3.78,5.32-4.81A11.73,11.73,0,0,1,25.39.21C35.19-1,44.75,3.31,53.34,8,67.53,15.61,67.3,49.4,51.39,56.48Z"/><path class="cls-2" d="M16.6,6A33.68,33.68,0,0,1,20,2.44a8.81,8.81,0,0,1,2-1.26A11.84,11.84,0,0,1,25.48.31,32.07,32.07,0,0,1,38.36,1.55a75.18,75.18,0,0,1,14.92,6.5C64.59,14.19,66.72,36.93,59,49.4a20,20,0,0,1-3.15,3.94,15.78,15.78,0,0,1-4.45,3A64.81,64.81,0,0,1,44.33,59a46.11,46.11,0,0,1-6.43,1.5A37.45,37.45,0,0,1,31,61a34,34,0,0,1-7.52-1c-8.1-2-15.4-7-19.58-13.84A26.46,26.46,0,0,1,.35,28.81a24.55,24.55,0,0,1,5.1-12A34.43,34.43,0,0,1,9,13.06C11.56,10.71,14.28,8.52,16.6,6Z"/><path class="cls-3" d="M16.59,6.06a33.17,33.17,0,0,1,3.47-3.54,8.86,8.86,0,0,1,2-1.24A11.73,11.73,0,0,1,25.57.41,32.51,32.51,0,0,1,38.39,1.66,75.55,75.55,0,0,1,53.22,8.15C64.47,14.3,66.62,36.87,59,49.29a19.22,19.22,0,0,1-3.12,3.93,15.73,15.73,0,0,1-4.43,3,71.45,71.45,0,0,1-7.09,2.72,48.49,48.49,0,0,1-6.43,1.53A37.57,37.57,0,0,1,31,61a33.63,33.63,0,0,1-7.48-1C15.43,57.86,8.16,53,4,46.14A26.23,26.23,0,0,1,.43,28.87a24.55,24.55,0,0,1,5.06-12,33.46,33.46,0,0,1,3.57-3.77C11.59,10.79,14.28,8.59,16.59,6.06Z"/><path class="cls-4" d="M16.59,6.13A31.54,31.54,0,0,1,20.1,2.61a9.44,9.44,0,0,1,2-1.24A12.22,12.22,0,0,1,25.67.51,32.3,32.3,0,0,1,38.41,1.77,74.24,74.24,0,0,1,53.15,8.25C64.35,14.4,66.52,36.8,59,49.19a19,19,0,0,1-3.11,3.91A15.19,15.19,0,0,1,51.46,56a71.65,71.65,0,0,1-7.09,2.75,45.65,45.65,0,0,1-6.43,1.56,36.78,36.78,0,0,1-7,.53,33.45,33.45,0,0,1-7.45-1c-8-2.05-15.25-6.91-19.42-13.69A26.2,26.2,0,0,1,.51,28.92,24.5,24.5,0,0,1,5.53,17a32.49,32.49,0,0,1,3.56-3.77C11.61,10.88,14.28,8.66,16.59,6.13Z"/><path class="cls-5" d="M16.58,6.21a31.21,31.21,0,0,1,3.57-3.52,9.89,9.89,0,0,1,2-1.23A12.74,12.74,0,0,1,25.76.61,32.38,32.38,0,0,1,38.44,1.89,73.66,73.66,0,0,1,53.09,8.35C64.23,14.51,66.42,36.74,59,49.08A18.53,18.53,0,0,1,55.88,53a15.42,15.42,0,0,1-4.4,2.92c-2.32,1-4.67,2-7.08,2.78A47.31,47.31,0,0,1,38,60.27a36,36,0,0,1-7,.55,33.12,33.12,0,0,1-7.41-1.06c-8-2-15.18-6.87-19.34-13.61A26,26,0,0,1,.59,29a24.66,24.66,0,0,1,5-11.93,33.19,33.19,0,0,1,3.55-3.76C11.64,11,14.27,8.73,16.58,6.21Z"/><path class="cls-6" d="M16.58,6.29a28.48,28.48,0,0,1,3.61-3.51,9.83,9.83,0,0,1,2-1.22A12.6,12.6,0,0,1,25.85.71,32.22,32.22,0,0,1,38.46,2,72.17,72.17,0,0,1,53,8.46C64.11,14.61,66.32,36.68,58.94,49a18.8,18.8,0,0,1-3,3.88,14.94,14.94,0,0,1-4.39,2.89c-2.33,1-4.66,2-7.08,2.81A44.17,44.17,0,0,1,38,60.18a34.79,34.79,0,0,1-7,.57,32.77,32.77,0,0,1-7.37-1.06c-7.93-2-15.11-6.83-19.27-13.53A26,26,0,0,1,.67,29,24.53,24.53,0,0,1,5.6,17.13a31.5,31.5,0,0,1,3.54-3.76C11.66,11.05,14.27,8.8,16.58,6.29Z"/><path class="cls-7" d="M16.57,6.37a28.08,28.08,0,0,1,3.66-3.5,9.79,9.79,0,0,1,2.08-1.22A12.78,12.78,0,0,1,25.94.82,32.11,32.11,0,0,1,38.49,2.11,72.77,72.77,0,0,1,53,8.56c11,6.16,13.25,28.06,6,40.31a18.08,18.08,0,0,1-3,3.87,14.83,14.83,0,0,1-4.36,2.86c-2.34,1-4.67,2-7.08,2.85A46,46,0,0,1,38,60.09a33.4,33.4,0,0,1-7,.59,32.43,32.43,0,0,1-7.34-1.06c-7.89-2-15-6.81-19.2-13.46A25.94,25.94,0,0,1,.74,29.1a24.72,24.72,0,0,1,4.9-11.9,31.37,31.37,0,0,1,3.53-3.76C11.68,11.13,14.27,8.87,16.57,6.37Z"/><path class="cls-8" d="M16.57,6.44A27.08,27.08,0,0,1,20.27,3a10.62,10.62,0,0,1,2.1-1.21A13,13,0,0,1,26,.92,32.12,32.12,0,0,1,38.51,2.23a71.22,71.22,0,0,1,14.4,6.43c11,6.17,13.21,27.9,6,40.1a17.59,17.59,0,0,1-3,3.85,14.75,14.75,0,0,1-4.35,2.85c-2.34,1-4.67,2-7.08,2.87A44.49,44.49,0,0,1,38,60a33.45,33.45,0,0,1-7,.61,32.67,32.67,0,0,1-7.3-1.07c-7.85-2-14.95-6.79-19.12-13.39a25.85,25.85,0,0,1-3.79-17A24.67,24.67,0,0,1,5.68,17.27a30.38,30.38,0,0,1,3.51-3.75C11.71,11.21,14.26,8.94,16.57,6.44Z"/><path class="cls-9" d="M16.56,6.52A25.2,25.2,0,0,1,20.32,3a10.47,10.47,0,0,1,2.12-1.2A13.1,13.1,0,0,1,26.13,1,32,32,0,0,1,38.54,2.34,71.24,71.24,0,0,1,52.85,8.76c10.91,6.17,13.17,27.73,6,39.9a17.14,17.14,0,0,1-3,3.83,14.44,14.44,0,0,1-4.33,2.82c-2.35,1-4.67,2.06-7.07,2.91a44.34,44.34,0,0,1-6.45,1.7,32.26,32.26,0,0,1-7,.63,32.23,32.23,0,0,1-7.26-1.07c-7.81-2-14.87-6.76-19-13.31a25.8,25.8,0,0,1-3.83-17A24.71,24.71,0,0,1,5.72,17.34a30.21,30.21,0,0,1,3.5-3.74C11.73,11.3,14.26,9,16.56,6.52Z"/><path class="cls-10" d="M16.56,6.6a25,25,0,0,1,3.8-3.48A11.4,11.4,0,0,1,22.5,1.93a13.73,13.73,0,0,1,3.72-.81A32.19,32.19,0,0,1,38.56,2.45,70.3,70.3,0,0,1,52.79,8.86C63.64,15,65.92,36.43,58.87,48.55a16.74,16.74,0,0,1-3,3.82,14.32,14.32,0,0,1-4.31,2.79c-2.36,1-4.68,2.08-7.08,2.94a43.23,43.23,0,0,1-6.45,1.74,32.31,32.31,0,0,1-7,.65,32.15,32.15,0,0,1-7.23-1.08C16.06,57.35,9,52.68,4.86,46.17A25.58,25.58,0,0,1,1,29.28,24.62,24.62,0,0,1,5.76,17.42a28.82,28.82,0,0,1,3.49-3.75C11.76,11.38,14.26,9.08,16.56,6.6Z"/><path class="cls-11" d="M16.56,6.67A23.7,23.7,0,0,1,20.4,3.21,11,11,0,0,1,22.56,2a13.3,13.3,0,0,1,3.75-.81A31.92,31.92,0,0,1,38.59,2.57,69.49,69.49,0,0,1,52.73,9c10.79,6.18,13.09,27.41,6.12,39.49a16.45,16.45,0,0,1-2.93,3.8A14.06,14.06,0,0,1,51.62,55c-2.37,1-4.67,2.11-7.07,3a43.09,43.09,0,0,1-6.46,1.76,31.8,31.8,0,0,1-7,.67,32.38,32.38,0,0,1-7.19-1.08C16.15,57.28,9.15,52.64,5,46.18A25.52,25.52,0,0,1,1.06,29.34,24.57,24.57,0,0,1,5.8,17.49a28.59,28.59,0,0,1,3.47-3.74C11.78,11.46,14.25,9.15,16.56,6.67Z"/><path class="cls-12" d="M16.55,6.75A23.45,23.45,0,0,1,20.44,3.3a11.23,11.23,0,0,1,2.19-1.18,13.7,13.7,0,0,1,3.77-.8A32.11,32.11,0,0,1,38.61,2.68,68.59,68.59,0,0,1,52.67,9.07c10.74,6.16,13,27.24,6.16,39.27a15.85,15.85,0,0,1-2.91,3.79,14,14,0,0,1-4.28,2.74c-2.37,1-4.67,2.12-7.07,3a43.09,43.09,0,0,1-6.45,1.8,30.83,30.83,0,0,1-7,.68,30.85,30.85,0,0,1-7.15-1.09c-7.68-2-14.64-6.66-18.81-13.08a25.43,25.43,0,0,1-4-16.78,24.65,24.65,0,0,1,4.7-11.84A27.17,27.17,0,0,1,9.3,13.83C11.81,11.55,14.25,9.22,16.55,6.75Z"/><path class="cls-13" d="M16.55,6.83a22.21,22.21,0,0,1,3.94-3.45,11.84,11.84,0,0,1,2.2-1.17,14.45,14.45,0,0,1,3.8-.79A32,32,0,0,1,38.64,2.79a67.75,67.75,0,0,1,14,6.38c10.69,6.16,13,27.08,6.21,39.07A15.83,15.83,0,0,1,55.93,52a14,14,0,0,1-4.26,2.71c-2.38,1-4.68,2.14-7.07,3a43.62,43.62,0,0,1-6.46,1.82,30.88,30.88,0,0,1-7.06.71A31.15,31.15,0,0,1,24,59.19c-7.64-2-14.57-6.63-18.74-13a25.31,25.31,0,0,1-4-16.73A24.64,24.64,0,0,1,5.87,17.64,26.68,26.68,0,0,1,9.33,13.9C11.83,11.63,14.25,9.29,16.55,6.83Z"/><path class="cls-14" d="M16.54,6.91a22,22,0,0,1,4-3.44,11.49,11.49,0,0,1,2.23-1.16,13.73,13.73,0,0,1,3.83-.78A31.41,31.41,0,0,1,38.66,2.91,66.8,66.8,0,0,1,52.54,9.27c10.64,6.16,13,26.91,6.25,38.86a15.47,15.47,0,0,1-2.85,3.76,13.9,13.9,0,0,1-4.25,2.68c-2.39,1-4.68,2.16-7.07,3.07a41.92,41.92,0,0,1-6.46,1.86,29.86,29.86,0,0,1-7.06.72A30.73,30.73,0,0,1,24,59.12c-7.6-2.06-14.5-6.6-18.66-12.93A25.17,25.17,0,0,1,1.3,29.52,24.69,24.69,0,0,1,5.91,17.71,27.08,27.08,0,0,1,9.35,14Q13.1,10.58,16.54,6.91Z"/><path class="cls-15" d="M16.54,7a21.43,21.43,0,0,1,4-3.42A12.58,12.58,0,0,1,22.82,2.4a14.3,14.3,0,0,1,3.86-.77A31.69,31.69,0,0,1,38.69,3,66.05,66.05,0,0,1,52.48,9.37C63.06,15.54,65.42,36.12,58.78,48a15.08,15.08,0,0,1-2.84,3.74,13.75,13.75,0,0,1-4.23,2.66c-2.39,1-4.67,2.17-7.07,3.1a41.66,41.66,0,0,1-6.46,1.88,28.89,28.89,0,0,1-7.07.74,30.39,30.39,0,0,1-7-1.1C16.51,57,9.65,52.48,5.48,46.2a25.1,25.1,0,0,1-4.1-16.62A24.67,24.67,0,0,1,6,17.78a25.79,25.79,0,0,1,3.43-3.72C11.88,11.8,14.24,9.43,16.54,7Z"/><path class="cls-16" d="M16.53,7.06a20.82,20.82,0,0,1,4.09-3.42,12.08,12.08,0,0,1,2.27-1.15,14.91,14.91,0,0,1,3.88-.76,31.54,31.54,0,0,1,11.94,1.4A66.17,66.17,0,0,1,52.42,9.47c10.52,6.17,12.9,26.59,6.34,38.45A15.11,15.11,0,0,1,56,51.65a13.57,13.57,0,0,1-4.21,2.63c-2.41,1-4.68,2.19-7.07,3.14a42.2,42.2,0,0,1-6.47,1.91,29.43,29.43,0,0,1-7.08.76,30.77,30.77,0,0,1-7-1.11C16.6,56.92,9.77,52.44,5.61,46.2A25,25,0,0,1,1.46,29.64,24.54,24.54,0,0,1,6,17.86a25.24,25.24,0,0,1,3.42-3.73C11.9,11.88,14.24,9.5,16.53,7.06Z"/><path class="cls-17" d="M16.53,7.14a20.32,20.32,0,0,1,4.13-3.41A11.93,11.93,0,0,1,23,2.59a14.73,14.73,0,0,1,3.91-.76A31.64,31.64,0,0,1,38.74,3.25,65.11,65.11,0,0,1,52.36,9.57C62.82,15.75,65.22,36,58.74,47.82A14.46,14.46,0,0,1,56,51.53a13.28,13.28,0,0,1-4.19,2.6c-2.41,1-4.68,2.21-7.07,3.17a40.57,40.57,0,0,1-6.47,1.94,28.09,28.09,0,0,1-7.09.78,30.43,30.43,0,0,1-7-1.11C16.69,56.85,9.89,52.4,5.73,46.21a25,25,0,0,1-4.2-16.52A24.64,24.64,0,0,1,6,17.93a25.08,25.08,0,0,1,3.4-3.72C11.93,12,14.24,9.57,16.53,7.14Z"/><path class="cls-18" d="M16.52,7.22A20,20,0,0,1,20.7,3.81,13,13,0,0,1,23,2.68,15.42,15.42,0,0,1,27,1.93a31.43,31.43,0,0,1,11.8,1.43A64.25,64.25,0,0,1,52.3,9.68c10.4,6.17,12.82,26.26,6.42,38A14.3,14.3,0,0,1,56,51.41,13.47,13.47,0,0,1,51.78,54c-2.41,1-4.68,2.22-7.06,3.2a41,41,0,0,1-6.47,2,28.27,28.27,0,0,1-7.11.81,30.66,30.66,0,0,1-6.93-1.12C16.78,56.77,10,52.36,5.86,46.21A24.43,24.43,0,0,1,6.07,18a24.41,24.41,0,0,1,3.39-3.71C12,12.05,14.23,9.64,16.52,7.22Z"/><path class="cls-19" d="M16.52,7.29A19.82,19.82,0,0,1,20.74,3.9a12.91,12.91,0,0,1,2.34-1.12,15.16,15.16,0,0,1,4-.75A31.53,31.53,0,0,1,38.79,3.47,63.51,63.51,0,0,1,52.24,9.78C62.59,16,65,35.88,58.7,47.61A14.1,14.1,0,0,1,56,51.29a13.22,13.22,0,0,1-4.16,2.55c-2.43,1-4.68,2.24-7.07,3.23a39.75,39.75,0,0,1-6.47,2,27.51,27.51,0,0,1-7.12.82,29.7,29.7,0,0,1-6.89-1.13C16.87,56.7,10.14,52.32,6,46.21a24.34,24.34,0,0,1,.13-28.13,24,24,0,0,1,3.38-3.72C12,12.13,14.23,9.71,16.52,7.29Z"/><path class="cls-20" d="M16.51,7.37A19.27,19.27,0,0,1,20.79,4a13.37,13.37,0,0,1,2.35-1.12,15.44,15.44,0,0,1,4-.74A31.36,31.36,0,0,1,38.81,3.59,62.6,62.6,0,0,1,52.18,9.88c10.29,6.18,12.74,25.93,6.51,37.62A13.85,13.85,0,0,1,56,51.17a12.94,12.94,0,0,1-4.14,2.52c-2.43,1-4.68,2.26-7.06,3.27a39.92,39.92,0,0,1-6.48,2,26.69,26.69,0,0,1-7.12.84,29.45,29.45,0,0,1-6.86-1.13C17,56.63,10.26,52.27,6.1,46.22a24.27,24.27,0,0,1,.05-28.07,23.76,23.76,0,0,1,3.36-3.71C12,12.22,14.23,9.78,16.51,7.37Z"/><path class="cls-21" d="M16.51,7.45a19,19,0,0,1,4.32-3.38A14.39,14.39,0,0,1,23.21,3a15.49,15.49,0,0,1,4-.72A31.28,31.28,0,0,1,38.84,3.7,62.81,62.81,0,0,1,52.12,10c10.23,6.18,12.7,25.77,6.55,37.42A13.59,13.59,0,0,1,56,51.05a13,13,0,0,1-4.13,2.5c-2.44,1-4.68,2.28-7.06,3.29a39.09,39.09,0,0,1-6.48,2.06,26.73,26.73,0,0,1-7.13.86,29.21,29.21,0,0,1-6.83-1.14c-7.3-2.06-14-6.39-18.12-12.4a24.2,24.2,0,0,1-.05-28,23.25,23.25,0,0,1,3.36-3.7C12,12.3,14.23,9.85,16.51,7.45Z"/><path class="cls-22" d="M16.5,7.52a18.87,18.87,0,0,1,4.37-3.36,14.13,14.13,0,0,1,2.4-1.1,15.38,15.38,0,0,1,4.05-.72A31.1,31.1,0,0,1,38.86,3.81a61.93,61.93,0,0,1,13.2,6.27c10.17,6.19,12.66,25.61,6.59,37.21A13.29,13.29,0,0,1,56,50.93a13,13,0,0,1-4.11,2.47c-2.45,1-4.69,2.3-7.06,3.33a39.91,39.91,0,0,1-6.49,2.08,26,26,0,0,1-7.14.88,28.88,28.88,0,0,1-6.79-1.14,33,33,0,0,1-18-12.32A24.37,24.37,0,0,1,1.93,30,24.62,24.62,0,0,1,6.22,18.3a22.79,22.79,0,0,1,3.35-3.71C12.05,12.38,14.22,9.92,16.5,7.52Z"/><path class="cls-23" d="M16.5,7.6a18.61,18.61,0,0,1,4.41-3.36,15.54,15.54,0,0,1,2.42-1.09,16.09,16.09,0,0,1,4.09-.71A31.18,31.18,0,0,1,38.89,3.92,61.38,61.38,0,0,1,52,10.18c10.12,6.19,12.63,25.45,6.64,37a11.55,11.55,0,0,1-6.73,6.06c-2.46,1-4.68,2.32-7.06,3.36a39,39,0,0,1-6.48,2.12,26.19,26.19,0,0,1-7.16.9,29.17,29.17,0,0,1-6.75-1.15c-7.22-2.07-13.82-6.33-18-12.25A24.22,24.22,0,0,1,2,30.05,24.67,24.67,0,0,1,6.26,18.37a22.2,22.2,0,0,1,3.33-3.7C12.07,12.47,14.22,10,16.5,7.6Z"/><path class="cls-24" d="M16.5,7.68A17.93,17.93,0,0,1,21,4.33,15,15,0,0,1,23.4,3.24a16.61,16.61,0,0,1,4.11-.7A31,31,0,0,1,38.91,4a60,60,0,0,1,13,6.25C62,16.48,64.54,35.58,58.61,47.08A12.6,12.6,0,0,1,56,50.69a12.68,12.68,0,0,1-4.08,2.42c-2.46,1-4.68,2.33-7.06,3.39a39,39,0,0,1-6.48,2.14,25.48,25.48,0,0,1-7.17.92,28.75,28.75,0,0,1-6.71-1.15c-7.18-2.07-13.75-6.3-17.9-12.17A24.15,24.15,0,0,1,2.09,30.11,24.61,24.61,0,0,1,6.3,18.44a21.28,21.28,0,0,1,3.32-3.69C12.1,12.55,14.22,10.06,16.5,7.68Z"/><path class="cls-25" d="M16.49,7.76A17.6,17.6,0,0,1,21,4.42a14.67,14.67,0,0,1,2.46-1.08,16.1,16.1,0,0,1,4.14-.7A30.9,30.9,0,0,1,38.94,4.15a60,60,0,0,1,12.93,6.24c10,6.19,12.58,25.13,6.73,36.59A12.63,12.63,0,0,1,56,50.57,12.62,12.62,0,0,1,52,53c-2.47.95-4.69,2.35-7.06,3.42a38.08,38.08,0,0,1-6.49,2.18,25.19,25.19,0,0,1-7.18.93,27.91,27.91,0,0,1-6.67-1.15c-7.14-2.07-13.68-6.27-17.82-12.1A24,24,0,0,1,2.17,30.17,24.66,24.66,0,0,1,6.34,18.52a21.29,21.29,0,0,1,3.31-3.7C12.12,12.63,14.21,10.14,16.49,7.76Z"/><path class="cls-26" d="M16.49,7.83A17.42,17.42,0,0,1,21,4.5a16.82,16.82,0,0,1,2.49-1.07,16.61,16.61,0,0,1,4.16-.69A31,31,0,0,1,39,4.26a59.15,59.15,0,0,1,12.85,6.23c9.95,6.19,12.54,25,6.77,36.38A12.15,12.15,0,0,1,56,50.45a12.34,12.34,0,0,1-4,2.36c-2.48.95-4.69,2.37-7.06,3.46a38.73,38.73,0,0,1-6.49,2.2,24.89,24.89,0,0,1-7.19,1,28.1,28.1,0,0,1-6.63-1.16,33.29,33.29,0,0,1-17.75-12,24,24,0,0,1-4.6-16A24.61,24.61,0,0,1,6.38,18.59,21.12,21.12,0,0,1,9.67,14.9C12.15,12.72,14.21,10.21,16.49,7.83Z"/><path class="cls-27" d="M16.48,7.91a17.34,17.34,0,0,1,4.6-3.32,16.43,16.43,0,0,1,2.51-1.06,16.92,16.92,0,0,1,4.19-.69A30.87,30.87,0,0,1,39,4.38a58.41,58.41,0,0,1,12.76,6.21c9.89,6.2,12.5,24.8,6.81,36.18A12,12,0,0,1,56,50.33a12.53,12.53,0,0,1-4,2.34c-2.48.94-4.69,2.38-7.05,3.49a38.93,38.93,0,0,1-6.5,2.23,24.61,24.61,0,0,1-7.19,1,28,28,0,0,1-6.61-1.17C17.59,56.12,11.12,52,7,46.25a23.84,23.84,0,0,1-4.66-16,24.71,24.71,0,0,1,4.1-11.63A20.27,20.27,0,0,1,9.7,15C12.17,12.8,14.21,10.28,16.48,7.91Z"/><path class="cls-28" d="M16.48,8a16.66,16.66,0,0,1,4.65-3.31,16.54,16.54,0,0,1,2.52-1.06A16.75,16.75,0,0,1,27.88,3,30.66,30.66,0,0,1,39,4.49a58.47,58.47,0,0,1,12.68,6.2c9.83,6.2,12.46,24.64,6.85,36A11.64,11.64,0,0,1,56,50.21a12.25,12.25,0,0,1-4,2.31c-2.49.94-4.68,2.4-7,3.52a37.84,37.84,0,0,1-6.5,2.26,24.32,24.32,0,0,1-7.2,1,28.15,28.15,0,0,1-6.57-1.18A33.39,33.39,0,0,1,7.1,46.25a23.74,23.74,0,0,1-4.7-15.9A24.69,24.69,0,0,1,6.46,18.74a20,20,0,0,1,3.27-3.69C12.2,12.89,14.21,10.35,16.48,8Z"/><path class="cls-29" d="M16.47,8.07a16.83,16.83,0,0,1,4.7-3.31,17.48,17.48,0,0,1,2.55-1A17.28,17.28,0,0,1,28,3.05,30.56,30.56,0,0,1,39,4.6a57.57,57.57,0,0,1,12.59,6.2C61.4,17,64.05,35.27,58.52,46.56A11.47,11.47,0,0,1,56,50.09a12.08,12.08,0,0,1-4,2.28c-2.5.94-4.69,2.42-7,3.56a37.36,37.36,0,0,1-6.5,2.28,23.83,23.83,0,0,1-7.22,1,27.32,27.32,0,0,1-6.53-1.18c-7-2.07-13.38-6.14-17.51-11.79A23.66,23.66,0,0,1,2.48,30.4a24.61,24.61,0,0,1,4-11.59,20.21,20.21,0,0,1,3.26-3.68C12.22,13,14.2,10.42,16.47,8.07Z"/><path class="cls-30" d="M16.47,8.14a16.6,16.6,0,0,1,4.74-3.29,17,17,0,0,1,2.57-1,17.6,17.6,0,0,1,4.28-.66,30.17,30.17,0,0,1,11,1.57A56.69,56.69,0,0,1,51.57,10.9C61.29,17.1,64,35.21,58.5,46.45A11.22,11.22,0,0,1,56,50a12.27,12.27,0,0,1-4,2.26c-2.51.93-4.69,2.43-7.05,3.58a37.19,37.19,0,0,1-6.5,2.32,23.6,23.6,0,0,1-7.23,1A27,27,0,0,1,24.79,58,33.58,33.58,0,0,1,7.35,46.26a23.57,23.57,0,0,1-4.79-15.8,24.7,24.7,0,0,1,4-11.58,19.77,19.77,0,0,1,3.25-3.67C12.24,13.05,14.2,10.49,16.47,8.14Z"/><path class="cls-31" d="M16.46,8.22a16.55,16.55,0,0,1,4.8-3.29,19.14,19.14,0,0,1,2.59-1,17.27,17.27,0,0,1,4.3-.65A30.31,30.31,0,0,1,39.09,4.83,56.22,56.22,0,0,1,51.51,11c9.66,6.21,12.34,24.15,7,35.35A11.22,11.22,0,0,1,56,49.85a12,12,0,0,1-4,2.23c-2.51.93-4.69,2.45-7,3.62A37.36,37.36,0,0,1,38.53,58a23.34,23.34,0,0,1-7.24,1.06,27.09,27.09,0,0,1-6.45-1.19A33.78,33.78,0,0,1,7.47,46.27,23.51,23.51,0,0,1,2.64,30.52,24.57,24.57,0,0,1,6.57,19a19.43,19.43,0,0,1,3.24-3.68C12.27,13.14,14.2,10.56,16.46,8.22Z"/><path class="cls-32" d="M16.46,8.3A16.18,16.18,0,0,1,21.3,5a18.64,18.64,0,0,1,2.61-1,18.06,18.06,0,0,1,4.34-.64A30.33,30.33,0,0,1,39.11,4.94,55.53,55.53,0,0,1,51.44,11.1c9.61,6.21,12.31,24,7,35.14a10.82,10.82,0,0,1-2.42,3.49,12,12,0,0,1-3.94,2.2c-2.53.93-4.69,2.48-7,3.65A36.9,36.9,0,0,1,38.55,58,23.08,23.08,0,0,1,31.3,59a26.28,26.28,0,0,1-6.41-1.19A33.82,33.82,0,0,1,7.6,46.27,23.31,23.31,0,0,1,2.72,30.58,24.66,24.66,0,0,1,6.61,19a18.64,18.64,0,0,1,3.22-3.67C12.29,13.22,14.2,10.63,16.46,8.3Z"/><path class="cls-33" d="M16.45,8.37a16.29,16.29,0,0,1,4.89-3.26,17.4,17.4,0,0,1,2.64-1,18.15,18.15,0,0,1,4.36-.64,30.24,30.24,0,0,1,10.8,1.61A55,55,0,0,1,51.38,11.2C60.93,17.42,63.65,35,58.45,46.14a10.61,10.61,0,0,1-2.39,3.47,11.94,11.94,0,0,1-3.93,2.18c-2.53.92-4.69,2.49-7,3.68a36.57,36.57,0,0,1-6.52,2.4A22.3,22.3,0,0,1,31.32,59a26.21,26.21,0,0,1-6.39-1.19A34,34,0,0,1,7.72,46.28,23.29,23.29,0,0,1,2.8,30.64,24.6,24.6,0,0,1,6.65,19.1a18.25,18.25,0,0,1,3.21-3.66C12.32,13.3,14.2,10.7,16.45,8.37Z"/><path class="cls-34" d="M16.45,8.45a16,16,0,0,1,4.93-3.26,19.22,19.22,0,0,1,2.66-1,18.46,18.46,0,0,1,4.39-.63A30.06,30.06,0,0,1,39.16,5.17,54.62,54.62,0,0,1,51.32,11.3C60.81,17.52,63.55,35,58.43,46a10.26,10.26,0,0,1-2.37,3.46,11.58,11.58,0,0,1-3.91,2.15c-2.53.92-4.69,2.51-7,3.71a35.66,35.66,0,0,1-6.52,2.44,22.61,22.61,0,0,1-7.26,1.11A25.84,25.84,0,0,1,25,57.69,33.9,33.9,0,0,1,7.85,46.28a23.19,23.19,0,0,1-5-15.58A24.62,24.62,0,0,1,6.69,19.18a18.22,18.22,0,0,1,3.19-3.67C12.34,13.39,14.19,10.77,16.45,8.45Z"/><path class="cls-35" d="M16.44,8.53a15.92,15.92,0,0,1,5-3.25,19.35,19.35,0,0,1,2.67-1,19.31,19.31,0,0,1,4.42-.62A30.18,30.18,0,0,1,39.19,5.28a53.56,53.56,0,0,1,12.07,6.13c9.43,6.22,12.19,23.49,7.15,34.52a10.1,10.1,0,0,1-2.34,3.44,11.6,11.6,0,0,1-3.89,2.12c-2.55.92-4.7,2.53-7,3.75a35.35,35.35,0,0,1-6.51,2.46,22.25,22.25,0,0,1-7.28,1.13A25.53,25.53,0,0,1,25,57.62,34.12,34.12,0,0,1,8,46.29,23.08,23.08,0,0,1,3,30.76,24.6,24.6,0,0,1,6.73,19.25a17.81,17.81,0,0,1,3.18-3.66C12.37,13.47,14.19,10.84,16.44,8.53Z"/><path class="cls-36" d="M16.44,8.61a15.7,15.7,0,0,1,5-3.25,19.69,19.69,0,0,1,2.7-1,17.87,17.87,0,0,1,4.44-.61A29.59,29.59,0,0,1,39.21,5.4a52.72,52.72,0,0,1,12,6.11c9.38,6.22,12.15,23.33,7.2,34.31a10.15,10.15,0,0,1-2.32,3.43,11.69,11.69,0,0,1-3.88,2.1c-2.55.91-4.69,2.54-7,3.77a35.85,35.85,0,0,1-6.52,2.5,22,22,0,0,1-7.29,1.15,25.23,25.23,0,0,1-6.27-1.22,34.22,34.22,0,0,1-17-11.26A23,23,0,0,1,3,30.82a24.65,24.65,0,0,1,3.73-11.5,17.45,17.45,0,0,1,3.17-3.65C12.39,13.55,14.19,10.91,16.44,8.61Z"/><path class="cls-37" d="M16.43,8.68a15.8,15.8,0,0,1,5.08-3.23,22,22,0,0,1,2.72-1,18.67,18.67,0,0,1,4.48-.6A29.61,29.61,0,0,1,39.23,5.51a52.52,52.52,0,0,1,11.91,6.1c9.32,6.23,12.11,23.17,7.24,34.11a9.88,9.88,0,0,1-2.3,3.41,11.35,11.35,0,0,1-3.86,2.07c-2.56.91-4.69,2.56-7,3.81a35.64,35.64,0,0,1-6.52,2.52,21.8,21.8,0,0,1-7.3,1.17,25.38,25.38,0,0,1-6.23-1.22A34.34,34.34,0,0,1,8.22,46.29a22.8,22.8,0,0,1-5.1-15.41A24.73,24.73,0,0,1,6.8,19.39,17.71,17.71,0,0,1,10,15.74C12.41,13.64,14.19,11,16.43,8.68Z"/><path class="cls-38" d="M16.43,8.76a15.51,15.51,0,0,1,5.12-3.22,20.33,20.33,0,0,1,2.75-1A18.83,18.83,0,0,1,28.8,4,29.51,29.51,0,0,1,39.26,5.62a52.26,52.26,0,0,1,11.82,6.09c9.26,6.23,12.08,23,7.28,33.9A9.72,9.72,0,0,1,56.09,49a11.19,11.19,0,0,1-3.84,2c-2.57.91-4.7,2.58-7,3.84a34.88,34.88,0,0,1-6.53,2.56,21.38,21.38,0,0,1-7.31,1.18,25,25,0,0,1-6.19-1.22A34.45,34.45,0,0,1,8.35,46.3,22.83,22.83,0,0,1,3.19,30.94,24.84,24.84,0,0,1,6.84,19.47,17.12,17.12,0,0,1,10,15.82C12.44,13.72,14.18,11.05,16.43,8.76Z"/><path class="cls-39" d="M16.43,8.84A15.26,15.26,0,0,1,21.6,5.62a21.92,21.92,0,0,1,2.76-1,24.43,24.43,0,0,1,4.53-.59A25.65,25.65,0,0,1,39.28,5.74,51,51,0,0,1,51,11.81c9.2,6.24,12,22.84,7.32,33.7a9.46,9.46,0,0,1-2.25,3.38,11.22,11.22,0,0,1-3.82,2c-2.58.9-4.7,2.59-7,3.87a34.94,34.94,0,0,1-6.53,2.58,21.42,21.42,0,0,1-7.32,1.21,25.41,25.41,0,0,1-6.16-1.23,34.67,34.67,0,0,1-16.75-11A22.7,22.7,0,0,1,3.27,31,24.78,24.78,0,0,1,6.88,19.54,16.78,16.78,0,0,1,10,15.9C12.46,13.81,14.18,11.12,16.43,8.84Z"/><path class="cls-40" d="M16.42,8.92a15.24,15.24,0,0,1,5.22-3.21,22.79,22.79,0,0,1,2.78-1A24.85,24.85,0,0,1,29,4.16,25.71,25.71,0,0,1,39.31,5.85,51,51,0,0,1,51,11.91c9.14,6.24,12,22.68,7.36,33.49a9.13,9.13,0,0,1-2.22,3.37,11.11,11.11,0,0,1-3.81,2c-2.58.9-4.69,2.61-7,3.91a34.83,34.83,0,0,1-6.54,2.6A20.74,20.74,0,0,1,31.4,58.5a24.62,24.62,0,0,1-6.13-1.23,34.79,34.79,0,0,1-16.67-11A22.6,22.6,0,0,1,3.35,31.06,24.75,24.75,0,0,1,6.92,19.61,16.94,16.94,0,0,1,10,16C12.49,13.89,14.18,11.19,16.42,8.92Z"/><path class="cls-41" d="M16.42,9a15.19,15.19,0,0,1,5.26-3.2,23.79,23.79,0,0,1,2.81-1,25.06,25.06,0,0,1,4.58-.58A25.56,25.56,0,0,1,39.33,6,50.14,50.14,0,0,1,50.89,12c9.09,6.24,12,22.51,7.41,33.28a9.07,9.07,0,0,1-2.19,3.35,10.87,10.87,0,0,1-3.79,2c-2.6.9-4.7,2.63-7,3.94a34.86,34.86,0,0,1-6.53,2.64,20.91,20.91,0,0,1-7.34,1.25,24.25,24.25,0,0,1-6.09-1.25A34.85,34.85,0,0,1,8.72,46.31,22.45,22.45,0,0,1,3.43,31.12,24.74,24.74,0,0,1,7,19.69a16.17,16.17,0,0,1,3.11-3.64C12.51,14,14.18,11.27,16.42,9Z"/><path class="cls-41" d="M16.41,9.07a15,15,0,0,1,5.31-3.19,26.1,26.1,0,0,1,2.83-1A26,26,0,0,1,39.36,6.08a49.46,49.46,0,0,1,11.47,6c9,6.24,11.93,22.35,7.46,33.07a8.93,8.93,0,0,1-2.18,3.34,10.71,10.71,0,0,1-3.77,1.93c-2.6.9-4.7,2.66-7,4a34.62,34.62,0,0,1-6.54,2.66,20.72,20.72,0,0,1-7.35,1.27,24,24,0,0,1-6.05-1.25A35,35,0,0,1,8.85,46.32,22.43,22.43,0,0,1,3.51,31.17,24.59,24.59,0,0,1,7,19.76a15.83,15.83,0,0,1,3.1-3.63C12.54,14.06,14.17,11.34,16.41,9.07Z"/><path class="cls-42" d="M16.41,9.15A14.74,14.74,0,0,1,21.77,6a25.73,25.73,0,0,1,2.85-1,25.58,25.58,0,0,1,4.64-.55A25.25,25.25,0,0,1,39.38,6.19a48.69,48.69,0,0,1,11.39,6c9,6.25,11.89,22.18,7.5,32.87a8.74,8.74,0,0,1-2.15,3.31,10.56,10.56,0,0,1-3.76,1.92c-2.61.89-4.7,2.67-7,4A34.21,34.21,0,0,1,38.79,57a20.34,20.34,0,0,1-7.36,1.28,23.64,23.64,0,0,1-6-1.25A35.27,35.27,0,0,1,9,46.32,22.3,22.3,0,0,1,3.59,31.23,24.69,24.69,0,0,1,7,19.83a15.75,15.75,0,0,1,3.08-3.63C12.56,14.14,14.17,11.41,16.41,9.15Z"/><path class="cls-43" d="M16.4,9.22a14.92,14.92,0,0,1,5.41-3.17,26.72,26.72,0,0,1,2.87-.93,26,26,0,0,1,4.67-.55A25.29,25.29,0,0,1,39.41,6.3a48.42,48.42,0,0,1,11.3,6c8.92,6.26,11.85,22,7.54,32.66a8.45,8.45,0,0,1-2.12,3.3,10.57,10.57,0,0,1-3.74,1.89c-2.62.89-4.71,2.69-7,4a33.39,33.39,0,0,1-6.54,2.72,20.18,20.18,0,0,1-7.37,1.31,23.52,23.52,0,0,1-6-1.26A35.52,35.52,0,0,1,9.09,46.33a22.24,22.24,0,0,1-5.42-15A24.55,24.55,0,0,1,7.08,19.91a15.08,15.08,0,0,1,3.07-3.63C12.58,14.22,14.17,11.48,16.4,9.22Z"/><path class="cls-44" d="M16.4,9.3a14.7,14.7,0,0,1,5.45-3.16,27.82,27.82,0,0,1,2.89-.93,26.33,26.33,0,0,1,4.7-.54,24.94,24.94,0,0,1,10,1.75,48.19,48.19,0,0,1,11.22,6c8.86,6.26,11.81,21.86,7.58,32.46a8.22,8.22,0,0,1-2.1,3.28A10.5,10.5,0,0,1,52.41,50c-2.62.88-4.7,2.71-7,4.07a34.5,34.5,0,0,1-6.55,2.76,20,20,0,0,1-7.38,1.32,23.31,23.31,0,0,1-5.94-1.26A35.61,35.61,0,0,1,9.22,46.33c-3.52-4.24-5.75-9.55-5.47-15A24.75,24.75,0,0,1,7.11,20a15.26,15.26,0,0,1,3.07-3.62C12.61,14.31,14.17,11.55,16.4,9.3Z"/><path class="cls-45" d="M16.39,9.38A14.57,14.57,0,0,1,21.9,6.23a24.67,24.67,0,0,1,2.91-.92,25.66,25.66,0,0,1,4.72-.54,24.87,24.87,0,0,1,9.93,1.76,47.55,47.55,0,0,1,11.13,6c8.8,6.27,11.77,21.7,7.62,32.25A8,8,0,0,1,56.14,48a10.5,10.5,0,0,1-3.71,1.84c-2.63.87-4.7,2.72-7,4.1a33.41,33.41,0,0,1-6.55,2.78,19.86,19.86,0,0,1-7.38,1.35,23.35,23.35,0,0,1-5.91-1.27A35.86,35.86,0,0,1,9.34,46.34c-3.52-4.23-5.77-9.52-5.51-14.93A24.69,24.69,0,0,1,7.15,20.05a15.18,15.18,0,0,1,3-3.62C12.63,14.39,14.17,11.62,16.39,9.38Z"/><path class="cls-46" d="M16.39,9.46a14.52,14.52,0,0,1,5.55-3.15,27.71,27.71,0,0,1,2.93-.91,27,27,0,0,1,4.76-.53,24.84,24.84,0,0,1,9.85,1.77,46.82,46.82,0,0,1,11.05,6c8.74,6.26,11.73,21.53,7.67,32a8,8,0,0,1-2.05,3.25,10.39,10.39,0,0,1-3.7,1.81c-2.63.87-4.7,2.74-7,4.13a34.06,34.06,0,0,1-6.55,2.82A19.77,19.77,0,0,1,31.48,58a22.63,22.63,0,0,1-5.87-1.27A36,36,0,0,1,9.47,46.34c-3.54-4.2-5.81-9.47-5.56-14.87A24.71,24.71,0,0,1,7.19,20.13a15,15,0,0,1,3-3.62C12.66,14.47,14.16,11.69,16.39,9.46Z"/><path class="cls-47" d="M16.38,9.53A14.62,14.62,0,0,1,22,6.4a28.25,28.25,0,0,1,3-.91A27.21,27.21,0,0,1,29.72,5a24.75,24.75,0,0,1,9.79,1.79,46,46,0,0,1,11,6C59.15,19,62.16,34.09,58.18,44.56a7.9,7.9,0,0,1-2,3.24,10.11,10.11,0,0,1-3.67,1.78c-2.65.87-4.71,2.76-7,4.17a33,33,0,0,1-6.55,2.84A19.42,19.42,0,0,1,31.49,58a22.66,22.66,0,0,1-5.83-1.27A36.26,36.26,0,0,1,9.59,46.34C6.05,42.17,3.75,36.92,4,31.53A24.78,24.78,0,0,1,7.23,20.2a14.47,14.47,0,0,1,3-3.61C12.68,14.56,14.16,11.76,16.38,9.53Z"/><path class="cls-48" d="M16.38,9.61A14.63,14.63,0,0,1,22,6.48a29.3,29.3,0,0,1,3-.89,26.62,26.62,0,0,1,4.81-.52,24.74,24.74,0,0,1,9.72,1.8,45.79,45.79,0,0,1,10.88,6C59,19.1,62.06,34,58.16,44.46a7.66,7.66,0,0,1-2,3.22,10.27,10.27,0,0,1-3.66,1.76c-2.65.86-4.7,2.77-7,4.19a32.64,32.64,0,0,1-6.56,2.88,19.49,19.49,0,0,1-7.42,1.4,22.49,22.49,0,0,1-5.79-1.29,36.34,36.34,0,0,1-16-10.27C6.16,42.2,3.85,37,4.06,31.59A24.72,24.72,0,0,1,7.27,20.27a14.58,14.58,0,0,1,3-3.61C12.71,14.64,14.16,11.83,16.38,9.61Z"/><path class="cls-49" d="M16.37,9.69a14.59,14.59,0,0,1,5.7-3.12,28.92,28.92,0,0,1,3-.89,26,26,0,0,1,4.83-.5A24.48,24.48,0,0,1,39.56,7a45.27,45.27,0,0,1,10.78,5.95c8.57,6.28,11.62,21,7.8,31.42a7.43,7.43,0,0,1-2,3.21,9.88,9.88,0,0,1-3.64,1.73c-2.66.86-4.7,2.79-7,4.23a33.28,33.28,0,0,1-6.56,2.9,19,19,0,0,1-7.43,1.42,22.36,22.36,0,0,1-5.76-1.29A36.59,36.59,0,0,1,9.84,46.35c-3.56-4.13-5.9-9.33-5.7-14.7a24.74,24.74,0,0,1,3.17-11.3,14.19,14.19,0,0,1,3-3.61C12.73,14.73,14.16,11.9,16.37,9.69Z"/><path class="cls-50" d="M16.37,9.77a14.34,14.34,0,0,1,5.74-3.11,29.29,29.29,0,0,1,3-.89A27.26,27.26,0,0,1,30,5.28,24.29,24.29,0,0,1,39.58,7.1,44.49,44.49,0,0,1,50.28,13c8.52,6.29,11.58,20.88,7.84,31.22a7.36,7.36,0,0,1-1.95,3.19,9.88,9.88,0,0,1-3.62,1.7c-2.67.86-4.71,2.81-7,4.27A32.61,32.61,0,0,1,39,56.33a19,19,0,0,1-7.44,1.45,22,22,0,0,1-5.72-1.3A36.8,36.8,0,0,1,10,46.36C6.39,42.25,4,37.06,4.22,31.71A24.68,24.68,0,0,1,7.35,20.42a13.9,13.9,0,0,1,3-3.6C12.75,14.81,14.15,12,16.37,9.77Z"/><path class="cls-51" d="M16.37,9.84a14.47,14.47,0,0,1,5.78-3.1,30.35,30.35,0,0,1,3-.87,27.59,27.59,0,0,1,4.9-.49,24.19,24.19,0,0,1,9.52,1.83,43.91,43.91,0,0,1,10.61,5.93c8.46,6.28,11.54,20.71,7.88,31a7.12,7.12,0,0,1-1.92,3.18A9.89,9.89,0,0,1,52.57,49c-2.68.85-4.71,2.82-7,4.29a32.65,32.65,0,0,1-6.56,3,18.79,18.79,0,0,1-7.46,1.46,21.79,21.79,0,0,1-5.68-1.3,37.13,37.13,0,0,1-15.76-10c-3.58-4.08-6-9.25-5.79-14.59A24.89,24.89,0,0,1,7.38,20.49a13.87,13.87,0,0,1,3-3.6C12.78,14.89,14.15,12.05,16.37,9.84Z"/><path class="cls-52" d="M16.36,9.92a14.4,14.4,0,0,1,5.83-3.09c1-.33,2-.63,3.07-.87a26.9,26.9,0,0,1,4.92-.48,24.36,24.36,0,0,1,9.45,1.84,43.37,43.37,0,0,1,10.53,5.92c8.4,6.29,11.5,20.54,7.93,30.8a7.1,7.1,0,0,1-1.91,3.16,9.74,9.74,0,0,1-3.59,1.65c-2.68.85-4.7,2.85-7,4.33a32.5,32.5,0,0,1-6.57,3,18.64,18.64,0,0,1-7.46,1.48,21.39,21.39,0,0,1-5.65-1.3c-6-2.1-11.63-5.38-15.68-10-3.6-4.07-6-9.21-5.84-14.54a24.78,24.78,0,0,1,3-11.26,13.52,13.52,0,0,1,3-3.6C12.8,15,14.15,12.12,16.36,9.92Z"/><path class="cls-53" d="M16.36,10a14.35,14.35,0,0,1,5.88-3.09c1-.32,2-.62,3.08-.85a27.31,27.31,0,0,1,4.95-.48,24.09,24.09,0,0,1,9.39,1.86,43.07,43.07,0,0,1,10.44,5.9c8.34,6.3,11.46,20.38,8,30.59a7,7,0,0,1-1.88,3.15,9.67,9.67,0,0,1-3.57,1.62c-2.7.84-4.71,2.87-7,4.36a32.68,32.68,0,0,1-6.57,3,18.71,18.71,0,0,1-7.47,1.5A21.12,21.12,0,0,1,26,56.27c-5.94-2.1-11.56-5.35-15.61-9.9-3.6-4-6-9.16-5.88-14.48a24.85,24.85,0,0,1,3-11.25,13.25,13.25,0,0,1,3-3.59C12.83,15.06,14.15,12.19,16.36,10Z"/><path class="cls-54" d="M16.35,10.07A14.38,14.38,0,0,1,22.28,7c1-.32,2-.62,3.11-.85a27.52,27.52,0,0,1,5-.47,23.94,23.94,0,0,1,9.32,1.87A42.53,42.53,0,0,1,50,13.44c8.28,6.3,11.42,20.22,8,30.39A6.75,6.75,0,0,1,56.2,47a9.59,9.59,0,0,1-3.56,1.6c-2.7.83-4.71,2.88-7,4.39a32,32,0,0,1-6.57,3,18.24,18.24,0,0,1-7.48,1.52A20.93,20.93,0,0,1,26,56.2c-5.9-2.1-11.49-5.32-15.54-9.82-3.61-4-6.06-9.13-5.92-14.44a24.81,24.81,0,0,1,3-11.23,13.19,13.19,0,0,1,2.94-3.59C12.85,15.14,14.15,12.26,16.35,10.07Z"/><path class="cls-55" d="M16.35,10.15a14.28,14.28,0,0,1,6-3.06c1-.32,2.06-.62,3.13-.85a27.87,27.87,0,0,1,5-.46,24.2,24.2,0,0,1,9.25,1.88A42.45,42.45,0,0,1,50,13.54C58.2,19.85,61.36,33.6,58,43.72a6.6,6.6,0,0,1-1.83,3.12,9.6,9.6,0,0,1-3.54,1.57c-2.71.83-4.71,2.9-7,4.42a32.17,32.17,0,0,1-6.58,3.08,18.26,18.26,0,0,1-7.49,1.53A20.36,20.36,0,0,1,26,56.12c-5.85-2.1-11.41-5.28-15.45-9.74C7,42.39,4.5,37.3,4.62,32A24.67,24.67,0,0,1,7.54,20.79a13,13,0,0,1,2.93-3.59C12.88,15.23,14.14,12.33,16.35,10.15Z"/><path class="cls-56" d="M16.34,10.23a14.3,14.3,0,0,1,6-3.06c1-.31,2.08-.61,3.15-.83a27.38,27.38,0,0,1,5-.45,23.81,23.81,0,0,1,9.18,1.88,41.72,41.72,0,0,1,10.19,5.87C58.08,20,61.26,33.53,58,43.62a6.48,6.48,0,0,1-1.8,3.1,9.46,9.46,0,0,1-3.52,1.54c-2.72.83-4.71,2.92-7,4.46a31.48,31.48,0,0,1-6.58,3.1,18,18,0,0,1-7.5,1.56,20.47,20.47,0,0,1-5.5-1.33C20.28,54,14.75,50.8,10.71,46.38c-3.63-4-6.12-9-6-14.32a24.77,24.77,0,0,1,2.88-11.2,12.62,12.62,0,0,1,2.92-3.58C12.9,15.31,14.14,12.4,16.34,10.23Z"/><path class="cls-57" d="M16.34,10.31a14.07,14.07,0,0,1,6.07-3.05c1-.31,2.09-.6,3.17-.83A22.58,22.58,0,0,1,30.64,6a26.64,26.64,0,0,1,9.12,1.9,41.13,41.13,0,0,1,10.1,5.86C58,20.06,61.16,33.47,58,43.51a6.46,6.46,0,0,1-1.78,3.09,9.61,9.61,0,0,1-3.51,1.52c-2.73.82-4.71,2.93-7,4.48a31.85,31.85,0,0,1-6.58,3.14,18,18,0,0,1-7.52,1.57A20.19,20.19,0,0,1,26.14,56c-5.77-2.1-11.27-5.22-15.3-9.59-3.64-4-6.16-9-6.07-14.27A24.85,24.85,0,0,1,7.62,20.93a12.56,12.56,0,0,1,2.9-3.58C12.92,15.39,14.14,12.47,16.34,10.31Z"/><path class="cls-58" d="M16.33,10.38a14.06,14.06,0,0,1,6.12-3c1-.31,2.11-.6,3.19-.83a22.26,22.26,0,0,1,5.09-.43A26.45,26.45,0,0,1,39.78,8a40.5,40.5,0,0,1,10,5.85C57.84,20.17,61.06,33.41,58,43.41a6.29,6.29,0,0,1-1.76,3.07A9.24,9.24,0,0,1,52.73,48c-2.73.82-4.71,3-7,4.52a31.68,31.68,0,0,1-6.58,3.16,18,18,0,0,1-7.52,1.6,20.28,20.28,0,0,1-5.43-1.34C20.46,53.81,15,50.72,11,46.39c-3.65-3.92-6.19-9-6.11-14.21A24.84,24.84,0,0,1,7.66,21a12.4,12.4,0,0,1,2.89-3.58C13,15.48,14.14,12.54,16.33,10.38Z"/><path class="cls-59" d="M16.33,10.46a14.1,14.1,0,0,1,6.16-3c1.05-.3,2.12-.59,3.22-.81a22.48,22.48,0,0,1,5.11-.43,26.65,26.65,0,0,1,9,1.92A40.1,40.1,0,0,1,49.73,14C57.72,20.27,61,33.35,58,43.3a6.17,6.17,0,0,1-1.73,3.06,9.23,9.23,0,0,1-3.47,1.46c-2.75.81-4.72,3-7,4.55a31.89,31.89,0,0,1-6.59,3.2,17.74,17.74,0,0,1-7.53,1.61,19.91,19.91,0,0,1-5.39-1.34c-5.69-2.11-11.13-5.16-15.15-9.44-3.67-3.9-6.22-8.91-6.16-14.16A24.92,24.92,0,0,1,7.69,21.08a12.35,12.35,0,0,1,2.89-3.57C13,15.56,14.14,12.61,16.33,10.46Z"/><path class="cls-60" d="M16.32,10.54a14.09,14.09,0,0,1,6.22-3c1.05-.3,2.13-.59,3.23-.81a23.37,23.37,0,0,1,5.15-.42,26.22,26.22,0,0,1,8.91,1.94,39.37,39.37,0,0,1,9.84,5.82c7.93,6.33,11.19,19.24,8.27,29.15a6,6,0,0,1-1.71,3,9.13,9.13,0,0,1-3.45,1.44c-2.75.8-4.71,3-7,4.58a31.22,31.22,0,0,1-6.59,3.22c-2.4.93-4.93,1.83-7.54,1.63a19.28,19.28,0,0,1-5.35-1.34c-5.65-2.11-11.06-5.13-15.08-9.37C7.54,42.53,5,37.54,5,32.3A25,25,0,0,1,7.73,21.15a12.29,12.29,0,0,1,2.87-3.57C13,15.65,14.13,12.68,16.32,10.54Z"/><path class="cls-61" d="M16.32,10.62c1.67-1.64,4-2.39,6.26-3,1.06-.29,2.15-.58,3.25-.8A23.08,23.08,0,0,1,31,6.39a25.9,25.9,0,0,1,8.85,2,39.27,39.27,0,0,1,9.75,5.81c7.87,6.34,11.15,19.07,8.31,28.94a5.85,5.85,0,0,1-1.68,3,9.11,9.11,0,0,1-3.44,1.41c-2.76.8-4.71,3-7,4.61a30.92,30.92,0,0,1-6.6,3.25,17.41,17.41,0,0,1-7.55,1.66,19.63,19.63,0,0,1-5.32-1.35c-5.6-2.11-11-5.09-15-9.29-3.69-3.85-6.29-8.82-6.25-14A24.89,24.89,0,0,1,7.77,21.23a11.85,11.85,0,0,1,2.86-3.57C13,15.73,14.13,12.76,16.32,10.62Z"/><path class="cls-62" d="M16.31,10.69c1.69-1.64,4-2.38,6.31-3,1.07-.3,2.17-.58,3.28-.79a23.26,23.26,0,0,1,5.2-.41,25.94,25.94,0,0,1,8.78,2,38.88,38.88,0,0,1,9.67,5.8C57.36,20.6,60.65,33.16,57.9,43a5.78,5.78,0,0,1-1.65,3,9,9,0,0,1-3.42,1.38c-2.77.8-4.72,3-7,4.65a30.79,30.79,0,0,1-6.6,3.28c-2.4.95-4.94,1.87-7.56,1.67a18.93,18.93,0,0,1-5.28-1.36c-5.56-2.1-10.91-5-14.92-9.21-3.69-3.83-6.31-8.77-6.29-14A24.82,24.82,0,0,1,7.81,21.3a11.63,11.63,0,0,1,2.85-3.56C13.05,15.81,14.13,12.83,16.31,10.69Z"/><path class="cls-63" d="M16.31,10.77c1.69-1.65,4.06-2.38,6.35-3,1.09-.3,2.18-.57,3.3-.79a23.52,23.52,0,0,1,5.23-.4,25.63,25.63,0,0,1,8.72,2,38.19,38.19,0,0,1,9.58,5.79c7.75,6.34,11.06,18.74,8.4,28.52a5.7,5.7,0,0,1-1.64,3,9,9,0,0,1-3.4,1.36c-2.78.79-4.72,3-7,4.68a31.33,31.33,0,0,1-6.6,3.3c-2.41,1-5,1.9-7.58,1.7a18.68,18.68,0,0,1-5.24-1.37c-5.52-2.11-10.84-5-14.84-9.13-3.71-3.81-6.35-8.74-6.34-13.94a24.79,24.79,0,0,1,2.6-11.11,11.7,11.7,0,0,1,2.83-3.56C13.07,15.9,14.13,12.9,16.31,10.77Z"/><path class="cls-64" d="M16.31,10.85c1.7-1.66,4.09-2.38,6.4-3C23.8,7.57,24.9,7.3,26,7.09a22.59,22.59,0,0,1,5.26-.39,25.48,25.48,0,0,1,8.64,2,37.51,37.51,0,0,1,9.5,5.78c7.69,6.35,11,18.58,8.44,28.31a5.53,5.53,0,0,1-1.61,3,9,9,0,0,1-3.39,1.33c-2.78.78-4.72,3.06-7,4.71a31,31,0,0,1-6.6,3.34c-2.41,1-5,1.92-7.59,1.71a18.41,18.41,0,0,1-5.2-1.37c-5.48-2.11-10.77-5-14.77-9.06C8,42.64,5.33,37.73,5.33,32.54a24.75,24.75,0,0,1,2.56-11.1,11.51,11.51,0,0,1,2.82-3.55C13.1,16,14.13,13,16.31,10.85Z"/><path class="cls-65" d="M16.3,10.92C18,9.26,20.43,8.55,22.75,8c1.1-.29,2.21-.56,3.34-.77a23.41,23.41,0,0,1,5.29-.38,25.39,25.39,0,0,1,8.58,2,37.53,37.53,0,0,1,9.41,5.77C57,20.92,60.35,33,57.85,42.67a5.46,5.46,0,0,1-1.58,3,8.83,8.83,0,0,1-3.38,1.3c-2.79.78-4.71,3.08-7,4.75a30.37,30.37,0,0,1-6.6,3.36c-2.41,1-5,1.94-7.59,1.73a18.13,18.13,0,0,1-5.17-1.37c-5.44-2.11-10.7-5-14.69-9C8.11,42.67,5.43,37.78,5.41,32.6A24.74,24.74,0,0,1,7.93,21.52,11.12,11.12,0,0,1,10.74,18C13.12,16.06,14.12,13,16.3,10.92Z"/><path class="cls-66" d="M16.3,11C18,9.33,20.45,8.63,22.79,8c1.11-.28,2.23-.55,3.37-.76a23.62,23.62,0,0,1,5.31-.37,25.21,25.21,0,0,1,8.51,2,36.54,36.54,0,0,1,9.33,5.75c7.57,6.36,10.94,18.25,8.52,27.9a5.25,5.25,0,0,1-1.56,3,8.89,8.89,0,0,1-3.35,1.28c-2.8.77-4.72,3.09-7,4.77A30.35,30.35,0,0,1,39.31,55c-2.41,1-5,2-7.6,1.75a18,18,0,0,1-5.14-1.38C21.18,53.23,16,50.42,12,46.43c-3.74-3.73-6.44-8.6-6.47-13.78A24.7,24.7,0,0,1,8,21.59,11.07,11.07,0,0,1,10.76,18C13.14,16.15,14.12,13.11,16.3,11Z"/><path class="cls-67" d="M16.29,11.08c1.73-1.68,4.19-2.37,6.54-3,1.12-.28,2.24-.55,3.39-.75A23.31,23.31,0,0,1,31.56,7,25.13,25.13,0,0,1,40,9a36.38,36.38,0,0,1,9.23,5.74c7.52,6.37,10.91,18.09,8.57,27.7a5.22,5.22,0,0,1-1.53,2.94,8.63,8.63,0,0,1-3.34,1.25c-2.81.77-4.72,3.11-7,4.81a30.42,30.42,0,0,1-6.61,3.42c-2.41,1-5,2-7.61,1.77a18.11,18.11,0,0,1-5.1-1.38c-5.35-2.12-10.55-4.89-14.54-8.84-3.75-3.7-6.47-8.56-6.51-13.72A24.75,24.75,0,0,1,8,21.66a11.16,11.16,0,0,1,2.79-3.54C13.17,16.23,14.12,13.18,16.29,11.08Z"/><path class="cls-68" d="M16.29,11.16C18,9.47,20.5,8.79,22.88,8.21c1.12-.28,2.25-.54,3.4-.75a24.19,24.19,0,0,1,5.37-.36,24.87,24.87,0,0,1,8.38,2,36,36,0,0,1,9.15,5.73c7.46,6.38,10.87,17.93,8.62,27.49a5.15,5.15,0,0,1-1.52,2.93A8.5,8.5,0,0,1,53,46.5c-2.81.77-4.72,3.13-7,4.84a30.4,30.4,0,0,1-6.62,3.46c-2.41,1-5,2-7.62,1.79a18.2,18.2,0,0,1-5.06-1.39c-5.31-2.12-10.48-4.86-14.46-8.76-3.76-3.69-6.5-8.52-6.57-13.67a24.9,24.9,0,0,1,2.4-11,10.89,10.89,0,0,1,2.78-3.54C13.19,16.31,14.12,13.25,16.29,11.16Z"/><path class="cls-69" d="M16.28,11.23C18,9.54,20.53,8.87,22.92,8.29c1.13-.27,2.27-.53,3.43-.74a23.82,23.82,0,0,1,5.4-.35,24.63,24.63,0,0,1,8.31,2.05A34.91,34.91,0,0,1,49.12,15c7.4,6.38,10.83,17.75,8.66,27.28a5.05,5.05,0,0,1-1.49,2.91,8.6,8.6,0,0,1-3.3,1.2c-2.83.75-4.72,3.14-7,4.87a30,30,0,0,1-6.61,3.48c-2.42,1-5,2-7.64,1.81a17.53,17.53,0,0,1-5-1.4C21.45,53,16.31,50.3,12.33,46.44,8.56,42.78,5.8,38,5.72,32.83a24.86,24.86,0,0,1,2.36-11,10.84,10.84,0,0,1,2.76-3.54C13.22,16.4,14.12,13.32,16.28,11.23Z"/><path class="cls-70" d="M16.28,11.31C18,9.62,20.56,9,23,8.38c1.14-.27,2.29-.53,3.45-.73a24.08,24.08,0,0,1,5.43-.35,24.43,24.43,0,0,1,8.24,2.06,34.79,34.79,0,0,1,9,5.71c7.34,6.38,10.79,17.59,8.7,27.07A5,5,0,0,1,56.3,45,8.68,8.68,0,0,1,53,46.21c-2.83.75-4.72,3.16-7,4.9a30.4,30.4,0,0,1-6.62,3.52c-2.42,1-5,2-7.65,1.82a17.05,17.05,0,0,1-5-1.4c-5.23-2.11-10.34-4.79-14.31-8.6C8.67,42.81,5.89,38,5.8,32.89a24.79,24.79,0,0,1,2.32-11,10.55,10.55,0,0,1,2.75-3.53C13.24,16.48,14.11,13.4,16.28,11.31Z"/><path class="cls-71" d="M16.27,11.39C18,9.69,20.58,9,23,8.46c1.15-.26,2.31-.52,3.48-.72a24.25,24.25,0,0,1,5.45-.33,24.33,24.33,0,0,1,8.18,2.06A34.43,34.43,0,0,1,49,15.17C56.28,21.56,59.75,32.6,57.74,42a4.74,4.74,0,0,1-1.44,2.88A8.49,8.49,0,0,1,53,46.06c-2.84.75-4.72,3.18-7,4.94a29.6,29.6,0,0,1-6.62,3.54c-2.42,1-5,2.07-7.65,1.85A17.1,17.1,0,0,1,26.82,55c-5.19-2.11-10.27-4.75-14.24-8.53C8.79,42.84,6,38.06,5.88,33A24.82,24.82,0,0,1,8.16,22a10.21,10.21,0,0,1,2.74-3.53C13.27,16.57,14.11,13.47,16.27,11.39Z"/><path class="cls-72" d="M16.27,11.47c1.78-1.71,4.34-2.36,6.78-2.92,1.15-.26,2.31-.52,3.49-.71A23.42,23.42,0,0,1,32,7.51a23.91,23.91,0,0,1,8.11,2.08,33.92,33.92,0,0,1,8.81,5.68,29.13,29.13,0,0,1,8.78,26.66,4.68,4.68,0,0,1-1.41,2.87,8.26,8.26,0,0,1-3.25,1.11c-2.85.74-4.73,3.2-7,5a30,30,0,0,1-6.63,3.57c-2.42,1-5,2.1-7.66,1.87a16.91,16.91,0,0,1-4.92-1.41c-5.14-2.12-10.19-4.72-14.15-8.45C8.9,42.87,6.09,38.11,6,33A24.89,24.89,0,0,1,8.2,22a10.35,10.35,0,0,1,2.72-3.53C13.29,16.65,14.11,13.54,16.27,11.47Z"/><path class="cls-73" d="M16.26,11.54c1.8-1.71,4.37-2.35,6.83-2.9,1.16-.26,2.33-.52,3.51-.71a24.26,24.26,0,0,1,5.51-.32,23.71,23.71,0,0,1,8,2.09,33.53,33.53,0,0,1,8.73,5.67,29.21,29.21,0,0,1,8.83,26.46,4.66,4.66,0,0,1-1.39,2.85,8.4,8.4,0,0,1-3.24,1.09c-2.86.73-4.72,3.22-7,5a29.88,29.88,0,0,1-6.63,3.6c-2.42,1.06-5,2.12-7.67,1.89a16.68,16.68,0,0,1-4.88-1.42c-5.1-2.12-10.12-4.69-14.08-8.38S6.18,38.16,6,33.07a24.82,24.82,0,0,1,2.2-11A10.08,10.08,0,0,1,11,18.58C13.31,16.73,14.11,13.61,16.26,11.54Z"/><path class="cls-74" d="M16.26,11.62c1.8-1.72,4.4-2.36,6.87-2.9,1.17-.25,2.35-.5,3.54-.7a24.45,24.45,0,0,1,5.54-.31,23.69,23.69,0,0,1,8,2.1,33.26,33.26,0,0,1,8.64,5.66,29.25,29.25,0,0,1,8.87,26.25,4.53,4.53,0,0,1-1.37,2.84,8.17,8.17,0,0,1-3.22,1.06c-2.86.73-4.72,3.24-7,5a29.5,29.5,0,0,1-6.63,3.62c-2.42,1.07-5,2.15-7.68,1.91A16.43,16.43,0,0,1,27,54.77c-5.07-2.12-10-4.66-14-8.3S6.27,38.21,6.12,33.13a24.84,24.84,0,0,1,2.16-11A9.87,9.87,0,0,1,11,18.66C13.34,16.82,14.11,13.68,16.26,11.62Z"/><path class="cls-75" d="M16.25,11.7c1.82-1.73,4.44-2.36,6.93-2.89,1.17-.25,2.36-.5,3.55-.69a24.21,24.21,0,0,1,5.57-.31,23.51,23.51,0,0,1,7.9,2.12,32.55,32.55,0,0,1,8.56,5.65,29.29,29.29,0,0,1,8.91,26,4.47,4.47,0,0,1-1.34,2.82,8.15,8.15,0,0,1-3.2,1c-2.88.73-4.73,3.26-7,5.07a29.68,29.68,0,0,1-6.63,3.66c-2.44,1.08-5,2.17-7.7,1.92A15.89,15.89,0,0,1,27,54.7c-5-2.12-10-4.62-13.93-8.23S6.37,38.26,6.2,33.19A24.9,24.9,0,0,1,8.31,22.25,10,10,0,0,1,11,18.73C13.36,16.9,14.11,13.75,16.25,11.7Z"/><path class="cls-76" d="M16.25,11.77c1.82-1.73,4.46-2.35,7-2.87,1.18-.25,2.37-.5,3.58-.69a24.35,24.35,0,0,1,5.59-.3A23.43,23.43,0,0,1,40.23,10a32.44,32.44,0,0,1,8.47,5.64,29.41,29.41,0,0,1,8.95,25.83,4.41,4.41,0,0,1-1.31,2.81,8.08,8.08,0,0,1-3.19,1c-2.88.71-4.73,3.27-7,5.1a29.31,29.31,0,0,1-6.63,3.68c-2.44,1.09-5,2.19-7.71,2a15.87,15.87,0,0,1-4.76-1.43c-5-2.13-9.92-4.59-13.85-8.16S6.46,38.3,6.28,33.25A25,25,0,0,1,8.35,22.32,9.82,9.82,0,0,1,11,18.81C13.39,17,14.11,13.83,16.25,11.77Z"/><path class="cls-77" d="M16.24,11.85c1.84-1.74,4.5-2.35,7-2.87,1.19-.24,2.39-.49,3.6-.68A24.6,24.6,0,0,1,32.48,8a23,23,0,0,1,7.77,2.14,31.84,31.84,0,0,1,8.38,5.63,29.46,29.46,0,0,1,9,25.63,4.26,4.26,0,0,1-1.29,2.79c-.87.68-2.08.71-3.17,1-2.89.71-4.72,3.29-7,5.13A29.52,29.52,0,0,1,39.55,54c-2.44,1.09-5,2.21-7.72,2a15.45,15.45,0,0,1-4.72-1.44c-4.95-2.12-9.85-4.55-13.78-8.07s-6.78-8.13-7-13.17a24.89,24.89,0,0,1,2-10.91,9.68,9.68,0,0,1,2.67-3.51C13.41,17.07,14.1,13.9,16.24,11.85Z"/><path class="cls-78" d="M16.24,11.93c1.84-1.75,4.53-2.35,7.06-2.86,1.2-.25,2.41-.49,3.62-.67a23.88,23.88,0,0,1,5.66-.28,22.69,22.69,0,0,1,7.7,2.15,31.3,31.3,0,0,1,8.29,5.61,29.54,29.54,0,0,1,9,25.42,4.1,4.1,0,0,1-1.26,2.77c-.87.68-2.07.7-3.15,1-2.9.71-4.73,3.31-7,5.17a29.59,29.59,0,0,1-6.64,3.74c-2.44,1.11-5,2.24-7.72,2a15.61,15.61,0,0,1-4.7-1.44c-4.9-2.12-9.77-4.51-13.7-8s-6.8-8.08-7-13.11a25.12,25.12,0,0,1,2-10.9A9.64,9.64,0,0,1,11.08,19C13.44,17.15,14.1,14,16.24,11.93Z"/><path class="cls-79" d="M16.24,12c1.85-1.76,4.55-2.35,7.11-2.86,1.2-.24,2.42-.47,3.64-.66a24.55,24.55,0,0,1,5.68-.27,22.55,22.55,0,0,1,7.63,2.16A31.09,31.09,0,0,1,48.51,16c6.8,6.45,10.42,16.12,9.09,25.22A4,4,0,0,1,56.35,44c-.85.67-2.06.68-3.13.94-2.91.69-4.73,3.32-7,5.19a29.2,29.2,0,0,1-6.65,3.78c-2.44,1.11-5,2.25-7.73,2a15.31,15.31,0,0,1-4.66-1.45c-4.86-2.12-9.7-4.48-13.62-7.92s-6.84-8-7.07-13.07a24.91,24.91,0,0,1,2-10.88A9.5,9.5,0,0,1,11.11,19C13.46,17.23,14.1,14,16.24,12Z"/><path class="cls-80" d="M16.23,12.08c1.86-1.76,4.59-2.34,7.16-2.84,1.21-.24,2.43-.47,3.66-.66a24.29,24.29,0,0,1,5.71-.26,22.47,22.47,0,0,1,7.57,2.17,30.39,30.39,0,0,1,8.12,5.6c6.74,6.45,10.38,16,9.13,25a4,4,0,0,1-1.22,2.74c-.85.66-2,.66-3.12.91-2.91.69-4.73,3.34-7,5.23a28.83,28.83,0,0,1-6.64,3.8c-2.45,1.13-5,2.28-7.75,2a15.16,15.16,0,0,1-4.62-1.45c-4.82-2.13-9.63-4.45-13.55-7.85s-6.87-8-7.11-13A24.77,24.77,0,0,1,8.51,22.62a9.22,9.22,0,0,1,2.63-3.5C13.48,17.32,14.1,14.11,16.23,12.08Z"/><path class="cls-81" d="M11.16,19.19c2.35-1.79,2.93-5,5.07-7,1.87-1.77,4.61-2.34,7.2-2.83a34.1,34.1,0,0,1,9.42-.91,22.05,22.05,0,0,1,7.5,2.19C51.92,16.07,59.14,28.83,57.56,41a3.91,3.91,0,0,1-1.19,2.72c-.85.66-2,.64-3.1.88-2.93.68-4.74,3.36-7,5.26a29.25,29.25,0,0,1-6.65,3.84c-2.45,1.13-5,2.29-7.76,2a15.13,15.13,0,0,1-4.58-1.46c-4.78-2.13-9.56-4.41-13.47-7.77s-6.91-8-7.16-13C6.45,29.05,7.56,22,11.16,19.19Z"/><path d="M33.35,61.84A31.14,31.14,0,0,1,5,43.05,31,31,0,0,1,11.85,9.13C21.33-.15,36.28-1.65,47.7,4.88A31,31,0,0,1,63,35.76a30.19,30.19,0,0,1-29.6,26.08c-.29,0-.58.5-.87.5A32.52,32.52,0,0,0,60.22,46a30.75,30.75,0,0,0-42-41.71C7.52,10.27.85,21.66,1.83,34c1.26,15.89,14.85,28.12,30.65,28.3C32.77,62.34,33.07,61.84,33.35,61.84Z"/><path d="M61.09,31.59c-.15,12.13-7.85,23.5-19.71,27A28.61,28.61,0,0,1,8.43,17,27.84,27.84,0,0,1,39.55,3.87,28.93,28.93,0,0,1,61.09,31.59c0-.16.87-.33.86-.5A28.92,28.92,0,0,0,40.09,3.28a30,30,0,0,0-28.51,8.78,28.88,28.88,0,0,0-3,35.25A28.89,28.89,0,0,0,42.4,58.43,29.63,29.63,0,0,0,62,31.09C62,31.25,61.09,31.41,61.09,31.59Z"/><path d="M6,31.59h5.72c.3,0,.59-.5.87-.5H6.89c-.29,0-.58.5-.87.5Z"/><line class="cls-82" x1="10" y1="44.57" x2="14.96" y2="41.71"/><path d="M20.12,54l2.86-5c-.14.25-.72.25-.87.5l-2.86,5c.15-.24.72-.24.87-.5Z"/><path d="M33.35,57.55V51.83c0,.16-.87.32-.87.5v5.72c0-.16.87-.33.87-.5Z"/><path d="M46.58,54l-2.86-5s-.87.49-.87.5l2.86,5s.87-.49.87-.5Z"/><path d="M56.26,44.32l-4.95-2.86c-.15-.09-.73.58-.87.5l5,2.86c.15.09.73-.58.86-.5Z"/><path d="M59.81,31.09H54.09c-.29,0-.58.5-.87.5h5.72c.29,0,.58-.5.87-.5Z"/><line class="cls-82" x1="55.83" y1="18.11" x2="50.88" y2="20.97"/><path d="M45.71,8.68l-2.86,5c.14-.25.72-.25.87-.5l2.86-5c-.14.24-.72.24-.87.5Z"/><path d="M32.48,5.13v5.72c0-.16.87-.33.87-.5V4.63c0,.16-.87.33-.87.5Z"/><path d="M19.25,8.68l2.86,5s.87-.49.87-.5l-2.86-5-.87.5Z"/><path d="M9.57,18.36l4.95,2.86c.15.09.73-.58.87-.5l-5-2.86c-.15-.09-.72.58-.86.5Z"/><path d="M32.48,13.71V34.45c0-.16.87-.33.87-.5V13.21c0,.16-.87.33-.87.5Z"/><path d="M39.79,42.53,31.92,28.61l-.87.5L38.92,43l.87-.5Z"/></g></g></g></svg>