<svg xmlns="http://www.w3.org/2000/svg" viewBox="0 0 38.57 65.72"><defs><style>.cls-1{fill:#fff;}.cls-2{fill:#fefefe;}.cls-3{fill:#fdfdfd;}.cls-4{fill:#fcfcfc;}.cls-5{fill:#fbfbfb;}.cls-6{fill:#fafafa;}.cls-7{fill:#f9f9f9;}.cls-8{fill:#f8f8f8;}.cls-9{fill:#f7f7f7;}.cls-10{fill:#f6f6f6;}.cls-11{fill:#f5f5f5;}.cls-12{fill:#f4f4f4;}.cls-13{fill:#f3f3f3;}.cls-14{fill:#f2f2f2;}.cls-15{fill:#f1f1f1;}.cls-16{fill:#f0f0f0;}.cls-17{fill:#efefef;}.cls-18{fill:#eee;}.cls-19{fill:#ededed;}.cls-20{fill:#ececec;}.cls-21{fill:#ebebeb;}.cls-22{fill:#eaeaea;}.cls-23{fill:#e9e9e9;}.cls-24{fill:#e8e8e8;}.cls-25{fill:#e7e7e7;}.cls-26{fill:#e6e6e6;}.cls-27{fill:#e5e5e5;}.cls-28{fill:#e4e4e4;}.cls-29{fill:#e3e3e3;}.cls-30{fill:#e2e2e2;}.cls-31{fill:#e1e1e1;}.cls-32{fill:#e0e0e0;}.cls-33{fill:#dfdfdf;}.cls-34{fill:#dedede;}.cls-35{fill:#ddd;}.cls-36{fill:#dcdcdc;}.cls-37{fill:#dbdbdb;}.cls-38{fill:#dadada;}.cls-39{fill:#d9d9d9;}.cls-40{fill:#d8d8d8;}.cls-41{fill:#d7d7d7;}.cls-42{fill:#d6d6d6;}.cls-43{fill:#d5d5d5;}.cls-44{fill:#d4d4d4;}.cls-45{fill:#d3d3d3;}.cls-46{fill:#d2d2d2;}.cls-47{fill:#d1d1d1;}.cls-48{fill:#d0d0d0;}.cls-49{fill:#cfcfcf;}.cls-50{fill:#cecece;}.cls-51{fill:#cdcdcd;}.cls-52{fill:#ccc;}.cls-53{fill:#cbcbcb;}.cls-54{fill:#cacaca;}.cls-55{fill:#c9c9c9;}.cls-56{fill:#c8c8c8;}.cls-57{fill:#c7c7c7;}.cls-58{fill:#c6c6c6;}.cls-59{fill:#c5c5c5;}.cls-60{fill:#c4c4c4;}.cls-61{fill:#c3c3c3;}.cls-62{fill:#c2c2c2;}.cls-63{fill:#c1c1c1;}.cls-64{fill:silver;}.cls-65{fill:#bfbfbf;}.cls-66{fill:#bebebe;}.cls-67{fill:#bdbdbd;}.cls-68{fill:#bcbcbc;}.cls-69{fill:#bbb;}.cls-70{fill:#bababa;}.cls-71{fill:#b9b9b9;}.cls-72{fill:#b8b8b8;}.cls-73{fill:#b7b7b7;}.cls-74{fill:#b6b6b6;}.cls-75{fill:#b5b5b5;}.cls-76{fill:#b4b4b4;}.cls-77{fill:#b3b3b3;}.cls-78{fill:#b2b2b2;}.cls-79{fill:#b1b1b1;}.cls-80{fill:#b0b0b0;}.cls-81{fill:#afafaf;}</style></defs><title>Phone</title><g id="Layer_2" data-name="Layer 2"><g id="All"><g id="Phone"><path class="cls-1" d="M24,21.68c-2.58,1.55-6.28,1-8.3,3.23-2.7,3,0,7.55.51,11.53a20.22,20.22,0,0,0,.58,4.48,5.32,5.32,0,0,0,7.32,2.68c1.54,3.27,5.26,4.75,8.45,6.44s6.51,4.62,6,8.2C37.93,62.31,33.05,64,29,64.77c-3.07.61-6.42,1.18-9.18-.28s-4.11-4.42-6.3-6.53c-1.9-1.85-4.39-3-6.12-5C5.46,50.68,4.69,47.67,4,44.78L1.76,35.72c-1.57-6.36-3-13.43.08-19.18,1.28-2.34,3.22-4.24,4.74-6.42C10.16,5,15.93-4.32,22.86,2.28,26.92,6.14,29.68,18.25,24,21.68Z"/><path class="cls-2" d="M6.6,10.21c3.18-4.58,8.09-12.43,14-9.42a9.11,9.11,0,0,1,2.2,1.6,15.59,15.59,0,0,1,3.64,7.22c1.15,4.68.81,10-2.65,12.09A12.46,12.46,0,0,1,20,23c-1.68.37-3.31.76-4.43,2-1.54,1.72-1.31,4-.73,6.3a51.92,51.92,0,0,1,1.24,5.19,20.65,20.65,0,0,0,.59,4.46,5.4,5.4,0,0,0,5.83,3.22A4.57,4.57,0,0,0,24,43.63c1.54,3.25,5.24,4.74,8.42,6.42a15.43,15.43,0,0,1,4,2.89,6.36,6.36,0,0,1,2,5.23c-.31,2.28-2,3.8-4.07,4.85A22.32,22.32,0,0,1,29,64.68a29.38,29.38,0,0,1-4.38.6,9.12,9.12,0,0,1-4.76-.92c-2.68-1.42-4.11-4.39-6.28-6.5-1.9-1.84-4.37-3-6.09-5C5.53,50.59,4.76,47.6,4,44.72s-1.49-6-2.23-9c-1.55-6.31-3-13.34.09-19.08C3.16,14.27,5.09,12.38,6.6,10.21Z"/><path class="cls-3" d="M6.62,10.3c3.15-4.59,8.05-12.4,14-9.39a9.07,9.07,0,0,1,2.19,1.6,15.33,15.33,0,0,1,3.55,7.18c1.1,4.64.74,9.92-2.69,12A12.16,12.16,0,0,1,19.91,23c-1.65.38-3.27.78-4.38,2C14,26.75,14.24,29,14.81,31.31c.41,1.72,1,3.5,1.24,5.17a20.39,20.39,0,0,0,.6,4.44,5.4,5.4,0,0,0,5.79,3.23,4.39,4.39,0,0,0,1.44-.49c1.54,3.24,5.21,4.74,8.39,6.39a15.77,15.77,0,0,1,4,2.87,6.34,6.34,0,0,1,2,5.18c-.3,2.27-1.93,3.79-4,4.85A22.11,22.11,0,0,1,29,64.59a29.22,29.22,0,0,1-4.37.58,9.27,9.27,0,0,1-4.73-.94c-2.67-1.42-4.1-4.37-6.27-6.47-1.88-1.83-4.34-3-6.06-5-1.94-2.24-2.72-5.23-3.44-8.1s-1.5-6-2.23-9c-1.54-6.27-3-13.27.09-19C3.21,14.35,5.12,12.46,6.62,10.3Z"/><path class="cls-4" d="M6.63,10.38C9.79,5.8,14.65-2,20.59,1a8.59,8.59,0,0,1,2.18,1.6,15,15,0,0,1,3.46,7.14c1.06,4.6.68,9.85-2.72,12a12.3,12.3,0,0,1-3.71,1.3c-1.64.39-3.24.8-4.34,2C14,26.8,14.18,29,14.74,31.35c.42,1.72,1,3.49,1.25,5.15a20.3,20.3,0,0,0,.61,4.42,5.41,5.41,0,0,0,5.75,3.24,4.28,4.28,0,0,0,1.43-.46c1.54,3.22,5.19,4.72,8.36,6.36a15.57,15.57,0,0,1,4,2.83A6.31,6.31,0,0,1,38.17,58c-.27,2.25-1.87,3.77-3.93,4.83a20.84,20.84,0,0,1-5.3,1.63,28.61,28.61,0,0,1-4.34.55,9.18,9.18,0,0,1-4.71-1c-2.66-1.42-4.09-4.35-6.25-6.44-1.88-1.83-4.33-3-6-5-1.93-2.24-2.72-5.21-3.44-8.07s-1.5-6-2.23-9C.4,29.39-1,22.43,2,16.73,3.26,14.42,5.15,12.54,6.63,10.38Z"/><path class="cls-5" d="M6.65,10.47c3.14-4.59,8-12.31,13.92-9.33a8.88,8.88,0,0,1,2.17,1.6,14.82,14.82,0,0,1,3.37,7.11c1,4.56.62,9.78-2.75,11.92a12.53,12.53,0,0,1-3.68,1.32,7.83,7.83,0,0,0-4.29,2.06c-1.48,1.71-1.27,3.93-.71,6.24.41,1.71,1,3.47,1.24,5.13a20.84,20.84,0,0,0,.62,4.41,5.44,5.44,0,0,0,5.72,3.25,4.52,4.52,0,0,0,1.42-.45c1.55,3.2,5.17,4.71,8.33,6.34a15.58,15.58,0,0,1,4,2.8,6.3,6.3,0,0,1,2.1,5.1c-.26,2.24-1.83,3.76-3.86,4.83a20.26,20.26,0,0,1-5.28,1.61,28.48,28.48,0,0,1-4.32.53,9.38,9.38,0,0,1-4.7-1c-2.64-1.42-4.07-4.33-6.23-6.42-1.87-1.82-4.3-3-6-5-1.93-2.23-2.72-5.19-3.45-8s-1.51-6-2.24-9c-1.5-6.17-2.91-13.1.1-18.78C3.31,14.49,5.18,12.62,6.65,10.47Z"/><path class="cls-6" d="M6.66,10.56c3.13-4.6,8-12.28,13.88-9.3a8.45,8.45,0,0,1,2.17,1.6A14.53,14.53,0,0,1,26,9.92c1,4.53.56,9.72-2.78,11.87a12.33,12.33,0,0,1-3.64,1.34,7.78,7.78,0,0,0-4.24,2.08c-1.48,1.71-1.26,3.91-.71,6.22.41,1.71,1,3.46,1.24,5.11a20.66,20.66,0,0,0,.63,4.39,5.45,5.45,0,0,0,5.68,3.26,4.12,4.12,0,0,0,1.41-.43c1.55,3.19,5.15,4.7,8.3,6.32a15.86,15.86,0,0,1,3.95,2.76,6.28,6.28,0,0,1,2.11,5.07c-.24,2.22-1.78,3.74-3.78,4.81a19.37,19.37,0,0,1-5.26,1.6,27.1,27.1,0,0,1-4.31.5,9.38,9.38,0,0,1-4.67-1c-2.63-1.42-4.06-4.31-6.21-6.39-1.87-1.81-4.28-3-6-5-1.92-2.22-2.72-5.16-3.45-8S2.76,38.52,2,35.54c-1.49-6.12-2.88-13,.11-18.69C3.36,14.57,5.21,12.7,6.66,10.56Z"/><path class="cls-7" d="M6.68,10.65C9.8,6,14.59-1.59,20.52,1.38A8.19,8.19,0,0,1,22.68,3c1.52,1.52,2.61,4.17,3.2,7,.9,4.49.49,9.65-2.82,11.81a12.23,12.23,0,0,1-3.6,1.36,7.75,7.75,0,0,0-4.2,2.1c-1.46,1.71-1.25,3.9-.7,6.2.41,1.7,1,3.45,1.23,5.09a21.25,21.25,0,0,0,.65,4.37,5.48,5.48,0,0,0,5.64,3.28,4.28,4.28,0,0,0,1.4-.42c1.55,3.18,5.12,4.7,8.27,6.3a16,16,0,0,1,3.94,2.73,6.24,6.24,0,0,1,2.13,5c-.22,2.2-1.73,3.73-3.7,4.81a19,19,0,0,1-5.24,1.58,28.17,28.17,0,0,1-4.29.48,9.34,9.34,0,0,1-4.65-1c-2.62-1.42-4.06-4.29-6.2-6.36-1.86-1.81-4.25-3-5.95-5-1.91-2.21-2.72-5.15-3.46-8S2.81,38.48,2.1,35.5C.62,29.43-.76,22.56,2.21,16.92,3.41,14.64,5.24,12.78,6.68,10.65Z"/><path class="cls-8" d="M6.7,10.74C9.8,6.12,14.57-1.46,20.5,1.5a8.36,8.36,0,0,1,2.16,1.59c1.5,1.53,2.55,4.16,3.1,7,.86,4.45.42,9.58-2.85,11.75a12.09,12.09,0,0,1-3.57,1.38,7.74,7.74,0,0,0-4.15,2.12C13.75,27,14,29.22,14.5,31.51c.4,1.69,1,3.43,1.23,5.07a19.71,19.71,0,0,0,.66,4.35A5.49,5.49,0,0,0,22,44.22a3.91,3.91,0,0,0,1.39-.4c1.55,3.16,5.1,4.69,8.23,6.27a15.93,15.93,0,0,1,3.94,2.7,6.27,6.27,0,0,1,2.16,5C37.5,60,36,61.49,34.08,62.58a18.32,18.32,0,0,1-5.23,1.56,27.75,27.75,0,0,1-4.26.46,9.37,9.37,0,0,1-4.63-1c-2.61-1.41-4.05-4.27-6.18-6.33-1.85-1.8-4.24-3-5.92-5C6,50.08,5.13,47.16,4.39,44.34s-1.52-5.91-2.24-8.88C.69,29.44-.67,22.61,2.27,17,3.46,14.71,5.27,12.86,6.7,10.74Z"/><path class="cls-9" d="M6.71,10.82C9.8,6.2,14.56-1.34,20.48,1.62a8.16,8.16,0,0,1,2.15,1.59c1.49,1.53,2.49,4.14,3,7,.81,4.41.36,9.51-2.88,11.7a12.56,12.56,0,0,1-3.53,1.39,7.75,7.75,0,0,0-4.11,2.14c-1.42,1.7-1.22,3.88-.68,6.16.4,1.69,1,3.42,1.23,5.06a20.14,20.14,0,0,0,.66,4.32,5.53,5.53,0,0,0,5.57,3.31,4.37,4.37,0,0,0,1.38-.39c1.55,3.15,5.08,4.68,8.2,6.25a16,16,0,0,1,3.94,2.67,6.2,6.2,0,0,1,2.17,4.94C37.41,59.88,36,61.41,34,62.5a17.86,17.86,0,0,1-5.21,1.55,26.39,26.39,0,0,1-4.25.43,9.39,9.39,0,0,1-4.6-1c-2.6-1.42-4-4.25-6.17-6.31-1.84-1.8-4.21-3-5.89-5C6,50,5.2,47.09,4.45,44.28s-1.53-5.89-2.24-8.85C.76,29.45-.58,22.65,2.33,17,3.5,14.79,5.3,12.94,6.71,10.82Z"/><path class="cls-10" d="M6.73,10.91C9.8,6.28,14.54-1.21,20.46,1.74A7.76,7.76,0,0,1,22.6,3.33c1.48,1.53,2.43,4.13,2.92,6.91.76,4.37.31,9.44-2.92,11.64a12,12,0,0,1-3.49,1.41,7.74,7.74,0,0,0-4.06,2.16c-1.41,1.7-1.21,3.87-.67,6.14.39,1.68,1,3.41,1.22,5a20.51,20.51,0,0,0,.68,4.3,5.52,5.52,0,0,0,5.53,3.32,4.69,4.69,0,0,0,1.38-.36c1.54,3.13,5,4.66,8.16,6.22a16.28,16.28,0,0,1,3.93,2.63,6.19,6.19,0,0,1,2.19,4.9c-.16,2.16-1.58,3.69-3.47,4.79A17.49,17.49,0,0,1,28.81,64a27.41,27.41,0,0,1-4.23.41,9.55,9.55,0,0,1-4.58-1c-2.58-1.41-4-4.23-6.15-6.28-1.84-1.79-4.19-3-5.86-5-1.9-2.2-2.73-5.09-3.48-7.89S3,38.35,2.26,35.39C.83,29.46-.49,22.7,2.39,17.11,3.55,14.86,5.33,13,6.73,10.91Z"/><path class="cls-11" d="M6.75,11C9.81,6.36,14.52-1.08,20.44,1.86a7.82,7.82,0,0,1,2.13,1.58C24,5,24.94,7.56,25.4,10.32c.72,4.33.24,9.37-2.95,11.58A11.77,11.77,0,0,1,19,23.33a7.72,7.72,0,0,0-4,2.18c-1.39,1.7-1.19,3.86-.66,6.12.39,1.68,1,3.4,1.22,5a19.81,19.81,0,0,0,.69,4.28,5.53,5.53,0,0,0,5.49,3.33,4.24,4.24,0,0,0,1.37-.34c1.54,3.11,5,4.66,8.13,6.2a15.92,15.92,0,0,1,3.92,2.6,6.18,6.18,0,0,1,2.22,4.85c-.15,2.15-1.54,3.68-3.4,4.79a17,17,0,0,1-5.17,1.51,24.87,24.87,0,0,1-4.21.38,9.48,9.48,0,0,1-4.56-1C17.45,61.8,16,59,13.88,57,12.05,55.18,9.71,54,8.05,52c-1.89-2.2-2.73-5.08-3.48-7.87S3,38.3,2.32,35.36C.9,29.48-.4,22.74,2.45,17.17,3.6,14.93,5.36,13.1,6.75,11Z"/><path class="cls-12" d="M6.76,11.09C9.81,6.44,14.5-1,20.42,2a7.64,7.64,0,0,1,2.12,1.58c1.46,1.55,2.31,4.1,2.74,6.83.67,4.3.18,9.31-3,11.53a12.28,12.28,0,0,1-3.41,1.46,7.55,7.55,0,0,0-4,2.19c-1.38,1.7-1.19,3.85-.66,6.1.39,1.67,1,3.38,1.22,5a20.15,20.15,0,0,0,.69,4.26,5.6,5.6,0,0,0,5.47,3.35A4.53,4.53,0,0,0,23,44c1.54,3.1,5,4.65,8.1,6.17A16.49,16.49,0,0,1,35,52.69a6.18,6.18,0,0,1,2.23,4.82,6.06,6.06,0,0,1-3.32,4.77,16.9,16.9,0,0,1-5.15,1.5,25.79,25.79,0,0,1-4.2.36A9.5,9.5,0,0,1,20,63.08c-2.56-1.41-4-4.18-6.12-6.22-1.83-1.78-4.15-3-5.81-4.93-1.88-2.19-2.73-5.06-3.49-7.84s-1.54-5.83-2.24-8.77C1,29.49-.31,22.79,2.51,17.23,3.65,15,5.39,13.18,6.76,11.09Z"/><path class="cls-13" d="M6.78,11.18c3-4.66,7.7-12,13.61-9.08a7.18,7.18,0,0,1,2.12,1.58c1.45,1.55,2.26,4.08,2.65,6.79.62,4.26.12,9.24-3,11.48a12.13,12.13,0,0,1-3.38,1.47,7.65,7.65,0,0,0-3.92,2.21c-1.36,1.69-1.18,3.84-.65,6.08.38,1.67,1,3.37,1.21,5a20.64,20.64,0,0,0,.71,4.24,5.59,5.59,0,0,0,5.43,3.36A4.09,4.09,0,0,0,22.89,44c1.55,3.09,5,4.64,8.07,6.15a16.31,16.31,0,0,1,3.91,2.54,6.18,6.18,0,0,1,2.26,4.77,6.06,6.06,0,0,1-3.25,4.77,16.45,16.45,0,0,1-5.14,1.48,26.55,26.55,0,0,1-4.17.34A9.53,9.53,0,0,1,20.06,63c-2.55-1.4-4-4.16-6.1-6.19-1.82-1.77-4.13-3-5.78-4.92-1.88-2.19-2.73-5-3.5-7.81s-1.55-5.82-2.25-8.75c-1.38-5.78-2.66-12.45.14-18C3.69,15.08,5.43,13.25,6.78,11.18Z"/><path class="cls-14" d="M6.8,11.26c3-4.66,7.66-12,13.57-9A7,7,0,0,1,22.48,3.8c1.44,1.55,2.2,4.07,2.56,6.75.57,4.22.06,9.18-3,11.42a12.37,12.37,0,0,1-3.34,1.49,7.63,7.63,0,0,0-3.88,2.23c-1.35,1.69-1.16,3.83-.65,6.06.39,1.66.95,3.36,1.22,5a19.82,19.82,0,0,0,.72,4.22,5.64,5.64,0,0,0,5.39,3.38,4.29,4.29,0,0,0,1.33-.3c1.55,3.07,5,4.63,8,6.13a16.41,16.41,0,0,1,3.9,2.5A6.15,6.15,0,0,1,37,57.37a6,6,0,0,1-3.17,4.77,16.31,16.31,0,0,1-5.12,1.47,26.34,26.34,0,0,1-4.15.3,9.6,9.6,0,0,1-4.49-1.08c-2.54-1.41-4-4.15-6.09-6.17-1.81-1.76-4.11-3-5.75-4.91-1.87-2.18-2.73-5-3.5-7.79s-1.55-5.79-2.25-8.71c-1.37-5.74-2.63-12.38.14-17.89C3.74,15.15,5.46,13.33,6.8,11.26Z"/><path class="cls-15" d="M6.81,11.35c3-4.67,7.63-11.93,13.54-9a7.33,7.33,0,0,1,2.1,1.58c1.43,1.56,2.14,4.06,2.48,6.72.52,4.18,0,9.11-3.08,11.36a12.24,12.24,0,0,1-3.31,1.51,7.63,7.63,0,0,0-3.83,2.25c-1.33,1.69-1.15,3.82-.64,6,.38,1.66.95,3.35,1.21,4.94A20.51,20.51,0,0,0,16,40.94a5.66,5.66,0,0,0,5.35,3.38,4.2,4.2,0,0,0,1.32-.27c1.55,3.05,4.94,4.62,8,6.1a16.36,16.36,0,0,1,3.91,2.47,6.1,6.1,0,0,1,2.29,4.69,5.92,5.92,0,0,1-3.09,4.75,15.92,15.92,0,0,1-5.1,1.46,26.11,26.11,0,0,1-4.14.28,9.62,9.62,0,0,1-4.46-1.1c-2.53-1.41-4-4.13-6.07-6.14-1.81-1.76-4.09-3-5.73-4.9-1.86-2.18-2.73-5-3.5-7.76s-1.56-5.77-2.25-8.69C1.2,29.52,0,22.92,2.69,17.42,3.79,15.22,5.49,13.41,6.81,11.35Z"/><path class="cls-16" d="M6.83,11.44c3-4.68,7.59-11.89,13.5-9A7,7,0,0,1,22.42,4c1.42,1.56,2.08,4,2.39,6.68.47,4.14-.07,9-3.12,11.3a12,12,0,0,1-3.26,1.53,7.66,7.66,0,0,0-3.79,2.27c-1.31,1.69-1.14,3.81-.63,6,.38,1.65.94,3.33,1.21,4.92A20.89,20.89,0,0,0,16,40.94a5.69,5.69,0,0,0,5.32,3.39,4.12,4.12,0,0,0,1.31-.25c1.55,3,4.91,4.61,8,6.07a17.05,17.05,0,0,1,3.9,2.44,6.1,6.1,0,0,1,2.32,4.65,5.91,5.91,0,0,1-3,4.75,15.52,15.52,0,0,1-5.08,1.44,25.9,25.9,0,0,1-4.12.25,9.55,9.55,0,0,1-4.44-1.11c-2.52-1.4-4-4.1-6.06-6.11-1.8-1.75-4.06-3-5.69-4.89-1.86-2.17-2.74-5-3.51-7.73S3.29,38.08,2.6,35.17C1.27,29.53,0,23,2.75,17.48,3.84,15.3,5.52,13.49,6.83,11.44Z"/><path class="cls-17" d="M6.84,11.53c3-4.7,7.56-11.85,13.47-9a6.8,6.8,0,0,1,2.08,1.58c1.41,1.56,2,4,2.3,6.64.42,4.1-.13,9-3.15,11.24a11.87,11.87,0,0,1-3.23,1.55,7.66,7.66,0,0,0-3.74,2.29c-1.29,1.69-1.12,3.8-.62,6,.37,1.63.93,3.31,1.21,4.89a19.51,19.51,0,0,0,.75,4.17,5.72,5.72,0,0,0,5.28,3.41,4,4,0,0,0,1.3-.24c1.55,3,4.89,4.6,7.94,6a16.67,16.67,0,0,1,3.89,2.41,6.09,6.09,0,0,1,2.34,4.6,5.85,5.85,0,0,1-2.94,4.74,14.91,14.91,0,0,1-5.07,1.43,25.57,25.57,0,0,1-4.1.23,9.73,9.73,0,0,1-4.41-1.13c-2.51-1.4-4-4.08-6-6.08-1.8-1.75-4-3-5.67-4.88-1.85-2.17-2.73-5-3.51-7.7S3.34,38,2.66,35.14C1.34,29.54.13,23,2.81,17.55,3.89,15.37,5.55,13.57,6.84,11.53Z"/><path class="cls-18" d="M6.86,11.62c3-4.71,7.53-11.82,13.43-8.93a6.76,6.76,0,0,1,2.07,1.57c1.4,1.57,2,4,2.21,6.6.38,4.07-.19,8.91-3.18,11.2a12.43,12.43,0,0,1-3.19,1.56,7.58,7.58,0,0,0-3.69,2.31c-1.28,1.68-1.12,3.79-.62,6,.37,1.63.93,3.3,1.2,4.87a19.87,19.87,0,0,0,.77,4.15,5.74,5.74,0,0,0,5.24,3.42,3.93,3.93,0,0,0,1.29-.22c1.55,3,4.87,4.59,7.91,6a16.94,16.94,0,0,1,3.89,2.37,6.08,6.08,0,0,1,2.35,4.57,5.81,5.81,0,0,1-2.86,4.73,14.84,14.84,0,0,1-5.05,1.41,25.36,25.36,0,0,1-4.08.21,9.91,9.91,0,0,1-4.39-1.14c-2.5-1.4-4-4.07-6-6.06-1.78-1.74-4-3-5.64-4.87-1.84-2.16-2.73-5-3.52-7.68S3.4,38,2.72,35.1c-1.31-5.54-2.51-12,.16-17.49C3.93,15.44,5.58,13.65,6.86,11.62Z"/><path class="cls-19" d="M6.88,11.7C9.83,7,14.37-.07,20.27,2.81a6.73,6.73,0,0,1,2.06,1.57c1.39,1.57,1.91,4,2.12,6.56.33,4-.26,8.84-3.21,11.14a12.09,12.09,0,0,1-3.15,1.58A7.62,7.62,0,0,0,14.44,26c-1.27,1.68-1.11,3.78-.61,6,.37,1.62.92,3.28,1.2,4.85a20.35,20.35,0,0,0,.77,4.13A5.82,5.82,0,0,0,21,44.38a4.25,4.25,0,0,0,1.29-.21c1.54,3,4.84,4.59,7.87,6a16.77,16.77,0,0,1,3.88,2.34A6.06,6.06,0,0,1,36.43,57a5.79,5.79,0,0,1-2.79,4.73,14.42,14.42,0,0,1-5,1.39,25.14,25.14,0,0,1-4.06.18,9.88,9.88,0,0,1-4.38-1.15c-2.48-1.4-4-4-6-6-1.78-1.73-4-3-5.61-4.86C6.72,49.14,5.82,46.36,5,43.65S3.45,38,2.77,35.07c-1.29-5.5-2.47-12,.17-17.4C4,15.52,5.61,13.73,6.88,11.7Z"/><path class="cls-20" d="M6.89,11.79C9.83,7.07,14.35.05,20.24,2.93A6.5,6.5,0,0,1,22.31,4.5c1.37,1.57,1.84,4,2,6.52.28,4-.32,8.77-3.24,11.08A12.13,12.13,0,0,1,18,23.7a7.71,7.71,0,0,0-3.6,2.35c-1.25,1.68-1.09,3.77-.6,5.95.36,1.62.91,3.27,1.19,4.84a20.22,20.22,0,0,0,.79,4.1,5.84,5.84,0,0,0,5.17,3.45,4.22,4.22,0,0,0,1.28-.19c1.54,3,4.81,4.58,7.84,6a17.32,17.32,0,0,1,3.87,2.31A6.06,6.06,0,0,1,36.31,57a5.7,5.7,0,0,1-2.71,4.71,13.94,13.94,0,0,1-5,1.38,25,25,0,0,1-4.05.16,10,10,0,0,1-4.35-1.17c-2.47-1.4-4-4-6-6-1.77-1.73-4-3-5.58-4.85-1.83-2.15-2.73-4.92-3.53-7.62S3.5,37.91,2.83,35C1.55,29.58.39,23.14,3,17.74,4,15.59,5.64,13.81,6.89,11.79Z"/><path class="cls-21" d="M6.91,11.88C9.84,7.15,14.33.18,20.22,3.05a6.43,6.43,0,0,1,2.06,1.56c1.36,1.58,1.78,4,1.93,6.49.24,4-.38,8.7-3.27,11a12.12,12.12,0,0,1-3.08,1.62,7.71,7.71,0,0,0-3.56,2.37c-1.23,1.68-1.08,3.76-.59,5.93.36,1.61.9,3.26,1.19,4.82a20,20,0,0,0,.8,4.08,5.85,5.85,0,0,0,5.13,3.47,4.43,4.43,0,0,0,1.27-.17c1.54,3,4.79,4.56,7.81,5.95a17.43,17.43,0,0,1,3.87,2.28,6,6,0,0,1,2.42,4.44,5.71,5.71,0,0,1-2.64,4.71,13.8,13.8,0,0,1-5,1.36,23.5,23.5,0,0,1-4,.13,9.88,9.88,0,0,1-4.33-1.18c-2.46-1.39-3.94-4-6-6-1.77-1.72-4-3-5.55-4.84C6.86,49,6,46.22,5.15,43.53S3.56,37.86,2.89,35c-1.27-5.4-2.41-11.8.17-17.19C4.08,15.66,5.67,13.89,6.91,11.88Z"/><path class="cls-22" d="M6.93,12C9.84,7.23,14.31.31,20.2,3.17a6.29,6.29,0,0,1,2.05,1.56c1.35,1.59,1.72,4,1.85,6.45.18,3.91-.45,8.63-3.31,11a12.33,12.33,0,0,1-3.05,1.64,7.73,7.73,0,0,0-3.51,2.39c-1.21,1.68-1.07,3.75-.58,5.91.35,1.61.9,3.25,1.19,4.8a19.87,19.87,0,0,0,.81,4.06,5.87,5.87,0,0,0,5.09,3.48A4.35,4.35,0,0,0,22,44.27c1.55,2.95,4.77,4.55,7.77,5.93a17.07,17.07,0,0,1,3.87,2.24,6,6,0,0,1,2.44,4.4,5.68,5.68,0,0,1-2.56,4.71,13.42,13.42,0,0,1-5,1.34,24.34,24.34,0,0,1-4,.11,10.08,10.08,0,0,1-4.31-1.19c-2.45-1.4-3.93-4-6-6-1.76-1.71-3.93-3-5.52-4.83a20.34,20.34,0,0,1-3.54-7.57c-.85-2.8-1.6-5.64-2.27-8.5C1.7,29.6.57,23.23,3.12,17.86,4.13,15.74,5.7,14,6.93,12Z"/><path class="cls-23" d="M6.94,12.06C9.84,7.31,14.29.43,20.18,3.29a6.12,6.12,0,0,1,2,1.56c1.34,1.59,1.66,3.94,1.76,6.41.13,3.87-.51,8.56-3.35,10.91a12.43,12.43,0,0,1-3,1.66,7.68,7.68,0,0,0-3.47,2.4C13,27.9,13.11,30,13.59,32.12c.35,1.6.89,3.23,1.18,4.78a20.25,20.25,0,0,0,.82,4,5.93,5.93,0,0,0,5.06,3.49,4,4,0,0,0,1.25-.13c1.55,2.93,4.75,4.55,7.74,5.91a17.5,17.5,0,0,1,3.86,2.21A6,6,0,0,1,36,56.78a5.63,5.63,0,0,1-2.48,4.69,13,13,0,0,1-5,1.33,24.21,24.21,0,0,1-4,.09,10.12,10.12,0,0,1-4.28-1.21c-2.44-1.4-3.92-4-5.94-5.92-1.75-1.71-3.91-3-5.5-4.82A20.69,20.69,0,0,1,5.26,43.4c-.84-2.79-1.6-5.62-2.26-8.48-1.23-5.3-2.34-11.64.18-17C4.18,15.81,5.73,14,6.94,12.06Z"/><path class="cls-24" d="M7,12.15C9.84,7.39,14.27.56,20.16,3.4a6.16,6.16,0,0,1,2,1.57c1.33,1.59,1.61,3.93,1.67,6.37.08,3.83-.57,8.49-3.38,10.85a12.61,12.61,0,0,1-3,1.68,7.66,7.66,0,0,0-3.42,2.41c-1.19,1.68-1,3.74-.58,5.88.36,1.6.89,3.22,1.19,4.76a20.21,20.21,0,0,0,.83,4,6,6,0,0,0,5,3.51,4.18,4.18,0,0,0,1.23-.12c1.55,2.92,4.72,4.54,7.71,5.88a18.15,18.15,0,0,1,3.85,2.18,6,6,0,0,1,2.49,4.32,5.62,5.62,0,0,1-2.41,4.69,12.87,12.87,0,0,1-4.94,1.31,22.92,22.92,0,0,1-4,.06,10.24,10.24,0,0,1-4.26-1.22c-2.42-1.39-3.92-3.94-5.93-5.89-1.74-1.7-3.89-3-5.46-4.81a20.82,20.82,0,0,1-3.56-7.51Q4,39.15,3.05,34.88C1.84,29.63.75,23.32,3.24,18,4.22,15.88,5.76,14.12,7,12.15Z"/><path class="cls-25" d="M7,12.23C9.84,7.47,14.25.69,20.14,3.52a6.12,6.12,0,0,1,2,1.56c1.32,1.6,1.55,3.92,1.58,6.33,0,3.8-.63,8.43-3.41,10.8a12.7,12.7,0,0,1-2.93,1.7A7.69,7.69,0,0,0,14,26.34c-1.17,1.68-1,3.73-.57,5.86.35,1.59.89,3.21,1.18,4.74a20.15,20.15,0,0,0,.85,4,6,6,0,0,0,5,3.51,3.81,3.81,0,0,0,1.22-.1c1.55,2.91,4.7,4.53,7.68,5.86a17.86,17.86,0,0,1,3.85,2.15,6,6,0,0,1,2.5,4.27,5.57,5.57,0,0,1-2.33,4.69,12.61,12.61,0,0,1-4.92,1.29,22.68,22.68,0,0,1-3.95,0,10.28,10.28,0,0,1-4.24-1.24c-2.41-1.39-3.91-3.92-5.91-5.86-1.74-1.7-3.87-3-5.44-4.8a20.81,20.81,0,0,1-3.56-7.49q-1.27-4.16-2.27-8.42c-1.2-5.21-2.27-11.48.19-16.8C4.27,16,5.79,14.2,7,12.23Z"/><path class="cls-26" d="M7,12.32C9.85,7.55,14.24.81,20.11,3.64a6,6,0,0,1,2,1.56c1.31,1.6,1.49,3.9,1.49,6.29,0,3.76-.7,8.36-3.44,10.74A12.75,12.75,0,0,1,17.29,24,7.75,7.75,0,0,0,14,26.4c-1.15,1.68-1,3.72-.56,5.84.35,1.58.88,3.2,1.18,4.72a19.31,19.31,0,0,0,.86,4,6.06,6.06,0,0,0,5,3.53,4,4,0,0,0,1.21-.09c1.55,2.89,4.68,4.52,7.65,5.84a18.08,18.08,0,0,1,3.84,2.11,6,6,0,0,1,2.53,4.24,5.54,5.54,0,0,1-2.26,4.67,12.13,12.13,0,0,1-4.91,1.28,22.43,22.43,0,0,1-3.93,0,10.21,10.21,0,0,1-4.21-1.25c-2.4-1.38-3.9-3.89-5.9-5.83-1.73-1.69-3.84-3-5.41-4.79a20.92,20.92,0,0,1-3.56-7.46c-.86-2.76-1.62-5.57-2.27-8.4C2,29.65.93,23.41,3.36,18.12A63.23,63.23,0,0,1,7,12.32Z"/><path class="cls-27" d="M7,12.41C9.85,7.63,14.22.94,20.09,3.76a5.74,5.74,0,0,1,2,1.56c1.3,1.6,1.43,3.89,1.4,6.25-.06,3.72-.76,8.29-3.47,10.68A12.66,12.66,0,0,1,17.17,24a7.88,7.88,0,0,0-3.28,2.47c-1.14,1.67-1,3.71-.55,5.82.34,1.58.87,3.18,1.18,4.7a19.79,19.79,0,0,0,.86,4,6.13,6.13,0,0,0,4.92,3.54,4,4,0,0,0,1.2-.06c1.55,2.87,4.66,4.51,7.62,5.81A18.14,18.14,0,0,1,33,52.32a5.93,5.93,0,0,1,2.55,4.19,5.53,5.53,0,0,1-2.18,4.67,12,12,0,0,1-4.89,1.26,22.19,22.19,0,0,1-3.91,0,10.4,10.4,0,0,1-4.19-1.26c-2.39-1.39-3.89-3.88-5.88-5.81-1.73-1.68-3.83-3-5.38-4.78A20.72,20.72,0,0,1,5.5,43.15c-.87-2.75-1.63-5.55-2.28-8.37-1.17-5.12-2.21-11.33.2-16.6A62.37,62.37,0,0,1,7,12.41Z"/><path class="cls-28" d="M7,12.5C9.85,7.7,14.2,1.07,20.07,3.88a5.71,5.71,0,0,1,2,1.55c1.29,1.61,1.37,3.88,1.31,6.22-.1,3.68-.82,8.22-3.5,10.63A13.21,13.21,0,0,1,17.06,24a7.89,7.89,0,0,0-3.24,2.49c-1.12,1.67-1,3.7-.54,5.8.34,1.57.86,3.17,1.17,4.68a20.34,20.34,0,0,0,.88,4,6.16,6.16,0,0,0,4.88,3.55,4.28,4.28,0,0,0,1.19,0C23,47.32,26,49,29,50.25a18.72,18.72,0,0,1,3.83,2,6,6,0,0,1,2.56,4.15,5.46,5.46,0,0,1-2.11,4.66,11.73,11.73,0,0,1-4.86,1.26,23.08,23.08,0,0,1-3.9,0A10.5,10.5,0,0,1,20.35,61c-2.38-1.39-3.89-3.86-5.86-5.78-1.72-1.68-3.81-2.94-5.36-4.77a21,21,0,0,1-3.57-7.4c-.87-2.75-1.64-5.53-2.28-8.35-1.16-5.07-2.18-11.24.2-16.5A65,65,0,0,1,7,12.5Z"/><path class="cls-29" d="M7,12.59c2.81-4.81,7.14-11.4,13-8.59a5.59,5.59,0,0,1,2,1.55c1.28,1.61,1.32,3.86,1.22,6.18-.14,3.64-.88,8.15-3.53,10.57a12.74,12.74,0,0,1-2.79,1.77,8,8,0,0,0-3.19,2.51c-1.1,1.67-1,3.69-.53,5.78.33,1.57.86,3.16,1.17,4.66A19.31,19.31,0,0,0,15.28,41a6.24,6.24,0,0,0,4.84,3.57,4.29,4.29,0,0,0,1.19,0c1.54,2.84,4.6,4.49,7.54,5.76a18.39,18.39,0,0,1,3.83,2,6,6,0,0,1,2.59,4.11,5.44,5.44,0,0,1-2,4.65,11.43,11.43,0,0,1-4.84,1.24,22.81,22.81,0,0,1-3.88-.07,10.42,10.42,0,0,1-4.14-1.29c-2.37-1.38-3.88-3.83-5.85-5.75-1.71-1.67-3.78-2.94-5.33-4.76A21.19,21.19,0,0,1,5.61,43C4.74,40.29,4,37.51,3.34,34.7c-1.15-5-2.15-11.16.2-16.4A64.15,64.15,0,0,1,7,12.59Z"/><path class="cls-30" d="M7.06,12.67c2.8-4.81,7.1-11.35,13-8.55a5.45,5.45,0,0,1,2,1.55c1.27,1.62,1.26,3.85,1.14,6.14-.2,3.6-.95,8.08-3.58,10.51a12.9,12.9,0,0,1-2.74,1.79,7.93,7.93,0,0,0-3.14,2.53c-1.09,1.67-1,3.68-.53,5.76.33,1.56.85,3.14,1.17,4.65a19.88,19.88,0,0,0,.89,3.9A6.32,6.32,0,0,0,20,44.53a4.23,4.23,0,0,0,1.18,0c1.54,2.83,4.58,4.48,7.51,5.74a18.66,18.66,0,0,1,3.82,2,6,6,0,0,1,2.61,4.07,5.44,5.44,0,0,1-2,4.65,11.32,11.32,0,0,1-4.83,1.22,22.45,22.45,0,0,1-3.85-.09,10.48,10.48,0,0,1-4.12-1.31C18,59.4,16.52,57,14.56,55.06c-1.71-1.66-3.77-2.94-5.3-4.75A21.16,21.16,0,0,1,5.67,43C4.79,40.24,4,37.47,3.39,34.67c-1.12-5-2.11-11.08.22-16.3A59.15,59.15,0,0,1,7.06,12.67Z"/><path class="cls-31" d="M7.07,12.76C9.86,7.94,14.14,1.45,20,4.24a5.5,5.5,0,0,1,2,1.54c1.25,1.63,1.19,3.84,1,6.1-.25,3.57-1,8-3.61,10.46a13,13,0,0,1-2.7,1.81,8,8,0,0,0-3.1,2.55c-1.07,1.67-1,3.67-.52,5.74.33,1.56.84,3.13,1.16,4.63A20.64,20.64,0,0,0,15.17,41a6.35,6.35,0,0,0,4.77,3.6,4.17,4.17,0,0,0,1.17,0c1.55,2.81,4.56,4.48,7.48,5.72a18.82,18.82,0,0,1,3.82,1.95,5.91,5.91,0,0,1,2.62,4,5.37,5.37,0,0,1-1.88,4.64,11,11,0,0,1-4.81,1.21A21.36,21.36,0,0,1,24.5,62a10.61,10.61,0,0,1-4.09-1.31c-2.35-1.39-3.86-3.8-5.82-5.7-1.7-1.66-3.74-2.93-5.27-4.75A21.15,21.15,0,0,1,5.73,42.9c-.88-2.71-1.65-5.47-2.28-8.27-1.11-4.92-2.08-11,.22-16.2A60.3,60.3,0,0,1,7.07,12.76Z"/><path class="cls-32" d="M7.09,12.85C9.86,8,14.12,1.57,20,4.36A5.39,5.39,0,0,1,22,5.9c1.24,1.63,1.14,3.82.95,6.06-.29,3.53-1.07,8-3.64,10.4a12.94,12.94,0,0,1-2.67,1.83,8.09,8.09,0,0,0-3.05,2.57c-1.06,1.66-1,3.66-.51,5.72.32,1.55.84,3.12,1.16,4.61A19.55,19.55,0,0,0,15.12,41a6.38,6.38,0,0,0,4.73,3.61,4.54,4.54,0,0,0,1.16,0c1.55,2.79,4.53,4.46,7.45,5.69a19.12,19.12,0,0,1,3.81,1.91,6,6,0,0,1,2.65,4,5.39,5.39,0,0,1-1.81,4.63A10.74,10.74,0,0,1,28.32,62a22.09,22.09,0,0,1-3.82-.14,10.84,10.84,0,0,1-4.07-1.33c-2.34-1.38-3.86-3.78-5.8-5.67-1.7-1.65-3.72-2.93-5.24-4.74a21.3,21.3,0,0,1-3.6-7.28c-.89-2.7-1.66-5.46-2.28-8.25-1.1-4.87-2-10.91.22-16.1A59.45,59.45,0,0,1,7.09,12.85Z"/><path class="cls-33" d="M7.11,12.94C9.86,8.1,14.1,1.7,20,4.47a5.26,5.26,0,0,1,2,1.55c1.23,1.63,1.08,3.81.86,6-.34,3.49-1.14,7.88-3.67,10.35a13.62,13.62,0,0,1-2.63,1.85,8,8,0,0,0-3,2.58c-1,1.66-.94,3.65-.5,5.7.32,1.54.83,3.11,1.15,4.59A19.4,19.4,0,0,0,15.07,41a6.44,6.44,0,0,0,4.69,3.62,4.09,4.09,0,0,0,1.15,0c1.55,2.78,4.51,4.46,7.42,5.66a19.52,19.52,0,0,1,3.8,1.89,5.89,5.89,0,0,1,2.67,3.94,5.38,5.38,0,0,1-1.73,4.63,10.63,10.63,0,0,1-4.77,1.17,21.81,21.81,0,0,1-3.8-.16,11.07,11.07,0,0,1-4.06-1.35c-2.32-1.38-3.84-3.75-5.78-5.64C13,53.11,11,51.83,9.45,50a21.29,21.29,0,0,1-3.6-7.26q-1.35-4-2.29-8.21c-1.08-4.83-2-10.84.23-16A57.56,57.56,0,0,1,7.11,12.94Z"/><path class="cls-34" d="M7.12,13c2.74-4.85,7-11.21,12.82-8.44a5.23,5.23,0,0,1,2,1.55c1.22,1.63,1,3.79.77,6-.39,3.45-1.2,7.81-3.7,10.29a14.33,14.33,0,0,1-2.6,1.87,8.08,8.08,0,0,0-3,2.6c-1,1.66-.92,3.64-.5,5.68.32,1.54.83,3.09,1.16,4.57A19.93,19.93,0,0,0,15,41a6.57,6.57,0,0,0,4.66,3.64,4.44,4.44,0,0,0,1.14.06c1.55,2.76,4.49,4.45,7.39,5.64A20.57,20.57,0,0,1,32,52.14a6,6,0,0,1,2.69,3.91A5.34,5.34,0,0,1,33,60.66a10.29,10.29,0,0,1-4.75,1.16,20.76,20.76,0,0,1-3.79-.19,10.94,10.94,0,0,1-4-1.36c-2.31-1.37-3.83-3.73-5.76-5.61C13,53,11,51.74,9.51,49.94A21.73,21.73,0,0,1,5.9,42.71a84.81,84.81,0,0,1-2.28-8.19c-1.07-4.77-2-10.75.23-15.9A60,60,0,0,1,7.12,13Z"/><path class="cls-35" d="M7.14,13.11C9.86,8.25,14.07,2,19.92,4.71a5.19,5.19,0,0,1,1.95,1.54c1.21,1.64,1,3.78.68,5.95-.44,3.41-1.26,7.74-3.73,10.23a14.07,14.07,0,0,1-2.56,1.89,8.11,8.11,0,0,0-2.92,2.62c-1,1.66-.91,3.63-.49,5.66.32,1.53.82,3.08,1.16,4.55A19.31,19.31,0,0,0,15,41a6.65,6.65,0,0,0,4.62,3.64,4,4,0,0,0,1.13.08c1.55,2.75,4.46,4.44,7.36,5.62a21,21,0,0,1,3.79,1.81A6,6,0,0,1,34.57,56,5.33,5.33,0,0,1,33,60.59a10.08,10.08,0,0,1-4.74,1.14,21.4,21.4,0,0,1-3.76-.21,11.31,11.31,0,0,1-4-1.37c-2.3-1.38-3.82-3.72-5.75-5.59-1.67-1.63-3.65-2.92-5.15-4.71A21.8,21.8,0,0,1,6,42.65a78.89,78.89,0,0,1-2.28-8.16c-1.06-4.73-1.95-10.68.23-15.81A60.6,60.6,0,0,1,7.14,13.11Z"/><path class="cls-36" d="M7.15,13.2C9.86,8.33,14.05,2.08,19.9,4.83a5.07,5.07,0,0,1,1.94,1.54c1.2,1.64.9,3.76.59,5.91C22,15.65,21.11,20,18.67,22.45a14.49,14.49,0,0,1-2.53,1.91A8.18,8.18,0,0,0,13.28,27c-1,1.66-.91,3.62-.49,5.64.32,1.53.82,3.07,1.15,4.53a19.7,19.7,0,0,0,1,3.79,6.69,6.69,0,0,0,4.58,3.66,4.38,4.38,0,0,0,1.12.09c1.55,2.74,4.44,4.43,7.32,5.6a20,20,0,0,1,3.79,1.78,5.89,5.89,0,0,1,2.73,3.82A5.3,5.3,0,0,1,33,60.52a10,10,0,0,1-4.72,1.12,19.39,19.39,0,0,1-3.74-.24,11.16,11.16,0,0,1-4-1.38c-2.29-1.38-3.82-3.69-5.73-5.56-1.67-1.63-3.63-2.92-5.13-4.7A21.94,21.94,0,0,1,6,42.59a75.52,75.52,0,0,1-2.29-8.14c-1-4.68-1.91-10.59.24-15.7A60.79,60.79,0,0,1,7.15,13.2Z"/><path class="cls-37" d="M7.17,13.29C9.87,8.41,14,2.2,19.88,5a5,5,0,0,1,1.93,1.54c1.19,1.65.84,3.75.51,5.86-.54,3.34-1.39,7.61-3.81,10.12A13.94,13.94,0,0,1,16,24.4a8.22,8.22,0,0,0-2.82,2.66c-1,1.65-.89,3.61-.48,5.62.31,1.52.81,3.06,1.15,4.51a20.26,20.26,0,0,0,1,3.77,6.8,6.8,0,0,0,4.56,3.67,4.24,4.24,0,0,0,1.1.11c1.55,2.72,4.42,4.43,7.29,5.57a21.48,21.48,0,0,1,3.79,1.75,6,6,0,0,1,2.75,3.79,5.29,5.29,0,0,1-1.43,4.59,9.66,9.66,0,0,1-4.7,1.11,20.11,20.11,0,0,1-3.73-.26,11.32,11.32,0,0,1-4-1.4c-2.27-1.37-3.81-3.67-5.72-5.53-1.66-1.62-3.61-2.91-5.1-4.69a21.94,21.94,0,0,1-3.62-7.15,75,75,0,0,1-2.29-8.11c-1-4.63-1.89-10.5.24-15.6A57.7,57.7,0,0,1,7.17,13.29Z"/><path class="cls-38" d="M7.19,13.38C9.87,8.49,14,2.33,19.86,5.07A4.91,4.91,0,0,1,21.78,6.6c1.18,1.66.79,3.74.42,5.83-.59,3.3-1.45,7.54-3.84,10.07a15.16,15.16,0,0,1-2.44,1.94,8.26,8.26,0,0,0-2.78,2.68,7.8,7.8,0,0,0-.47,5.6c.31,1.52.8,3,1.14,4.49a20.92,20.92,0,0,0,1,3.75,6.92,6.92,0,0,0,4.52,3.69,5.24,5.24,0,0,0,1.1.13c1.54,2.7,4.39,4.41,7.25,5.54A22.38,22.38,0,0,1,31.45,52a5.94,5.94,0,0,1,2.77,3.74,5.29,5.29,0,0,1-1.35,4.59,9.46,9.46,0,0,1-4.68,1.09,20.79,20.79,0,0,1-3.71-.28,11.46,11.46,0,0,1-3.94-1.42c-2.26-1.37-3.8-3.65-5.7-5.5-1.65-1.61-3.59-2.91-5.07-4.68a22,22,0,0,1-3.63-7.12,72.33,72.33,0,0,1-2.3-8.08C2.83,29.79,2,24,4.09,18.87A56.87,56.87,0,0,1,7.19,13.38Z"/><path class="cls-39" d="M7.2,13.47c2.67-4.9,6.79-11,12.64-8.28a4.81,4.81,0,0,1,1.91,1.53c1.17,1.66.73,3.72.33,5.79-.63,3.26-1.52,7.47-3.87,10a14.58,14.58,0,0,1-2.41,2,8.47,8.47,0,0,0-2.73,2.7,7.86,7.86,0,0,0-.46,5.58c.3,1.51.79,3,1.14,4.47a19.94,19.94,0,0,0,1,3.73,7,7,0,0,0,4.48,3.7,5.29,5.29,0,0,0,1.09.15c1.54,2.69,4.36,4.4,7.22,5.52A22.15,22.15,0,0,1,31.31,52a5.92,5.92,0,0,1,2.79,3.7,5.25,5.25,0,0,1-1.27,4.58,9.3,9.3,0,0,1-4.67,1.08,18.73,18.73,0,0,1-3.68-.31,11.78,11.78,0,0,1-3.92-1.42c-2.25-1.38-3.79-3.63-5.69-5.48-1.64-1.61-3.56-2.91-5-4.67A22.38,22.38,0,0,1,6.2,42.4a67.45,67.45,0,0,1-2.3-8.06c-1-4.53-1.82-10.34.25-15.4A55,55,0,0,1,7.2,13.47Z"/><path class="cls-40" d="M7.22,13.55C9.87,8.64,14,2.58,19.81,5.31a4.6,4.6,0,0,1,1.91,1.53c1.16,1.66.67,3.71.24,5.75-.68,3.22-1.58,7.4-3.9,10a15.46,15.46,0,0,1-2.37,2A8.63,8.63,0,0,0,13,27.24a8,8,0,0,0-.45,5.56c.3,1.51.79,3,1.14,4.45a19.56,19.56,0,0,0,1,3.71,7,7,0,0,0,4.44,3.71,4.66,4.66,0,0,0,1.08.17c1.55,2.67,4.34,4.39,7.19,5.5A22.4,22.4,0,0,1,31.18,52,5.93,5.93,0,0,1,34,55.65a5.27,5.27,0,0,1-1.2,4.57,9.09,9.09,0,0,1-4.65,1.06A19.42,19.42,0,0,1,24.47,61a11.89,11.89,0,0,1-3.89-1.44c-2.24-1.37-3.78-3.61-5.67-5.45-1.64-1.6-3.55-2.9-5-4.66a22.61,22.61,0,0,1-3.64-7.07A66.42,66.42,0,0,1,4,34.3C3,29.82,2.17,24,4.21,19A56.65,56.65,0,0,1,7.22,13.55Z"/><path class="cls-41" d="M7.24,13.64C9.87,8.72,14,2.71,19.79,5.43A4.61,4.61,0,0,1,21.69,7c1.15,1.67.61,3.7.15,5.72-.73,3.18-1.64,7.33-3.93,9.89a14.44,14.44,0,0,1-2.34,2,8.88,8.88,0,0,0-2.64,2.74,8,8,0,0,0-.44,5.54c.29,1.5.78,3,1.13,4.44a21.36,21.36,0,0,0,1,3.68,7.16,7.16,0,0,0,4.41,3.73,5.09,5.09,0,0,0,1.07.18,13.66,13.66,0,0,0,7.16,5.47A23.93,23.93,0,0,1,31,52a6,6,0,0,1,2.83,3.62,5.28,5.28,0,0,1-1.12,4.57,8.92,8.92,0,0,1-4.63,1,19.14,19.14,0,0,1-3.65-.36,11.81,11.81,0,0,1-3.87-1.45C18.37,58,16.82,55.79,14.94,54c-1.63-1.6-3.52-2.9-5-4.65a22.59,22.59,0,0,1-3.65-7,66.52,66.52,0,0,1-2.3-8c-1-4.44-1.75-10.18.26-15.21A55.82,55.82,0,0,1,7.24,13.64Z"/><path class="cls-41" d="M7.25,13.73C9.87,8.8,13.93,2.84,19.77,5.55a4.52,4.52,0,0,1,1.89,1.52c1.14,1.67.55,3.68.06,5.68-.77,3.14-1.7,7.26-4,9.83a15.34,15.34,0,0,1-2.3,2,8.91,8.91,0,0,0-2.59,2.76,8,8,0,0,0-.44,5.52c.29,1.49.77,3,1.13,4.42a19.32,19.32,0,0,0,1,3.66A7.26,7.26,0,0,0,19,44.7a4.59,4.59,0,0,0,1.06.2,13.59,13.59,0,0,0,7.13,5.45,24.13,24.13,0,0,1,3.75,1.59,5.92,5.92,0,0,1,2.86,3.57,5.27,5.27,0,0,1-1,4.56,8.85,8.85,0,0,1-4.61,1,19.13,19.13,0,0,1-3.64-.39,12,12,0,0,1-3.84-1.47c-2.22-1.37-3.77-3.57-5.64-5.39-1.63-1.59-3.5-2.9-5-4.64a22.76,22.76,0,0,1-3.65-7,62.28,62.28,0,0,1-2.3-8c-1-4.39-1.72-10.1.26-15.11A57.12,57.12,0,0,1,7.25,13.73Z"/><path class="cls-42" d="M7.27,13.82C9.87,8.88,13.92,3,19.75,5.66a4.62,4.62,0,0,1,1.89,1.53c1.12,1.67.49,3.67,0,5.63-.82,3.11-1.76,7.2-4,9.79a17.73,17.73,0,0,1-2.26,2,8.84,8.84,0,0,0-2.55,2.77,8.1,8.1,0,0,0-.43,5.5c.29,1.49.77,3,1.12,4.4a20,20,0,0,0,1,3.64,7.41,7.41,0,0,0,4.33,3.76,5.14,5.14,0,0,0,1.05.21A13.59,13.59,0,0,0,27,50.36a24.11,24.11,0,0,1,3.76,1.55,6,6,0,0,1,2.87,3.54,5.27,5.27,0,0,1-1,4.55,8.65,8.65,0,0,1-4.59,1,19.67,19.67,0,0,1-3.62-.41,12.19,12.19,0,0,1-3.82-1.49c-2.21-1.36-3.76-3.54-5.62-5.36a63.61,63.61,0,0,1-4.93-4.63,23,23,0,0,1-3.66-7,60.73,60.73,0,0,1-2.3-7.95c-.94-4.35-1.69-10,.27-15A51.16,51.16,0,0,1,7.27,13.82Z"/><path class="cls-43" d="M7.28,13.91C9.87,9,13.9,3.09,19.73,5.78a4.52,4.52,0,0,1,1.88,1.53C22.72,9,22,11,21.49,12.9c-.88,3.07-1.83,7.13-4,9.73a17.72,17.72,0,0,1-2.22,2.06,9,9,0,0,0-2.5,2.79A8.23,8.23,0,0,0,12.3,33c.29,1.48.77,3,1.13,4.38A20.81,20.81,0,0,0,14.48,41a7.54,7.54,0,0,0,4.3,3.77,5.34,5.34,0,0,0,1,.24,13.51,13.51,0,0,0,7.06,5.4,23.52,23.52,0,0,1,3.75,1.52,5.93,5.93,0,0,1,2.89,3.49,5.25,5.25,0,0,1-.89,4.55,8.5,8.5,0,0,1-4.58,1,19.36,19.36,0,0,1-3.59-.44A12.23,12.23,0,0,1,20.66,59c-2.2-1.37-3.75-3.53-5.61-5.34A67,67,0,0,1,10.15,49a23,23,0,0,1-3.66-7,58,58,0,0,1-2.31-7.92c-.92-4.29-1.65-9.94.28-14.91A52.24,52.24,0,0,1,7.28,13.91Z"/><path class="cls-44" d="M7.3,14C9.87,9,13.88,3.22,19.71,5.9a4.41,4.41,0,0,1,1.87,1.52c1.1,1.69.37,3.64-.21,5.56-.93,3-1.9,7.06-4.07,9.67a16.94,16.94,0,0,1-2.18,2.08,9.21,9.21,0,0,0-2.46,2.81A8.35,8.35,0,0,0,12.24,33c.29,1.48.76,3,1.13,4.36A19.9,19.9,0,0,0,14.43,41a7.64,7.64,0,0,0,4.26,3.77,5.19,5.19,0,0,0,1,.26,13.39,13.39,0,0,0,7,5.38,24.67,24.67,0,0,1,3.74,1.48,5.94,5.94,0,0,1,2.92,3.45,5.28,5.28,0,0,1-.82,4.54,8.34,8.34,0,0,1-4.56,1,18.56,18.56,0,0,1-3.58-.46,12.47,12.47,0,0,1-3.77-1.51c-2.19-1.36-3.75-3.51-5.59-5.31A66.58,66.58,0,0,1,10.21,49,23.41,23.41,0,0,1,6.54,42a59.58,59.58,0,0,1-2.3-7.9c-.91-4.24-1.62-9.85.28-14.81A52.67,52.67,0,0,1,7.3,14Z"/><path class="cls-45" d="M7.32,14.08C9.87,9.11,13.86,3.34,19.68,6a4.35,4.35,0,0,1,1.87,1.52c1.09,1.69.31,3.63-.3,5.52-1,3-2,7-4.1,9.61A17.66,17.66,0,0,1,15,24.77a9.41,9.41,0,0,0-2.41,2.83A8.36,8.36,0,0,0,12.18,33c.28,1.47.75,2.94,1.12,4.34A20.59,20.59,0,0,0,14.38,41a7.79,7.79,0,0,0,4.22,3.79,5.15,5.15,0,0,0,1,.27,13.31,13.31,0,0,0,7,5.35,27.4,27.4,0,0,1,3.74,1.46,5.93,5.93,0,0,1,2.93,3.41,5.28,5.28,0,0,1-.74,4.53,8.19,8.19,0,0,1-4.54,1,18.28,18.28,0,0,1-3.56-.49,12.65,12.65,0,0,1-3.75-1.52c-2.18-1.36-3.74-3.48-5.58-5.28a63.8,63.8,0,0,1-4.84-4.6A23.41,23.41,0,0,1,6.6,42a56.32,56.32,0,0,1-2.3-7.87c-.9-4.2-1.59-9.78.28-14.71A52,52,0,0,1,7.32,14.08Z"/><path class="cls-46" d="M7.33,14.17c2.54-5,6.51-10.7,12.33-8a4.26,4.26,0,0,1,1.86,1.52c1.08,1.69.25,3.61-.39,5.48-1,3-2,6.92-4.13,9.55a18.38,18.38,0,0,1-2.11,2.12,9.5,9.5,0,0,0-2.37,2.85,8.44,8.44,0,0,0-.4,5.42c.28,1.47.75,2.93,1.12,4.32A20.16,20.16,0,0,0,14.33,41a7.92,7.92,0,0,0,4.18,3.8,6.07,6.07,0,0,0,1,.29,13.18,13.18,0,0,0,7,5.33,27.66,27.66,0,0,1,3.73,1.42,5.93,5.93,0,0,1,3,3.37,5.27,5.27,0,0,1-.66,4.53,8,8,0,0,1-4.52.95,18.76,18.76,0,0,1-3.54-.51,12.75,12.75,0,0,1-3.73-1.54c-2.17-1.36-3.73-3.46-5.56-5.25a63.49,63.49,0,0,1-4.82-4.59A23.85,23.85,0,0,1,6.66,41.9a54.4,54.4,0,0,1-2.31-7.85c-.88-4.15-1.55-9.69.29-14.61A53.27,53.27,0,0,1,7.33,14.17Z"/><path class="cls-47" d="M7.35,14.26c2.52-5,6.47-10.66,12.29-8a4.22,4.22,0,0,1,1.85,1.51c1.07,1.7.2,3.6-.48,5.45-1.07,2.92-2.08,6.85-4.16,9.5a19.14,19.14,0,0,1-2.08,2.13,9.7,9.7,0,0,0-2.31,2.87,8.52,8.52,0,0,0-.4,5.4c.28,1.46.74,2.92,1.12,4.3A20.21,20.21,0,0,0,14.27,41a8.14,8.14,0,0,0,4.15,3.82,6,6,0,0,0,1,.3,13.11,13.11,0,0,0,6.93,5.31,26.94,26.94,0,0,1,3.72,1.39,6,6,0,0,1,3,3.32,5.3,5.3,0,0,1-.59,4.52,7.86,7.86,0,0,1-4.51.94A17.21,17.21,0,0,1,24.44,60a13.14,13.14,0,0,1-3.71-1.54C18.58,57.13,17,55,15.19,53.26c-1.58-1.55-3.37-2.88-4.79-4.58a23.85,23.85,0,0,1-3.68-6.85A52.44,52.44,0,0,1,4.41,34c-.87-4.1-1.52-9.61.29-14.51A51.42,51.42,0,0,1,7.35,14.26Z"/><path class="cls-48" d="M7.37,14.35c2.5-5,6.43-10.63,12.25-8a4.14,4.14,0,0,1,1.84,1.51c1.06,1.71.14,3.58-.57,5.4-1.11,2.89-2.14,6.79-4.19,9.45a20.07,20.07,0,0,1-2,2.15,9.81,9.81,0,0,0-2.27,2.89A8.6,8.6,0,0,0,12,33.16c.27,1.46.73,2.9,1.11,4.28A20.66,20.66,0,0,0,14.22,41a8.24,8.24,0,0,0,4.12,3.83,6.76,6.76,0,0,0,1,.33,13.08,13.08,0,0,0,6.9,5.28A29.27,29.27,0,0,1,30,51.76a6,6,0,0,1,3,3.29,5.28,5.28,0,0,1-.51,4.51,7.72,7.72,0,0,1-4.49.92,17.63,17.63,0,0,1-3.5-.56,13.08,13.08,0,0,1-3.69-1.56C18.61,57,17,54.93,15.23,53.16a64.28,64.28,0,0,1-4.76-4.57,23.85,23.85,0,0,1-3.69-6.82A52.45,52.45,0,0,1,4.46,34c-.85-4-1.48-9.53.3-14.41A50.82,50.82,0,0,1,7.37,14.35Z"/><path class="cls-49" d="M7.38,14.43c2.49-5,6.4-10.58,12.22-7.93A4,4,0,0,1,21.43,8c1.05,1.71.08,3.57-.66,5.36-1.16,2.85-2.2,6.72-4.22,9.39a21.07,21.07,0,0,1-2,2.17,10,10,0,0,0-2.23,2.9,8.72,8.72,0,0,0-.38,5.37c.27,1.45.73,2.89,1.11,4.26A19.64,19.64,0,0,0,14.17,41a8.46,8.46,0,0,0,4.08,3.85,6.72,6.72,0,0,0,1,.34,13,13,0,0,0,6.86,5.25,28.67,28.67,0,0,1,3.72,1.33,6,6,0,0,1,3,3.24,5.32,5.32,0,0,1-.44,4.5,7.49,7.49,0,0,1-4.47.91,17.33,17.33,0,0,1-3.48-.58,13.63,13.63,0,0,1-3.67-1.58c-2.13-1.36-3.7-3.4-5.51-5.17a63.72,63.72,0,0,1-4.73-4.56,24.32,24.32,0,0,1-3.69-6.79,49.62,49.62,0,0,1-2.32-7.77c-.84-4-1.45-9.45.3-14.31A51.16,51.16,0,0,1,7.38,14.43Z"/><path class="cls-50" d="M7.4,14.52C9.87,9.5,13.77,4,19.58,6.62a4.06,4.06,0,0,1,1.82,1.5c1,1.72,0,3.56-.75,5.33-1.21,2.81-2.27,6.65-4.26,9.33a20.12,20.12,0,0,1-2,2.19,10.47,10.47,0,0,0-2.18,2.92,8.81,8.81,0,0,0-.37,5.35c.26,1.44.72,2.88,1.1,4.24A19.51,19.51,0,0,0,14.12,41a8.5,8.5,0,0,0,4,3.86,6.77,6.77,0,0,0,1,.36A12.89,12.89,0,0,0,26,50.42a30.57,30.57,0,0,1,3.71,1.29,6,6,0,0,1,3,3.21,5.3,5.3,0,0,1-.37,4.49,7.36,7.36,0,0,1-4.44.89,16.58,16.58,0,0,1-3.47-.61,13.48,13.48,0,0,1-3.64-1.59C18.68,56.75,17.1,54.72,15.3,53a63.3,63.3,0,0,1-4.71-4.55,24.77,24.77,0,0,1-3.7-6.77,49.11,49.11,0,0,1-2.31-7.73c-.83-4-1.42-9.37.3-14.22A49.36,49.36,0,0,1,7.4,14.52Z"/><path class="cls-51" d="M7.41,14.61c2.46-5,6.34-10.51,12.15-7.88a4,4,0,0,1,1.81,1.51c1,1.72,0,3.54-.83,5.29-1.27,2.77-2.34,6.58-4.3,9.27A22.4,22.4,0,0,1,14.32,25,10.76,10.76,0,0,0,12.18,28a8.9,8.9,0,0,0-.36,5.33,43.65,43.65,0,0,0,1.1,4.23A20.31,20.31,0,0,0,14.06,41a8.74,8.74,0,0,0,4,3.87,5.79,5.79,0,0,0,1,.38,12.84,12.84,0,0,0,6.8,5.21,30.5,30.5,0,0,1,3.71,1.26,6,6,0,0,1,3.05,3.16,5.33,5.33,0,0,1-.29,4.49,7.25,7.25,0,0,1-4.43.87,17.11,17.11,0,0,1-3.44-.63A14.19,14.19,0,0,1,20.81,58c-2.1-1.36-3.68-3.37-5.48-5.12a62.59,62.59,0,0,1-4.67-4.54A24.63,24.63,0,0,1,7,41.58a47.58,47.58,0,0,1-2.32-7.71c-.81-3.91-1.38-9.29.31-14.11A49.72,49.72,0,0,1,7.41,14.61Z"/><path class="cls-52" d="M7.43,14.7c2.44-5,6.3-10.47,12.1-7.85a3.91,3.91,0,0,1,1.81,1.51c1,1.72-.1,3.53-.92,5.25-1.31,2.73-2.4,6.51-4.33,9.22a25.13,25.13,0,0,1-1.89,2.23,10.88,10.88,0,0,0-2.09,3,9,9,0,0,0-.35,5.31,38.79,38.79,0,0,0,1.1,4.21A19.85,19.85,0,0,0,14,41a9,9,0,0,0,4,3.89,6.8,6.8,0,0,0,.95.39,12.72,12.72,0,0,0,6.77,5.19,32.71,32.71,0,0,1,3.7,1.22,6.08,6.08,0,0,1,3.08,3.12,5.34,5.34,0,0,1-.22,4.48,7,7,0,0,1-4.41.86,16.39,16.39,0,0,1-3.43-.66,14.39,14.39,0,0,1-3.59-1.61c-2.09-1.35-3.67-3.34-5.46-5.09a62.18,62.18,0,0,1-4.65-4.53A24.87,24.87,0,0,1,7,41.52a46.09,46.09,0,0,1-2.32-7.69c-.8-3.86-1.35-9.2.31-14A48,48,0,0,1,7.43,14.7Z"/><path class="cls-53" d="M7.45,14.79C9.87,9.73,13.71,4.35,19.51,7a3.92,3.92,0,0,1,1.8,1.5c1,1.73-.15,3.52-1,5.22-1.36,2.69-2.46,6.44-4.36,9.16a25.24,25.24,0,0,1-1.85,2.25,10.79,10.79,0,0,0-2,3,9.1,9.1,0,0,0-.36,5.29,42.85,42.85,0,0,0,1.1,4.19A20,20,0,0,0,14,41a9.17,9.17,0,0,0,3.93,3.9,6.24,6.24,0,0,0,.94.41,12.59,12.59,0,0,0,6.74,5.16,34.62,34.62,0,0,1,3.69,1.2,6,6,0,0,1,3.1,3.08,5.32,5.32,0,0,1-.14,4.47,7,7,0,0,1-4.39.84,16.1,16.1,0,0,1-3.41-.68,14.7,14.7,0,0,1-3.57-1.63c-2.08-1.35-3.67-3.32-5.45-5.06a61.49,61.49,0,0,1-4.61-4.52,25,25,0,0,1-3.72-6.68A45.4,45.4,0,0,1,4.75,33.8C4,30,3.43,24.67,5.06,19.88A48.23,48.23,0,0,1,7.45,14.79Z"/><path class="cls-54" d="M7.46,14.87c2.41-5.06,6.23-10.39,12-7.78a3.8,3.8,0,0,1,1.8,1.5c1,1.74-.22,3.5-1.11,5.18-1.41,2.65-2.52,6.37-4.39,9.1A27.3,27.3,0,0,1,14,25.14a11.17,11.17,0,0,0-2,3,9.2,9.2,0,0,0-.35,5.27,39.83,39.83,0,0,0,1.1,4.17A21.13,21.13,0,0,0,13.9,41a9.38,9.38,0,0,0,4.83,4.34,12.6,12.6,0,0,0,6.71,5.13,37.82,37.82,0,0,1,3.69,1.16,6.09,6.09,0,0,1,3.12,3,5.4,5.4,0,0,1-.07,4.47,6.84,6.84,0,0,1-4.37.82,16.59,16.59,0,0,1-3.39-.7,14.84,14.84,0,0,1-3.55-1.65c-2.07-1.35-3.66-3.3-5.43-5a61.08,61.08,0,0,1-4.59-4.51,25,25,0,0,1-3.72-6.66A43.68,43.68,0,0,1,4.8,33.76C4,30,3.52,24.72,5.13,19.94A48.44,48.44,0,0,1,7.46,14.87Z"/><path class="cls-55" d="M7.48,15c2.39-5.08,6.19-10.35,12-7.75a3.78,3.78,0,0,1,1.79,1.5c1,1.74-.28,3.49-1.2,5.13-1.45,2.62-2.59,6.31-4.42,9.05-.57.85-1.19,1.57-1.78,2.29a11.56,11.56,0,0,0-1.95,3,9.4,9.4,0,0,0-.34,5.25,37.13,37.13,0,0,0,1.09,4.15A21.64,21.64,0,0,0,13.85,41a9.72,9.72,0,0,0,3.86,3.92,6.6,6.6,0,0,0,.93.45,12.43,12.43,0,0,0,6.67,5.11A37.56,37.56,0,0,1,29,51.59a6,6,0,0,1,3.14,3,5.42,5.42,0,0,1,0,4.46,6.72,6.72,0,0,1-4.35.82,16.55,16.55,0,0,1-3.38-.74,14.66,14.66,0,0,1-3.52-1.66c-2.06-1.34-3.65-3.28-5.42-5A58.81,58.81,0,0,1,10.91,48a25.41,25.41,0,0,1-3.73-6.62,42.61,42.61,0,0,1-2.32-7.61C4.1,30,3.61,24.76,5.19,20A47,47,0,0,1,7.48,15Z"/><path class="cls-56" d="M7.5,15.05c2.37-5.09,6.15-10.32,12-7.72a3.71,3.71,0,0,1,1.78,1.5c1,1.74-.34,3.47-1.29,5.09-1.5,2.58-2.65,6.24-4.45,9-.56.86-1.17,1.59-1.74,2.31a11.74,11.74,0,0,0-1.91,3,9.51,9.51,0,0,0-.33,5.23,34.76,34.76,0,0,0,1.09,4.13A20.49,20.49,0,0,0,13.8,41a10,10,0,0,0,3.82,3.93,8.9,8.9,0,0,0,.92.47,12.37,12.37,0,0,0,6.63,5.09c1.25.39,2.53.6,3.68,1.09a6,6,0,0,1,3.16,3A5.44,5.44,0,0,1,32.1,59a6.67,6.67,0,0,1-4.34.8A16.3,16.3,0,0,1,24.41,59a15.59,15.59,0,0,1-3.5-1.67,38.47,38.47,0,0,1-5.4-5A58.3,58.3,0,0,1,11,47.86a25.27,25.27,0,0,1-3.74-6.59,41.51,41.51,0,0,1-2.32-7.58C4.17,30,3.7,24.81,5.25,20.07A45.2,45.2,0,0,1,7.5,15.05Z"/><path class="cls-57" d="M7.51,15.14C9.86,10,13.63,4.86,19.43,7.45A3.72,3.72,0,0,1,21.2,8.94c.95,1.75-.4,3.46-1.38,5.06-1.55,2.54-2.71,6.17-4.49,8.94-.54.85-1.14,1.59-1.7,2.32a12.19,12.19,0,0,0-1.86,3,9.54,9.54,0,0,0-.32,5.21,32.19,32.19,0,0,0,1.09,4.11A19.45,19.45,0,0,0,13.75,41a10.36,10.36,0,0,0,3.78,4,8.92,8.92,0,0,0,.91.48A12.29,12.29,0,0,0,25,50.47c1.24.39,2.52.58,3.68,1.07a6.09,6.09,0,0,1,3.18,2.91,5.49,5.49,0,0,1,.16,4.45,6.54,6.54,0,0,1-4.32.78,16,16,0,0,1-3.33-.79,15.49,15.49,0,0,1-3.48-1.68,38.15,38.15,0,0,1-5.38-5A57.9,57.9,0,0,1,11,47.77,26,26,0,0,1,7.3,41.21,41.34,41.34,0,0,1,5,33.65c-.73-3.61-1.19-8.79.34-13.52A43.64,43.64,0,0,1,7.51,15.14Z"/><path class="cls-58" d="M7.53,15.23C9.86,10.11,13.62,5,19.41,7.57a3.6,3.6,0,0,1,1.76,1.49c.94,1.75-.46,3.44-1.46,5-1.61,2.5-2.78,6.1-4.53,8.88-.54.86-1.11,1.6-1.66,2.34a12.71,12.71,0,0,0-1.82,3.07,9.77,9.77,0,0,0-.31,5.19,31.87,31.87,0,0,0,1.08,4.09A21.1,21.1,0,0,0,13.69,41a10.62,10.62,0,0,0,3.75,4,9.1,9.1,0,0,0,.9.5,12.22,12.22,0,0,0,6.57,5c1.24.38,2.51.56,3.67,1a6.1,6.1,0,0,1,3.2,2.87A5.48,5.48,0,0,1,32,58.82a6.36,6.36,0,0,1-4.3.77A16.65,16.65,0,0,1,21,57.08a38.41,38.41,0,0,1-5.37-4.92,59.18,59.18,0,0,1-4.48-4.48,26,26,0,0,1-3.74-6.54A39.45,39.45,0,0,1,5,33.62,27.72,27.72,0,0,1,5.37,20.2,42.37,42.37,0,0,1,7.53,15.23Z"/><path class="cls-59" d="M7.55,15.32C9.86,10.19,13.6,5.11,19.38,7.69a3.47,3.47,0,0,1,1.76,1.49c.93,1.76-.51,3.43-1.55,5-1.65,2.46-2.85,6-4.56,8.82-.53.86-1.09,1.61-1.63,2.36a12.88,12.88,0,0,0-1.76,3.09,9.79,9.79,0,0,0-.31,5.17,30.42,30.42,0,0,0,1.08,4.07A19.66,19.66,0,0,0,13.64,41a11.07,11.07,0,0,0,3.71,4,9.13,9.13,0,0,0,.89.51,12.12,12.12,0,0,0,6.54,5c1.23.37,2.51.54,3.66,1a6.07,6.07,0,0,1,3.22,2.83A5.51,5.51,0,0,1,32,58.75a6.3,6.3,0,0,1-4.28.75,15.64,15.64,0,0,1-3.3-.83A16.94,16.94,0,0,1,21,57a38,38,0,0,1-5.35-4.89,56.86,56.86,0,0,1-4.45-4.47,26.07,26.07,0,0,1-3.75-6.51,38.35,38.35,0,0,1-2.33-7.5,27.81,27.81,0,0,1,.34-13.32A42.44,42.44,0,0,1,7.55,15.32Z"/><path class="cls-60" d="M7.56,15.4c2.3-5.13,6-10.16,11.8-7.6a3.59,3.59,0,0,1,1.75,1.49c.92,1.77-.57,3.42-1.64,5-1.7,2.42-2.91,6-4.59,8.76-.52.86-1.07,1.63-1.59,2.38a13.32,13.32,0,0,0-1.72,3.11,9.93,9.93,0,0,0-.3,5.15,28.36,28.36,0,0,0,1.08,4A19.82,19.82,0,0,0,13.59,41a11.29,11.29,0,0,0,3.68,4q.43.3.87.54a12.08,12.08,0,0,0,6.51,5c1.23.36,2.5.52,3.66,1a6.12,6.12,0,0,1,3.24,2.79,5.58,5.58,0,0,1,.39,4.42,6.15,6.15,0,0,1-4.27.74,15.42,15.42,0,0,1-3.27-.86A17,17,0,0,1,21,56.83,39,39,0,0,1,15.65,52a56.36,56.36,0,0,1-4.42-4.46A26.51,26.51,0,0,1,7.48,41a37.33,37.33,0,0,1-2.34-7.48,28.18,28.18,0,0,1,.35-13.22A44.44,44.44,0,0,1,7.56,15.4Z"/><path class="cls-61" d="M7.58,15.49c2.28-5.15,6-10.12,11.76-7.57a3.52,3.52,0,0,1,1.74,1.49c.91,1.77-.63,3.4-1.73,4.9-1.75,2.39-3,5.9-4.62,8.71-.51.87-1.05,1.64-1.55,2.4a14,14,0,0,0-1.68,3.13,10.08,10.08,0,0,0-.29,5.13,28.07,28.07,0,0,0,1.07,4A21.19,21.19,0,0,0,13.53,41a11.84,11.84,0,0,0,3.65,4c.29.2.58.39.86.55a12,12,0,0,0,6.48,5c1.22.36,2.49.5,3.65.94a6.11,6.11,0,0,1,3.26,2.74,5.64,5.64,0,0,1,.47,4.42,6,6,0,0,1-4.25.72,14.94,14.94,0,0,1-3.26-.88A17.82,17.82,0,0,1,21,56.7a39.2,39.2,0,0,1-5.31-4.84,56,56,0,0,1-4.4-4.45A27.41,27.41,0,0,1,7.53,41,36.79,36.79,0,0,1,5.2,33.51a28.29,28.29,0,0,1,.35-13.12A43.13,43.13,0,0,1,7.58,15.49Z"/><path class="cls-62" d="M7.59,15.58C9.85,10.42,13.54,5.49,19.32,8a3.41,3.41,0,0,1,1.73,1.49c.9,1.77-.69,3.39-1.82,4.86-1.8,2.35-3,5.83-4.65,8.66-.5.86-1,1.64-1.52,2.41a14.63,14.63,0,0,0-1.63,3.15,10.23,10.23,0,0,0-.28,5.11,25.56,25.56,0,0,0,1.07,4A20.3,20.3,0,0,0,13.48,41a12.06,12.06,0,0,0,3.61,4c.28.21.57.4.85.57a11.88,11.88,0,0,0,6.45,4.94c1.22.35,2.48.48,3.64.9a6.24,6.24,0,0,1,3.29,2.71,5.67,5.67,0,0,1,.54,4.41,5.93,5.93,0,0,1-4.23.7,14.67,14.67,0,0,1-3.24-.91A17.43,17.43,0,0,1,21,56.57a39.5,39.5,0,0,1-5.3-4.81,57.06,57.06,0,0,1-4.36-4.44,27.12,27.12,0,0,1-3.77-6.43,36.79,36.79,0,0,1-2.34-7.42,28.57,28.57,0,0,1,.36-13A44.29,44.29,0,0,1,7.59,15.58Z"/><path class="cls-63" d="M7.61,15.67c2.24-5.17,5.91-10,11.69-7.51A3.41,3.41,0,0,1,21,9.64c.89,1.78-.75,3.38-1.91,4.83-1.84,2.31-3.09,5.76-4.68,8.6-.49.87-1,1.66-1.48,2.44a14.61,14.61,0,0,0-1.59,3.16,10.51,10.51,0,0,0-.28,5.09,26.76,26.76,0,0,0,1.07,4A20.76,20.76,0,0,0,13.43,41,12.52,12.52,0,0,0,17,45a8.59,8.59,0,0,0,.84.59,11.88,11.88,0,0,0,6.41,4.92c1.23.34,2.49.46,3.65.87a6.17,6.17,0,0,1,3.3,2.66,5.67,5.67,0,0,1,.62,4.4,5.76,5.76,0,0,1-4.21.69,14.63,14.63,0,0,1-3.23-.93A18.48,18.48,0,0,1,21,56.44a39.11,39.11,0,0,1-5.28-4.78,55,55,0,0,1-4.34-4.43,27.48,27.48,0,0,1-3.77-6.4,35.2,35.2,0,0,1-2.34-7.4,28.71,28.71,0,0,1,.36-12.92A41.75,41.75,0,0,1,7.61,15.67Z"/><path class="cls-64" d="M7.63,15.76c2.22-5.19,5.87-10,11.65-7.48A3.31,3.31,0,0,1,21,9.76c.87,1.79-.81,3.36-2,4.79-1.89,2.27-3.16,5.69-4.72,8.54-.47.87-1,1.67-1.44,2.46a15.89,15.89,0,0,0-1.54,3.18A10.81,10.81,0,0,0,11,33.8a25.08,25.08,0,0,0,1.07,4A21.52,21.52,0,0,0,13.38,41a13.26,13.26,0,0,0,3.53,4q.42.33.84.6a11.72,11.72,0,0,0,6.37,4.9c1.22.34,2.48.44,3.64.83A6.2,6.2,0,0,1,31.08,54a5.7,5.7,0,0,1,.7,4.39,5.66,5.66,0,0,1-4.19.67,14.5,14.5,0,0,1-3.21-.95,19.71,19.71,0,0,1-3.32-1.78,41.58,41.58,0,0,1-5.27-4.76,58,58,0,0,1-4.31-4.42,28,28,0,0,1-3.77-6.37A34,34,0,0,1,5.37,33.4a28.85,28.85,0,0,1,.36-12.82A40.57,40.57,0,0,1,7.63,15.76Z"/><path class="cls-65" d="M7.64,15.84c2.2-5.19,5.84-10,11.62-7.44A3.29,3.29,0,0,1,21,9.88c.86,1.79-.86,3.35-2.09,4.75-1.94,2.23-3.22,5.61-4.75,8.48-.47.88-.95,1.68-1.4,2.48a15.67,15.67,0,0,0-1.49,3.2A10.86,10.86,0,0,0,11,33.84a23.82,23.82,0,0,0,1.07,4A20.88,20.88,0,0,0,13.32,41a13.88,13.88,0,0,0,3.5,4c.28.23.55.43.83.63A11.71,11.71,0,0,0,24,50.54c1.22.33,2.47.41,3.63.8A6.21,6.21,0,0,1,31,53.92a5.81,5.81,0,0,1,.77,4.39,5.62,5.62,0,0,1-4.18.65,14.31,14.31,0,0,1-3.18-1,19.59,19.59,0,0,1-3.3-1.79,41.24,41.24,0,0,1-5.25-4.73,53.93,53.93,0,0,1-4.28-4.41A28.13,28.13,0,0,1,7.77,40.7a33.6,33.6,0,0,1-2.35-7.34,29.18,29.18,0,0,1,.37-12.72A41.4,41.4,0,0,1,7.64,15.84Z"/><path class="cls-66" d="M7.66,15.93C9.84,10.72,13.46,6,19.23,8.52A3.26,3.26,0,0,1,20.94,10c.84,1.79-.93,3.33-2.18,4.71-2,2.19-3.29,5.54-4.79,8.42-.46.88-.93,1.7-1.36,2.5a16,16,0,0,0-1.45,3.22,10.92,10.92,0,0,0-.26,5A23.32,23.32,0,0,0,12,37.82,20.76,20.76,0,0,0,13.27,41a14.55,14.55,0,0,0,3.46,4.07c.27.22.55.44.82.64a11.58,11.58,0,0,0,6.31,4.84c1.21.33,2.46.4,3.63.77a6.29,6.29,0,0,1,3.36,2.54,5.87,5.87,0,0,1,.85,4.38,5.47,5.47,0,0,1-4.16.64,14.27,14.27,0,0,1-3.17-1,20.61,20.61,0,0,1-3.27-1.81,40.84,40.84,0,0,1-5.24-4.7A53.48,53.48,0,0,1,11.61,47a28.72,28.72,0,0,1-3.79-6.32,33,33,0,0,1-2.34-7.31A29.25,29.25,0,0,1,5.86,20.7,38.39,38.39,0,0,1,7.66,15.93Z"/><path class="cls-67" d="M7.68,16c2.16-5.22,5.77-9.9,11.53-7.38a3.23,3.23,0,0,1,1.7,1.47c.83,1.8-1,3.32-2.27,4.67-2.05,2.15-3.36,5.48-4.82,8.38-.45.88-.9,1.7-1.33,2.51a17.89,17.89,0,0,0-1.4,3.24,11.26,11.26,0,0,0-.25,5,22.43,22.43,0,0,0,1.06,3.92A21,21,0,0,0,13.22,41a15.09,15.09,0,0,0,3.42,4.08q.41.34.81.66a11.52,11.52,0,0,0,6.28,4.82c1.21.32,2.46.38,3.62.74a6.26,6.26,0,0,1,3.38,2.5,5.91,5.91,0,0,1,.93,4.37,5.38,5.38,0,0,1-4.14.62,13.52,13.52,0,0,1-3.15-1,20.84,20.84,0,0,1-3.25-1.82,41.19,41.19,0,0,1-5.22-4.67,54.61,54.61,0,0,1-4.22-4.39,28.8,28.8,0,0,1-3.8-6.29,32.64,32.64,0,0,1-2.34-7.29,29.44,29.44,0,0,1,.38-12.53A37.78,37.78,0,0,1,7.68,16Z"/><path class="cls-68" d="M7.69,16.11c2.14-5.23,5.74-9.86,11.5-7.35a3.13,3.13,0,0,1,1.69,1.47c.82,1.8-1.05,3.3-2.36,4.63-2.09,2.11-3.42,5.41-4.85,8.32-.44.88-.88,1.71-1.29,2.53A18.3,18.3,0,0,0,11,29a11.47,11.47,0,0,0-.24,5,22.2,22.2,0,0,0,1.05,3.9A21.46,21.46,0,0,0,13.16,41a16.12,16.12,0,0,0,3.39,4.09c.27.24.53.47.8.68a11.42,11.42,0,0,0,6.25,4.8c1.2.31,2.45.35,3.61.7a6.34,6.34,0,0,1,3.41,2.46,5.93,5.93,0,0,1,1,4.37,5.32,5.32,0,0,1-4.12.6,13.89,13.89,0,0,1-3.13-1,21.63,21.63,0,0,1-3.23-1.84,41.56,41.56,0,0,1-5.21-4.64,54.1,54.1,0,0,1-4.19-4.38,29.64,29.64,0,0,1-3.8-6.26,31.84,31.84,0,0,1-2.35-7.27A29.77,29.77,0,0,1,6,20.83,38.91,38.91,0,0,1,7.69,16.11Z"/><path class="cls-69" d="M7.71,16.2C9.83,11,13.41,6.38,19.17,8.88a3.11,3.11,0,0,1,1.68,1.47c.81,1.81-1.11,3.28-2.45,4.59-2.14,2.07-3.48,5.34-4.88,8.26-.43.89-.86,1.72-1.26,2.55A19.51,19.51,0,0,0,11,29a11.69,11.69,0,0,0-.23,5,20.19,20.19,0,0,0,1,3.88A21.29,21.29,0,0,0,13.11,41a17.29,17.29,0,0,0,3.35,4.11c.26.24.53.47.79.69a11.39,11.39,0,0,0,6.22,4.78c1.2.3,2.44.33,3.61.67a6.35,6.35,0,0,1,3.42,2.41A6,6,0,0,1,31.58,58a5.21,5.21,0,0,1-4.11.59,13.77,13.77,0,0,1-3.11-1.07,22.86,22.86,0,0,1-3.2-1.85A42,42,0,0,1,16,51.06a52.14,52.14,0,0,1-4.17-4.37A29.92,29.92,0,0,1,8,40.45a30.73,30.73,0,0,1-2.35-7.23A30,30,0,0,1,6,20.89,36.71,36.71,0,0,1,7.71,16.2Z"/><path class="cls-70" d="M7.72,16.28C9.82,11,13.39,6.5,19.15,9a3.13,3.13,0,0,1,1.67,1.47c.8,1.82-1.17,3.28-2.54,4.56-2.19,2-3.54,5.27-4.91,8.2-.42.89-.84,1.74-1.22,2.57a20,20,0,0,0-1.27,3.3A11.93,11.93,0,0,0,10.66,34a19.48,19.48,0,0,0,1.05,3.86A21.11,21.11,0,0,0,13.06,41a17.87,17.87,0,0,0,3.31,4.12c.26.25.52.49.78.71a11.23,11.23,0,0,0,6.18,4.75c1.2.3,2.44.32,3.61.64a6.31,6.31,0,0,1,3.45,2.38,6.06,6.06,0,0,1,1.15,4.35,5.16,5.16,0,0,1-4.09.58,13.54,13.54,0,0,1-3.09-1.11,23.76,23.76,0,0,1-3.18-1.86A42.51,42.51,0,0,1,16,51a53.1,53.1,0,0,1-4.13-4.36,30,30,0,0,1-3.81-6.21,30,30,0,0,1-2.35-7.21A30.27,30.27,0,0,1,6.1,21,39,39,0,0,1,7.72,16.28Z"/><path class="cls-71" d="M7.74,16.37c2.08-5.27,5.63-9.74,11.39-7.26a3.08,3.08,0,0,1,1.66,1.47c.79,1.82-1.23,3.26-2.63,4.52-2.23,2-3.61,5.2-4.95,8.14-.4.9-.8,1.75-1.18,2.59a21.39,21.39,0,0,0-1.21,3.32,12,12,0,0,0-.22,4.93,19.78,19.78,0,0,0,1,3.84A21,21,0,0,0,13,41a19.1,19.1,0,0,0,3.27,4.14l.77.73a11.19,11.19,0,0,0,6.15,4.72c1.2.29,2.44.3,3.6.61a6.32,6.32,0,0,1,3.47,2.33,6.15,6.15,0,0,1,1.23,4.35,5.1,5.1,0,0,1-4.07.56,13.91,13.91,0,0,1-3.07-1.13,24.13,24.13,0,0,1-3.16-1.88A42.08,42.08,0,0,1,16,50.86a52.73,52.73,0,0,1-4.11-4.35,30.24,30.24,0,0,1-3.81-6.18,29.28,29.28,0,0,1-2.36-7.19A30.68,30.68,0,0,1,6.16,21,37.38,37.38,0,0,1,7.74,16.37Z"/><path class="cls-72" d="M7.76,16.46c2.06-5.28,5.59-9.7,11.34-7.23a3,3,0,0,1,1.66,1.47c.77,1.82-1.28,3.24-2.72,4.48-2.28,1.95-3.67,5.13-5,8.09-.4.89-.78,1.75-1.14,2.6a21.93,21.93,0,0,0-1.17,3.34,12.46,12.46,0,0,0-.21,4.91,18.53,18.53,0,0,0,1,3.83A21.77,21.77,0,0,0,13,41a20.48,20.48,0,0,0,3.24,4.15l.76.75a11.14,11.14,0,0,0,6.12,4.7c1.19.29,2.43.27,3.6.57a6.38,6.38,0,0,1,3.48,2.29,6.22,6.22,0,0,1,1.31,4.34,5,5,0,0,1-4.05.55,13,13,0,0,1-3.06-1.16,25.27,25.27,0,0,1-3.13-1.89,42.5,42.5,0,0,1-5.14-4.53A52.36,52.36,0,0,1,12,46.42a32,32,0,0,1-3.82-6.15,28.76,28.76,0,0,1-2.35-7.16,31,31,0,0,1,.4-12A36.8,36.8,0,0,1,7.76,16.46Z"/><path class="cls-73" d="M7.77,16.55c2-5.29,5.56-9.67,11.31-7.2a2.94,2.94,0,0,1,1.65,1.46c.76,1.83-1.34,3.24-2.8,4.44-2.34,1.92-3.74,5.07-5,8-.39.9-.76,1.77-1.1,2.63a22,22,0,0,0-1.13,3.35,13,13,0,0,0-.21,4.89,18.81,18.81,0,0,0,1,3.81,22.86,22.86,0,0,0,1.39,3,21.69,21.69,0,0,0,3.21,4.16c.24.27.49.52.75.77,1.55,2.16,3.54,4.07,6.08,4.68,1.19.28,2.42.25,3.59.54A6.38,6.38,0,0,1,30,53.39a6.21,6.21,0,0,1,1.38,4.33,4.9,4.9,0,0,1-4,.53,13.24,13.24,0,0,1-3-1.18,27,27,0,0,1-3.11-1.9,43.92,43.92,0,0,1-5.13-4.51,51.75,51.75,0,0,1-4-4.33A31.64,31.64,0,0,1,8.23,40.2a28.28,28.28,0,0,1-2.35-7.13,31.29,31.29,0,0,1,.4-11.93A36.73,36.73,0,0,1,7.77,16.55Z"/><path class="cls-74" d="M7.79,16.64c2-5.31,5.52-9.63,11.27-7.17a2.88,2.88,0,0,1,1.64,1.46c.75,1.84-1.4,3.22-2.89,4.4-2.39,1.88-3.8,5-5,8-.38.9-.74,1.78-1.07,2.65a25,25,0,0,0-1.08,3.37,13.27,13.27,0,0,0-.2,4.87,17.58,17.58,0,0,0,1,3.79,20.39,20.39,0,0,0,1.4,3A23.44,23.44,0,0,0,16,45.17c.24.27.49.53.74.78,1.55,2.15,3.52,4.07,6,4.65,1.19.28,2.41.24,3.58.51a6.46,6.46,0,0,1,3.53,2.21,6.23,6.23,0,0,1,1.45,4.32,4.8,4.8,0,0,1-4,.52,13.42,13.42,0,0,1-3-1.2A30,30,0,0,1,21.26,55a42.68,42.68,0,0,1-5.11-4.48,49.88,49.88,0,0,1-4-4.32,32.22,32.22,0,0,1-3.83-6.1A27.83,27.83,0,0,1,5.93,33a31.85,31.85,0,0,1,.41-11.83A35.78,35.78,0,0,1,7.79,16.64Z"/><path class="cls-75" d="M7.81,16.72C9.8,11.41,13.3,7.14,19,9.59a2.9,2.9,0,0,1,1.63,1.46c.74,1.84-1.46,3.2-3,4.36-2.43,1.84-3.87,4.93-5.08,7.92-.37.91-.72,1.79-1,2.67a26,26,0,0,0-1,3.38,13.68,13.68,0,0,0-.19,4.86,17.25,17.25,0,0,0,1,3.77,20.84,20.84,0,0,0,1.41,3,25.46,25.46,0,0,0,3.13,4.18c.24.27.48.54.73.8,1.55,2.13,3.5,4.06,6,4.63,1.18.27,2.41.22,3.58.47a6.49,6.49,0,0,1,3.54,2.17,6.3,6.3,0,0,1,1.53,4.32,4.71,4.71,0,0,1-4,.5,12.71,12.71,0,0,1-3-1.23,30.9,30.9,0,0,1-3.07-1.93,44.81,44.81,0,0,1-5.09-4.45,50.89,50.89,0,0,1-4-4.31,33,33,0,0,1-3.83-6.07A26.94,26.94,0,0,1,6,33,32.2,32.2,0,0,1,6.4,21.27,33.87,33.87,0,0,1,7.81,16.72Z"/><path class="cls-76" d="M7.82,16.81c2-5.33,5.46-9.55,11.2-7.1a2.85,2.85,0,0,1,1.62,1.46c.73,1.84-1.52,3.19-3.07,4.32-2.48,1.81-3.94,4.86-5.11,7.86-.36.91-.69,1.81-1,2.69a28.43,28.43,0,0,0-1,3.4,14.05,14.05,0,0,0-.18,4.84,16.52,16.52,0,0,0,1,3.75,22.44,22.44,0,0,0,1.42,3,28.67,28.67,0,0,0,3.1,4.2l.72.81c1.55,2.12,3.48,4.05,6,4.61,1.18.26,2.4.2,3.57.44a6.49,6.49,0,0,1,3.57,2.13,6.39,6.39,0,0,1,1.6,4.31,4.63,4.63,0,0,1-4,.48,12.87,12.87,0,0,1-3-1.25,30.82,30.82,0,0,1-3.05-1.95,43.39,43.39,0,0,1-5.07-4.42,48.83,48.83,0,0,1-4-4.3A33.26,33.26,0,0,1,8.41,40,26.52,26.52,0,0,1,6,33a32.85,32.85,0,0,1,.42-11.63A35.28,35.28,0,0,1,7.82,16.81Z"/><path class="cls-77" d="M7.84,16.9C9.79,11.56,13.26,7.39,19,9.83a2.78,2.78,0,0,1,1.61,1.45c.71,1.85-1.58,3.18-3.16,4.29-2.53,1.77-4,4.79-5.15,7.81-.34.91-.66,1.81-1,2.7a29.17,29.17,0,0,0-.94,3.42,14.19,14.19,0,0,0-.18,4.82,15.86,15.86,0,0,0,1,3.73,21.64,21.64,0,0,0,1.43,3,31.07,31.07,0,0,0,3.06,4.21l.71.84c1.55,2.09,3.45,4,5.95,4.58,1.18.25,2.4.17,3.57.4a6.55,6.55,0,0,1,3.59,2.09,6.47,6.47,0,0,1,1.68,4.3,4.55,4.55,0,0,1-3.95.47,12.07,12.07,0,0,1-3-1.28c-1-.6-2-1.24-3-2a46.91,46.91,0,0,1-5.06-4.4A50.07,50.07,0,0,1,12.31,46a34.18,34.18,0,0,1-3.85-6,25.94,25.94,0,0,1-2.36-7A33.51,33.51,0,0,1,6.52,21.4,34.41,34.41,0,0,1,7.84,16.9Z"/><path class="cls-78" d="M7.86,17C9.78,11.63,13.24,7.52,19,10a2.78,2.78,0,0,1,1.61,1.45c.69,1.85-1.64,3.16-3.26,4.25-2.57,1.73-4.06,4.72-5.18,7.75-.34.91-.64,1.82-.91,2.72a29.93,29.93,0,0,0-.9,3.44,14.87,14.87,0,0,0-.17,4.8,15.71,15.71,0,0,0,1,3.71A21.48,21.48,0,0,0,12.64,41a35.91,35.91,0,0,0,3,4.23c.23.28.46.57.7.85,1.55,2.08,3.43,4,5.92,4.55,1.18.25,2.4.16,3.57.38a6.58,6.58,0,0,1,3.61,2.05,6.51,6.51,0,0,1,1.75,4.29,4.49,4.49,0,0,1-3.94.45,12.48,12.48,0,0,1-2.94-1.3c-1-.61-2-1.26-3-2a46.57,46.57,0,0,1-5-4.37,47.9,47.9,0,0,1-3.91-4.28,34.37,34.37,0,0,1-3.86-6,25.26,25.26,0,0,1-2.36-7,33.72,33.72,0,0,1,.42-11.43A32.42,32.42,0,0,1,7.86,17Z"/><path class="cls-79" d="M7.87,17.08c1.9-5.37,5.35-9.44,11.08-7a2.77,2.77,0,0,1,1.61,1.46c.68,1.86-1.7,3.14-3.35,4.2-2.62,1.7-4.12,4.66-5.21,7.7-.33.92-.62,1.84-.88,2.74a33,33,0,0,0-.85,3.46,14.26,14.26,0,0,0,.86,8.47A23.2,23.2,0,0,0,12.58,41a43,43,0,0,0,3,4.24l.69.87c1.55,2.07,3.41,4,5.89,4.53,1.17.24,2.39.14,3.56.34a6.78,6.78,0,0,1,5.46,6.3,4.41,4.41,0,0,1-3.92.43,12.44,12.44,0,0,1-2.92-1.32c-1-.62-2-1.28-3-2a46,46,0,0,1-5-4.34,49,49,0,0,1-3.88-4.27,35.32,35.32,0,0,1-3.86-6,25,25,0,0,1-2.37-7,34.3,34.3,0,0,1,.44-11.33A31.87,31.87,0,0,1,7.87,17.08Z"/><path class="cls-80" d="M7.89,17.16c1.87-5.38,5.31-9.39,11-7a2.76,2.76,0,0,1,1.6,1.45c.67,1.87-1.76,3.14-3.43,4.17-2.68,1.66-4.19,4.59-5.25,7.64-.32.92-.59,1.85-.84,2.76-.31,1.14-.61,2.3-.81,3.48a15.53,15.53,0,0,0-.15,4.76,14.38,14.38,0,0,0,1,3.67A21.74,21.74,0,0,0,12.53,41a49.34,49.34,0,0,0,3,4.25c.22.3.45.6.68.89,1.55,2,3.39,4,5.86,4.51,1.17.24,2.38.12,3.55.31a6.83,6.83,0,0,1,5.56,6.24,4.34,4.34,0,0,1-3.9.42,11.69,11.69,0,0,1-2.91-1.35c-1-.62-2-1.29-2.95-2a46.67,46.67,0,0,1-5-4.31,47.36,47.36,0,0,1-3.86-4.27,35.07,35.07,0,0,1-3.86-5.93,24.06,24.06,0,0,1-2.37-6.94,34.9,34.9,0,0,1,.44-11.24A30.55,30.55,0,0,1,7.89,17.16Z"/><path class="cls-81" d="M18.91,10.3a2.71,2.71,0,0,1,1.59,1.45c.66,1.87-1.82,3.12-3.52,4.13-3.54,2.1-5.07,6.38-6.09,10.36a21.82,21.82,0,0,0-.9,8.24c.53,4,3,7.5,5.4,10.79,1.7,2.33,3.67,4.83,6.5,5.39,1.16.23,2.37.09,3.55.27a6.9,6.9,0,0,1,5.65,6.2c-1.95,1.45-4.72.33-6.77-1A47.32,47.32,0,0,1,12.57,45.6,28.6,28.6,0,0,1,6.33,32.78,37.08,37.08,0,0,1,7.9,17.25C9.76,11.86,13.18,7.89,18.91,10.3Z"/><path d="M21.48,6c1.92,1.21,3.44,2.53,2.63,4.88-.53,1.52-1.17,3-1.75,4.52L20.2,21c-.48,1.23-.8,2.72-2,3.44l.74-.42c-1.54.39-3.09-.17-4.52.55-1.92,1-1.93,2.69-2,4.69a30.26,30.26,0,0,0,3.44,14.43C16.6,45,17.57,47.34,19.05,48c2.74,1.21,4.18-3,7.14-.74,2.77,2.08,5.41,4.36,8.11,6.53a23.06,23.06,0,0,1,2.11,1.7c2.23,2.26-.45,6.16-2.39,7.79-5.19,4.37-11.5.57-15.84-2.93A40.33,40.33,0,0,1,3.39,31.81C2.76,22.43,7.16-1.64,21.48,6c.16.09.71-.58.86-.5a10.45,10.45,0,0,0-10.51.28C8.09,8,6.3,12,4.87,15.94a40.1,40.1,0,0,0,9.41,42.19c3.39,3.36,8.19,7.62,13.24,7.59a11.76,11.76,0,0,0,6.85-2.53c1.77-1.34,4.07-4.17,3.8-6.56C38,55.37,36.92,54.7,36,54l-8.59-6.92c-1.27-1-2.3-1.41-3.9-.64a14.55,14.55,0,0,0-2.13,1.32l.8-.47c-4,2.23-6.84-6.84-7.63-9.51a30.78,30.78,0,0,1-1.19-6.53c-.15-2.15-.69-5.61,1.45-6.93l-.85.49c1.88-.56,3.82.29,5.46-1.11,1.18-1,1.61-3.18,2.15-4.57l2.87-7.41a18,18,0,0,0,.69-1.77C25.71,7.78,24,6.55,22.34,5.5,22.21,5.42,21.6,6.08,21.48,6Z"/></g></g></g></svg>